<?xml version="1.0" encoding="UTF-8"?>
<!DOCTYPE svg PUBLIC "-//W3C//DTD SVG 1.1//EN" "http://www.w3.org/Graphics/SVG/1.1/DTD/svg11.dtd">
<svg xmlns="http://www.w3.org/2000/svg" version="1.1" width="4076px" height="5000px" style="shape-rendering:geometricPrecision; text-rendering:geometricPrecision; image-rendering:optimizeQuality; fill-rule:evenodd; clip-rule:evenodd" xmlns:xlink="http://www.w3.org/1999/xlink">
<g><path style="opacity:0.998" fill="#999999" d="M 3013.5,-0.5 C 3020.5,-0.5 3027.5,-0.5 3034.5,-0.5C 3048.56,153.376 3029.39,303.042 2977,448.5C 2905.7,641.053 2792.87,804.553 2638.5,939C 2544.11,1020.39 2437.11,1080.39 2317.5,1119C 2236.7,1143.97 2154.03,1155.31 2069.5,1153C 2056.1,1152.43 2042.77,1151.26 2029.5,1149.5C 2017.51,1065.91 2019.35,982.572 2035,899.5C 2058.04,779.69 2100.37,667.356 2162,562.5C 2234.7,437.086 2327.2,327.919 2439.5,235C 2607.27,100.431 2798.6,21.9314 3013.5,-0.5 Z"/></g>
<g><path style="opacity:1" fill="#999999" d="M 4075.5,3666.5 C 4075.5,3667.5 4075.5,3668.5 4075.5,3669.5C 3988.66,3901.17 3882.5,4123.5 3757,4336.5C 3689.36,4450.46 3613.36,4558.46 3529,4660.5C 3477.17,4721.67 3420.67,4778.17 3359.5,4830C 3307.19,4873.17 3250.53,4909.84 3189.5,4940C 3089.31,4987.75 2984.31,5003.09 2874.5,4986C 2818.06,4977.71 2762.73,4964.71 2708.5,4947C 2627.73,4919.19 2547.4,4890.19 2467.5,4860C 2392.81,4832.83 2316.15,4813.49 2237.5,4802C 2167.42,4793.04 2097.42,4793.71 2027.5,4804C 1948.64,4816.38 1871.31,4835.05 1795.5,4860C 1714.15,4887.67 1633.15,4916.34 1552.5,4946C 1504.24,4962.75 1455.24,4977.08 1405.5,4989C 1382.89,4993.87 1360.23,4997.37 1337.5,4999.5C 1320.5,4999.5 1303.5,4999.5 1286.5,4999.5C 1216.77,4992.98 1150.44,4974.15 1087.5,4943C 1028.75,4913.53 973.753,4878.53 922.5,4838C 839.474,4770.97 763.64,4696.47 695,4614.5C 585.305,4481.85 488.972,4339.85 406,4188.5C 241.249,3888.93 123.582,3571.6 53,3236.5C 22.7613,3090.17 4.92794,2942.5 -0.5,2793.5C -0.5,2745.83 -0.5,2698.17 -0.5,2650.5C 5.10324,2479.12 32.2699,2311.12 81,2146.5C 136.783,1961.57 224.45,1794.23 344,1644.5C 447.522,1517.94 571.022,1416.1 714.5,1339C 969.862,1206.91 1235.86,1180.57 1512.5,1260C 1555.27,1271.92 1597.61,1285.26 1639.5,1300C 1709.48,1325.55 1779.14,1351.88 1848.5,1379C 1886.36,1393.07 1924.7,1405.73 1963.5,1417C 2004.99,1429.17 2047.33,1434.5 2090.5,1433C 2123.27,1428.98 2155.27,1421.65 2186.5,1411C 2215.13,1401.46 2243.46,1391.12 2271.5,1380C 2349.5,1347.67 2428.16,1317 2507.5,1288C 2613.58,1249.56 2722.58,1223.23 2834.5,1209C 3025.13,1189.25 3211.13,1210.25 3392.5,1272C 3594.33,1344.22 3761.83,1464.05 3895,1631.5C 3912.07,1653.97 3927.9,1677.3 3942.5,1701.5C 3760.14,1810.36 3619.31,1958.69 3520,2146.5C 3440.97,2302.8 3401.8,2468.64 3402.5,2644C 3403.69,2991.31 3536.69,3275.65 3801.5,3497C 3884.78,3565.84 3976.11,3622.34 4075.5,3666.5 Z"/></g>
</svg>
