<?xml version="1.0" encoding="UTF-8"?>
<!DOCTYPE svg PUBLIC "-//W3C//DTD SVG 1.1//EN" "http://www.w3.org/Graphics/SVG/1.1/DTD/svg11.dtd">
<svg xmlns="http://www.w3.org/2000/svg" version="1.1" width="1280px" height="667px" style="shape-rendering:geometricPrecision; text-rendering:geometricPrecision; image-rendering:optimizeQuality; fill-rule:evenodd; clip-rule:evenodd" xmlns:xlink="http://www.w3.org/1999/xlink">
<g><path style="opacity:0.833" fill="#00b3ff" d="M 1247.5,-0.5 C 1254.5,-0.5 1261.5,-0.5 1268.5,-0.5C 1273.06,0.944508 1276.72,3.61117 1279.5,7.5C 1279.5,17.1667 1279.5,26.8333 1279.5,36.5C 1273.97,43.0262 1266.81,45.6928 1258,44.5C 1249.79,45.5373 1242.79,43.2039 1237,37.5C 1235.42,28.2424 1235.08,18.9091 1236,9.5C 1238.18,4.14961 1242.01,0.816279 1247.5,-0.5 Z M 1251.5,3.5 C 1257.23,3.28324 1262.9,3.78324 1268.5,5C 1270.59,5.79217 1272.42,6.95884 1274,8.5C 1282.71,34.4437 1273.88,44.6103 1247.5,39C 1245.41,38.2078 1243.58,37.0412 1242,35.5C 1240.39,26.9362 1240.06,18.2695 1241,9.5C 1243.89,6.27366 1247.39,4.27366 1251.5,3.5 Z M 1252.5,12.5 C 1255.52,12.3354 1258.52,12.502 1261.5,13C 1265.72,16.4725 1265.38,19.4725 1260.5,22C 1257.85,22.4974 1255.19,22.6641 1252.5,22.5C 1252.5,19.1667 1252.5,15.8333 1252.5,12.5 Z"/></g>
<g><path style="opacity:0.986" fill="#00b4ff" d="M 1051.5,1.5 C 1060.67,0.177834 1070.01,0.177834 1079.5,1.5C 1080.17,2.5 1080.83,3.5 1081.5,4.5C 1086.83,5.16667 1092.17,5.83333 1097.5,6.5C 1097.98,7.47758 1098.64,8.31091 1099.5,9C 1107.58,12.473 1115.58,16.1397 1123.5,20C 1125.79,21.2899 1127.79,22.9565 1129.5,25C 1134.83,25.3333 1140.17,25.6667 1145.5,26C 1146.64,27.9734 1147.97,29.8067 1149.5,31.5C 1154.8,32.3295 1160.14,32.8295 1165.5,33C 1166.26,34.5122 1167.26,35.8455 1168.5,37C 1175.17,37.3333 1181.83,37.6667 1188.5,38C 1189.26,39.5122 1190.26,40.8455 1191.5,42C 1198.5,42.3333 1205.5,42.6667 1212.5,43C 1219.33,51.1667 1226.83,58.6667 1235,65.5C 1240.98,77.0946 1245.98,89.0946 1250,101.5C 1252.04,103.739 1253.54,106.239 1254.5,109C 1253.87,123.35 1253.2,137.683 1252.5,152C 1255.28,159.344 1257.45,166.844 1259,174.5C 1260.24,192.487 1260.58,210.487 1260,228.5C 1258.86,236.009 1256.2,243.009 1252,249.5C 1251.61,256.17 1251.78,262.836 1252.5,269.5C 1252.42,282.328 1247.92,293.328 1239,302.5C 1237.25,316.255 1235.08,329.921 1232.5,343.5C 1234.95,371.481 1235.45,399.481 1234,427.5C 1231.71,433.977 1230.38,440.644 1230,447.5C 1229.67,457.167 1229.33,466.833 1229,476.5C 1225.71,491.927 1222.05,507.26 1218,522.5C 1213.74,531.887 1207.9,540.054 1200.5,547C 1183.27,552.809 1165.93,558.309 1148.5,563.5C 1144.29,562.398 1140.29,560.731 1136.5,558.5C 1132.04,561.703 1127.04,563.536 1121.5,564C 1113.11,565.849 1104.78,565.849 1096.5,564C 1106.36,554.442 1112.03,542.775 1113.5,529C 1112.16,519.652 1110.33,510.485 1108,501.5C 1113.88,498.811 1119.71,495.977 1125.5,493C 1127.04,491.89 1127.7,490.39 1127.5,488.5C 1126.18,488.67 1125.01,488.337 1124,487.5C 1118.97,475.276 1113.8,463.109 1108.5,451C 1111.53,423.826 1114.53,396.659 1117.5,369.5C 1104.24,350.228 1097.08,328.894 1096,305.5C 1093.14,301.685 1091.81,297.352 1092,292.5C 1091.67,279.833 1091.33,267.167 1091,254.5C 1088.22,253.712 1087.05,251.879 1087.5,249C 1090.28,234.02 1089.78,219.187 1086,204.5C 1085.33,173.167 1085.33,141.833 1086,110.5C 1087.15,109.257 1088.49,108.257 1090,107.5C 1090.17,95.1532 1090.67,82.8199 1091.5,70.5C 1092.48,70.0233 1093.31,69.3567 1094,68.5C 1094.67,59.8333 1094.67,51.1667 1094,42.5C 1079.61,28.9388 1065.44,15.2721 1051.5,1.5 Z M 1140.5,132.5 C 1149.51,132.334 1158.51,132.5 1167.5,133C 1170.46,134.961 1173.13,137.294 1175.5,140C 1177.91,141.707 1180.58,142.54 1183.5,142.5C 1183.26,145.794 1184.09,148.794 1186,151.5C 1190.48,156.066 1195.14,160.399 1200,164.5C 1202.13,172.136 1204.13,179.802 1206,187.5C 1207.08,189.996 1208.41,192.33 1210,194.5C 1210.67,209.5 1210.67,224.5 1210,239.5C 1207.22,242.718 1205.22,246.385 1204,250.5C 1202.17,257.471 1200.51,264.471 1199,271.5C 1194.78,275.264 1192.12,279.931 1191,285.5C 1188.3,322.445 1186.97,359.445 1187,396.5C 1183.14,405.754 1179.47,415.088 1176,424.5C 1174.69,444.767 1167.69,462.767 1155,478.5C 1154.67,406.5 1154.33,334.5 1154,262.5C 1151.57,259.205 1149.9,255.538 1149,251.5C 1147.53,243.661 1145.53,235.994 1143,228.5C 1142.04,201.323 1140.88,174.157 1139.5,147C 1139.96,142.171 1140.29,137.338 1140.5,132.5 Z"/></g>
<g><path style="opacity:0.985" fill="#00b3ff" d="M 929.5,7.5 C 933.62,7.09096 936.954,8.42429 939.5,11.5C 947.813,12.3317 956.147,12.8317 964.5,13C 980.241,19.6847 996.574,24.018 1013.5,26C 1017.29,27.3926 1020.95,29.0593 1024.5,31C 1030.67,35.8333 1036.83,40.6667 1043,45.5C 1050.67,61.5 1058.33,77.5 1066,93.5C 1066.67,103.833 1066.67,114.167 1066,124.5C 1064.67,127.833 1063.33,131.167 1062,134.5C 1062.99,155.877 1057.65,175.543 1046,193.5C 1037.16,207.177 1024.66,214.844 1008.5,216.5C 1008.77,220.571 1008.43,224.571 1007.5,228.5C 1011.74,228.653 1016.08,228.82 1020.5,229C 1023.63,230.399 1026.63,232.065 1029.5,234C 1033.24,238.016 1037.07,241.849 1041,245.5C 1042.73,249.668 1043.9,254.002 1044.5,258.5C 1047.79,259.527 1050.63,261.193 1053,263.5C 1055.21,274.215 1057.54,284.882 1060,295.5C 1059.61,312.823 1061.61,329.823 1066,346.5C 1068.03,347.019 1070.03,347.353 1072,347.5C 1075.7,365.025 1078.53,382.691 1080.5,400.5C 1079.56,406.349 1078.56,412.183 1077.5,418C 1077.64,418.772 1077.98,419.439 1078.5,420C 1081.77,419.937 1083.93,421.437 1085,424.5C 1087,429.007 1088.5,433.674 1089.5,438.5C 1088.83,440.833 1088.17,443.167 1087.5,445.5C 1090.03,457.889 1089.7,470.222 1086.5,482.5C 1088.01,485.853 1089.01,489.353 1089.5,493C 1084.46,516.416 1079.79,539.916 1075.5,563.5C 1067.45,561.759 1059.78,558.926 1052.5,555C 1043.65,545.48 1033.65,537.48 1022.5,531C 1015.92,529.623 1009.26,529.123 1002.5,529.5C 1001.97,525.233 1002.47,520.899 1004,516.5C 1009.27,502.364 1013.93,488.031 1018,473.5C 1023.89,428.742 1018.56,385.409 1002,343.5C 999.457,340.299 996.957,337.133 994.5,334C 996.929,322.936 998.096,311.77 998,300.5C 991.413,286.312 983.079,273.312 973,261.5C 972.473,272.415 969.139,282.415 963,291.5C 965.914,331.226 969.747,370.893 974.5,410.5C 973.733,413.098 972.733,415.598 971.5,418C 972.78,420.734 973.946,423.567 975,426.5C 975.667,438.167 975.667,449.833 975,461.5C 974.301,465.965 973.134,470.298 971.5,474.5C 974.566,491.364 976.066,508.364 976,525.5C 975.333,526.833 974.333,527.833 973,528.5C 973.216,543.867 971.049,558.867 966.5,573.5C 955.386,541.894 935.386,517.728 906.5,501C 904.291,499.127 902.458,496.96 901,494.5C 904.418,478.233 909.085,462.233 915,446.5C 917.235,439.789 920.235,433.456 924,427.5C 924.632,421.786 924.299,416.119 923,410.5C 921.846,409.257 920.512,408.257 919,407.5C 918.667,364.5 918.333,321.5 918,278.5C 916.23,269.236 914.896,259.902 914,250.5C 912.673,247.869 911.34,245.202 910,242.5C 909.667,236.5 909.333,230.5 909,224.5C 908.46,220.115 907.293,215.949 905.5,212C 906.059,211.275 906.392,210.442 906.5,209.5C 902.14,191.14 899.974,172.473 900,153.5C 897.274,150.714 895.607,147.381 895,143.5C 892.485,141.893 891.151,139.56 891,136.5C 890.333,124.5 890.333,112.5 891,100.5C 891.093,97.9925 891.926,95.8259 893.5,94C 908.4,84.5442 921.733,73.2108 933.5,60C 929.366,58.0462 925.033,56.5462 920.5,55.5C 916.627,60.0723 911.961,61.239 906.5,59C 901.911,47.0579 894.245,37.3912 883.5,30C 879.167,27 874.833,24 870.5,21C 865.223,19.5136 859.889,18.3469 854.5,17.5C 854.5,15.8333 854.5,14.1667 854.5,12.5C 876.504,12.257 898.504,11.757 920.5,11C 923.571,9.70435 926.571,8.53768 929.5,7.5 Z M 964.5,72.5 C 969.11,72.971 973.11,74.8043 976.5,78C 986.26,88.3694 995.427,99.2028 1004,110.5C 1007.72,117.365 1009.22,124.698 1008.5,132.5C 1009.28,139.046 1007.94,145.046 1004.5,150.5C 1002.75,166.586 998.251,181.919 991,196.5C 983.686,203.715 975.02,206.715 965,205.5C 964.5,161.168 964.333,116.835 964.5,72.5 Z"/></g>
<g><path style="opacity:0.987" fill="#00b4ff" d="M 215.5,8.5 C 218.518,8.33537 221.518,8.50204 224.5,9C 225.743,10.1545 226.743,11.4878 227.5,13C 239.833,13.3333 252.167,13.6667 264.5,14C 268.004,22.0811 274.004,25.4144 282.5,24C 286.333,28.5 290.167,33 294,37.5C 297.035,40.8702 300.368,43.8702 304,46.5C 304.667,62.1667 304.667,77.8333 304,93.5C 301.889,95.1017 300.389,97.1017 299.5,99.5C 301.739,103.247 304.573,106.58 308,109.5C 308.831,117.188 308.665,124.855 307.5,132.5C 306.522,132.977 305.689,133.643 305,134.5C 304.333,166.833 304.333,199.167 305,231.5C 309.889,234.059 312.889,238.059 314,243.5C 315.851,275.837 315.518,308.171 313,340.5C 311.846,341.743 310.512,342.743 309,343.5C 308.333,354.5 308.333,365.5 309,376.5C 310.57,377.614 311.903,378.947 313,380.5C 313.832,389.851 313.665,399.184 312.5,408.5C 310.386,409.034 308.552,410.034 307,411.5C 303.59,416.266 303.924,420.599 308,424.5C 308.667,428.167 308.667,431.833 308,435.5C 307.385,437.116 306.385,438.449 305,439.5C 304.831,446.856 304.331,454.189 303.5,461.5C 302.186,462.313 301.019,463.313 300,464.5C 299.667,474.833 299.333,485.167 299,495.5C 294.031,499.314 293.698,503.314 298,507.5C 298.953,510.432 299.453,513.432 299.5,516.5C 310.155,517.405 320.821,517.572 331.5,517C 332.5,516.667 333.5,516.333 334.5,516C 338.527,510.076 344.027,506.576 351,505.5C 362.989,508.705 375.156,511.038 387.5,512.5C 396.22,512.318 403.887,509.484 410.5,504C 419.981,501.44 429.648,500.106 439.5,500C 483.172,499.294 526.839,499.461 570.5,500.5C 570.333,520.503 570.5,540.503 571,560.5C 573.66,566.49 576.826,572.156 580.5,577.5C 558.833,578.833 537.167,578.833 515.5,577.5C 514.833,576.5 514.167,575.5 513.5,574.5C 508.198,573.671 502.864,573.171 497.5,573C 496.743,571.488 495.743,570.154 494.5,569C 489.487,569.559 485.487,567.892 482.5,564C 466.5,563.667 450.5,563.333 434.5,563C 431.891,562.057 429.891,560.39 428.5,558C 424.5,557.667 420.5,557.333 416.5,557C 381.833,556.667 347.167,556.333 312.5,556C 306.902,550.709 300.235,548.542 292.5,549.5C 288.384,549.403 284.384,549.903 280.5,551C 270.61,556.89 261.943,564.224 254.5,573C 245.527,572.542 236.527,572.042 227.5,571.5C 221.532,571.024 215.865,572.024 210.5,574.5C 208.545,572.042 206.378,569.709 204,567.5C 206.421,564.152 208.254,560.319 209.5,556C 219.8,550.864 229.133,544.364 237.5,536.5C 238.331,529.189 238.831,521.856 239,514.5C 243.667,511.5 243.667,508.5 239,505.5C 238.333,492.5 238.333,479.5 239,466.5C 239.689,465.643 240.522,464.977 241.5,464.5C 242.33,458.862 242.83,453.196 243,447.5C 249.103,440.041 247.77,433.708 239,428.5C 238.333,407.167 238.333,385.833 239,364.5C 241.449,363.271 242.616,361.271 242.5,358.5C 241.159,347.817 241.326,337.15 243,326.5C 244.512,325.743 245.846,324.743 247,323.5C 247.333,306.833 247.667,290.167 248,273.5C 254.881,266.704 254.881,260.037 248,253.5C 247.667,230.5 247.333,207.5 247,184.5C 245.981,183.313 244.814,182.313 243.5,181.5C 242.334,168.513 242.167,155.513 243,142.5C 246.917,140.004 249.917,136.67 252,132.5C 252.667,122.5 252.667,112.5 252,102.5C 250.22,100.707 248.387,99.0404 246.5,97.5C 254.047,87.0709 256.214,75.7376 253,63.5C 251.587,58.2609 249.587,53.2609 247,48.5C 243.298,46.5197 239.464,46.0197 235.5,47C 232.627,43.4228 230.127,39.5894 228,35.5C 222.146,30.3102 216.313,25.1435 210.5,20C 211.27,18.2252 212.437,16.7252 214,15.5C 214.977,13.26 215.477,10.9267 215.5,8.5 Z"/></g>
<g><path style="opacity:0.801" fill="#01b4ff" d="M 1247.5,8.5 C 1253.18,8.33391 1258.84,8.50058 1264.5,9C 1269.45,12.3999 1270.62,16.8999 1268,22.5C 1266.65,23.6853 1265.48,25.0186 1264.5,26.5C 1266.11,29.3821 1267.44,32.3821 1268.5,35.5C 1266.93,36.6309 1265.26,36.7975 1263.5,36C 1262.31,33.1217 1260.98,30.2883 1259.5,27.5C 1257.26,26.5258 1254.92,26.1924 1252.5,26.5C 1252.5,29.8333 1252.5,33.1667 1252.5,36.5C 1250.83,36.5 1249.17,36.5 1247.5,36.5C 1247.5,27.1667 1247.5,17.8333 1247.5,8.5 Z M 1252.5,12.5 C 1252.5,15.8333 1252.5,19.1667 1252.5,22.5C 1255.19,22.6641 1257.85,22.4974 1260.5,22C 1265.38,19.4725 1265.72,16.4725 1261.5,13C 1258.52,12.502 1255.52,12.3354 1252.5,12.5 Z"/></g>
<g><path style="opacity:0.986" fill="#00b4ff" d="M 810.5,10.5 C 818.77,9.38082 824.27,12.7141 827,20.5C 828.963,37.088 835.296,51.7547 846,64.5C 845.957,74.6228 846.957,84.6228 849,94.5C 853.435,109.367 858.435,124.034 864,138.5C 868.333,155.833 872.667,173.167 877,190.5C 878.193,192.605 879.86,194.272 882,195.5C 882.333,202.5 882.667,209.5 883,216.5C 886.582,220.24 887.915,224.573 887,229.5C 888.097,231.053 889.43,232.386 891,233.5C 891.167,238.167 891.333,242.833 891.5,247.5C 891.422,252.805 890.756,257.971 889.5,263C 891.626,282.546 894.126,302.046 897,321.5C 897.901,355.185 897.568,388.852 896,422.5C 894.92,424.996 893.586,427.33 892,429.5C 888.201,441.23 884.201,452.897 880,464.5C 878.503,468.165 876.503,471.498 874,474.5C 873.667,483.5 873.333,492.5 873,501.5C 871.171,503.156 869.837,505.156 869,507.5C 867.064,516.265 864.064,524.598 860,532.5C 859.83,538.528 859.33,544.528 858.5,550.5C 857.186,551.313 856.019,552.313 855,553.5C 854.667,560.5 854.333,567.5 854,574.5C 852.5,576 851,577.5 849.5,579C 845.751,579.274 842.084,580.107 838.5,581.5C 837.668,570.849 837.168,560.182 837,549.5C 832.845,536.546 828.845,523.546 825,510.5C 824.667,504.5 824.333,498.5 824,492.5C 822.392,489.228 820.392,486.228 818,483.5C 808.907,476.638 803.407,467.638 801.5,456.5C 801.667,455.5 801.833,454.5 802,453.5C 819.108,433.448 828.941,410.281 831.5,384C 826.756,378.26 821.09,373.594 814.5,370C 801.506,363.172 788.839,355.838 776.5,348C 774.098,347.186 771.765,347.353 769.5,348.5C 770.765,351.796 771.932,355.129 773,358.5C 773.168,366.853 773.668,375.187 774.5,383.5C 779.524,387.53 784.524,391.53 789.5,395.5C 787.533,399.297 785.366,402.964 783,406.5C 782.51,407.793 782.343,409.127 782.5,410.5C 770.174,409.695 757.84,409.528 745.5,410C 728.265,415.134 711.265,420.967 694.5,427.5C 691.28,421.821 688.28,415.988 685.5,410C 690.406,403.036 695.906,396.536 702,390.5C 702.749,383.903 704.416,377.569 707,371.5C 711.041,367.235 715.541,363.568 720.5,360.5C 719.653,359.155 718.487,358.155 717,357.5C 717.085,347.733 718.252,338.066 720.5,328.5C 718.202,321.532 718.035,314.532 720,307.5C 721.667,305.833 723.333,304.167 725,302.5C 725.333,295.833 725.667,289.167 726,282.5C 730.533,279.411 730.533,276.411 726,273.5C 726.448,262.844 726.448,252.178 726,241.5C 728.221,235.39 731.221,229.723 735,224.5C 738.176,216.12 740.009,207.453 740.5,198.5C 743.566,196.707 745.4,194.04 746,190.5C 746.11,170.485 751.11,151.818 761,134.5C 762.093,132.651 763.426,130.984 765,129.5C 765.096,125.801 764.596,122.134 763.5,118.5C 763.925,114.242 766.091,111.242 770,109.5C 773.495,97.6826 778.161,86.3493 784,75.5C 785.333,74.1667 786.667,72.8333 788,71.5C 788.333,64.5 788.667,57.5 789,50.5C 792.462,45.0338 797.129,41.0338 803,38.5C 804.212,31.913 804.879,25.2464 805,18.5C 805.625,14.8907 807.458,12.224 810.5,10.5 Z M 802.5,201.5 C 804.862,206.043 807.862,210.21 811.5,214C 816.822,215.998 822.155,217.998 827.5,220C 829.041,221.579 830.208,223.413 831,225.5C 832.77,234.094 834.103,242.761 835,251.5C 835.862,253.087 836.529,254.754 837,256.5C 837.743,278.847 837.576,301.18 836.5,323.5C 834.073,323.477 831.74,322.977 829.5,322C 822.956,317.227 815.956,313.227 808.5,310C 800.285,308.032 791.951,307.199 783.5,307.5C 783.706,295.983 783.373,284.483 782.5,273C 785.845,260.744 787.511,248.244 787.5,235.5C 789.582,235.528 791.416,234.861 793,233.5C 795.219,229.729 796.885,225.729 798,221.5C 799,220.5 800,219.5 801,218.5C 801.212,212.752 801.712,207.085 802.5,201.5 Z"/></g>
<g><path style="opacity:0.984" fill="#00b4ff" d="M 605.5,15.5 C 657.834,15.3333 710.168,15.5 762.5,16C 763.836,19.832 766.503,21.332 770.5,20.5C 768.116,35.7972 761.949,49.4639 752,61.5C 754.169,75.3276 749.836,86.6609 739,95.5C 738.667,100.833 738.333,106.167 738,111.5C 736.047,115.12 733.381,118.12 730,120.5C 727.894,131.469 725.894,142.469 724,153.5C 722.063,159.976 719.73,166.309 717,172.5C 716.264,190.831 715.598,209.164 715,227.5C 713.171,229.156 711.837,231.156 711,233.5C 708.644,242.923 705.978,252.256 703,261.5C 701.729,264.433 700.062,267.099 698,269.5C 697.667,275.167 697.333,280.833 697,286.5C 691.925,292.313 687.592,298.646 684,305.5C 683.667,323.5 683.333,341.5 683,359.5C 678.36,372.614 673.86,385.781 669.5,399C 671.592,413.021 669.759,426.521 664,439.5C 660.922,445.991 657.588,452.325 654,458.5C 652.166,467.668 649.333,476.501 645.5,485C 646.333,485.833 647.167,486.667 648,487.5C 649.268,485.283 650.768,483.283 652.5,481.5C 655.488,483.039 658.654,484.039 662,484.5C 667.459,483.396 672.959,482.562 678.5,482C 680.245,478.434 681.411,474.601 682,470.5C 682.883,467.898 684.383,465.731 686.5,464C 692.696,460.238 699.362,457.572 706.5,456C 716.919,450.124 727.586,444.791 738.5,440C 742.935,435.622 746.768,430.788 750,425.5C 751.833,427.333 753.667,429.167 755.5,431C 763.521,431.168 771.521,431.668 779.5,432.5C 783.163,436.151 785.496,440.485 786.5,445.5C 784.066,449.976 782.733,454.809 782.5,460C 782.357,464.219 783.524,468.052 786,471.5C 786.667,487.167 786.667,502.833 786,518.5C 785,519.167 784,519.833 783,520.5C 782.749,522.433 782.249,524.266 781.5,526C 758.5,526.667 735.5,526.667 712.5,526C 711.547,524.045 710.213,522.378 708.5,521C 701.962,520.385 695.462,519.552 689,518.5C 683.606,523.454 677.439,527.287 670.5,530C 657.833,530.333 645.167,530.667 632.5,531C 624.542,534.93 616.209,537.764 607.5,539.5C 605.626,539.61 604.126,538.944 603,537.5C 601.438,535.043 600.438,532.376 600,529.5C 599.964,519.497 600.464,509.497 601.5,499.5C 603.149,498.352 604.649,497.019 606,495.5C 606.781,490.695 606.281,486.028 604.5,481.5C 614.715,476.024 617.715,467.858 613.5,457C 620.596,452.627 622.262,446.627 618.5,439C 620.758,433.984 622.591,428.817 624,423.5C 624.756,413.464 624.423,403.464 623,393.5C 618.325,385.142 615.658,376.142 615,366.5C 613.837,347.714 614.837,329.048 618,310.5C 626.595,285.307 635.761,260.307 645.5,235.5C 641.082,231.115 639.915,226.115 642,220.5C 644.403,218.695 646.07,216.362 647,213.5C 648.106,208.231 648.773,202.897 649,197.5C 653.802,189.563 657.802,181.23 661,172.5C 662.089,165.137 662.756,157.804 663,150.5C 670.685,130.789 680.685,112.456 693,95.5C 693.333,89.8333 693.667,84.1667 694,78.5C 697.719,76.9675 698.552,74.8008 696.5,72C 688.167,71.6667 679.833,71.3333 671.5,71C 669.667,66.1667 666.167,63.6667 661,63.5C 649.371,62.6805 641.705,67.6805 638,78.5C 633.444,93.6141 629.777,108.947 627,124.5C 625.664,133.509 620.497,137.676 611.5,137C 609.638,139.229 607.638,140.896 605.5,142C 603.129,139.294 600.463,136.961 597.5,135C 599.199,131.373 600.199,127.54 600.5,123.5C 596.528,114.332 598.028,106.332 605,99.5C 605.5,71.502 605.667,43.502 605.5,15.5 Z"/></g>
<g><path style="opacity:0.987" fill="#00b4ff" d="M -0.5,44.5 C -0.5,39.5 -0.5,34.5 -0.5,29.5C 1.49998,28.024 3.16664,26.1906 4.5,24C 17.6942,24.2873 30.6942,22.954 43.5,20C 59.6025,17.2728 75.7692,16.7728 92,18.5C 107.011,18.0889 122.011,17.4222 137,16.5C 144.914,16.4158 152.747,17.0824 160.5,18.5C 160.491,20.3084 160.991,21.9751 162,23.5C 166.796,30.3238 173.296,33.4904 181.5,33C 192.873,39.0468 200.706,48.2134 205,60.5C 207.449,66.6297 209.116,72.963 210,79.5C 210.69,92.5417 211.856,105.542 213.5,118.5C 213.324,121.882 212.824,125.215 212,128.5C 204.333,142.5 196.667,156.5 189,170.5C 181.549,180.952 173.716,191.119 165.5,201C 171.742,206.529 179.075,209.529 187.5,210C 190.581,211.312 192.248,213.645 192.5,217C 191.647,221.891 189.814,226.391 187,230.5C 186.244,232.809 186.744,234.809 188.5,236.5C 189.478,236.023 190.311,235.357 191,234.5C 195.511,238.001 198.844,242.334 201,247.5C 202.154,248.743 203.488,249.743 205,250.5C 203.747,261.616 202.58,272.783 201.5,284C 202.044,290.948 203.211,297.781 205,304.5C 207.333,308.167 210.333,311.167 214,313.5C 215.724,315.897 215.724,318.231 214,320.5C 213.255,341.059 214.088,361.559 216.5,382C 217.026,392.032 214.526,401.199 209,409.5C 209.223,419.355 210.057,429.188 211.5,439C 210.498,449.673 207.665,459.84 203,469.5C 190.613,485.654 183.946,503.988 183,524.5C 165.978,532.503 150.311,542.503 136,554.5C 134.121,556.527 132.954,558.86 132.5,561.5C 124.141,562.782 115.807,564.282 107.5,566C 103.28,566.736 99.447,568.236 96,570.5C 92.1286,569.124 88.6286,567.124 85.5,564.5C 81.4235,566.412 77.7569,568.912 74.5,572C 61.4232,573.766 48.4232,573.266 35.5,570.5C 29.5321,571.684 23.5321,571.684 17.5,570.5C 15.3066,570.326 13.4733,570.993 12,572.5C 8.5,569.667 5,566.833 1.5,564C 7.04704,561.309 12.547,558.476 18,555.5C 22.2165,543.423 25.5499,531.09 28,518.5C 29.2286,499.521 30.0619,480.521 30.5,461.5C 29.1348,437.285 27.1348,413.118 24.5,389C 25.3258,361.167 26.3258,333.333 27.5,305.5C 32.2466,304.342 34.2466,301.342 33.5,296.5C 32.9236,290.507 32.4236,284.507 32,278.5C 30.032,275.263 28.8654,271.763 28.5,268C 29.2524,257.184 29.7524,246.35 30,235.5C 34.6833,227.277 35.6833,218.61 33,209.5C 31.6667,207.5 30.3333,205.5 29,203.5C 28.3333,164.5 28.3333,125.5 29,86.5C 30.1545,85.2567 31.4878,84.2567 33,83.5C 33.6667,79.5 33.6667,75.5 33,71.5C 30.9842,69.2494 28.6508,68.916 26,70.5C 21.9754,70.4755 19.9754,68.4755 20,64.5C 12.6356,58.3014 5.8023,51.6347 -0.5,44.5 Z M 125.5,81.5 C 127.857,81.3367 130.19,81.5034 132.5,82C 136.602,89.2213 142.935,92.5546 151.5,92C 148.235,93.2767 145.901,95.4433 144.5,98.5C 145.672,103.849 147.339,109.015 149.5,114C 147.562,116.47 146.396,119.304 146,122.5C 145.374,132.187 144.54,141.853 143.5,151.5C 135.872,152.73 129.705,156.397 125,162.5C 122.465,168.408 119.298,173.908 115.5,179C 113.456,179.048 111.456,178.548 109.5,177.5C 108.264,178.246 106.93,178.579 105.5,178.5C 105.333,149.831 105.5,121.165 106,92.5C 108.64,90.4974 110.14,87.8307 110.5,84.5C 115.64,83.582 120.64,82.582 125.5,81.5 Z M 105.5,238.5 C 116.204,248.704 127.371,258.371 139,267.5C 139.833,269.167 140.667,270.833 141.5,272.5C 139.019,276.303 139.353,279.97 142.5,283.5C 141.167,284.167 139.833,284.833 138.5,285.5C 144.397,290.67 146.064,296.837 143.5,304C 144.484,305.657 145.484,307.323 146.5,309C 144.288,315.68 142.622,322.514 141.5,329.5C 141.216,335.059 143.05,339.726 147,343.5C 147.956,347.342 148.79,351.175 149.5,355C 145.64,358.054 143.64,362.054 143.5,367C 144.79,374.7 146.79,382.2 149.5,389.5C 149.244,392.271 147.91,394.438 145.5,396C 151.059,398.502 152.059,402.335 148.5,407.5C 148.57,408.772 148.903,409.938 149.5,411C 146.952,422.316 143.785,433.482 140,444.5C 139.286,453.496 138.619,462.496 138,471.5C 137.489,473.878 136.822,476.212 136,478.5C 129.513,485.954 122.68,493.121 115.5,500C 109.392,502.425 104.058,506.092 99.5,511C 96.2609,512.819 92.9276,513.319 89.5,512.5C 91.9696,507.728 94.3029,502.894 96.5,498C 94.6067,480.223 94.1067,462.39 95,444.5C 95.3415,440.458 97.0082,437.125 100,434.5C 100.667,405.5 100.667,376.5 100,347.5C 97.9837,346.161 96.817,344.328 96.5,342C 97.5858,339.248 99.0858,336.748 101,334.5C 102.373,327.303 103.873,320.136 105.5,313C 102.9,303.996 102.066,294.829 103,285.5C 103.29,283.956 103.956,282.623 105,281.5C 105.5,267.171 105.667,252.837 105.5,238.5 Z"/></g>
<g><path style="opacity:0.979" fill="#00b4ff" d="M 439.5,19.5 C 485.162,20.3209 530.828,20.6543 576.5,20.5C 576.334,29.1731 576.5,37.8397 577,46.5C 578.368,49.1863 579.701,51.853 581,54.5C 581.667,83.5 581.667,112.5 581,141.5C 576.705,145.547 574.872,150.547 575.5,156.5C 575.46,160.955 576.127,165.288 577.5,169.5C 573.428,172.404 570.261,176.071 568,180.5C 561.667,195.5 555.333,210.5 549,225.5C 548.667,232.833 548.333,240.167 548,247.5C 542.92,249.955 538.087,252.788 533.5,256C 524.588,263.752 521.921,273.418 525.5,285C 519.868,290.052 515.034,295.886 511,302.5C 500.907,321.782 492.574,341.782 486,362.5C 485.852,368.249 485.186,373.915 484,379.5C 476.324,400.697 468.157,421.697 459.5,442.5C 461.428,445.268 464.095,446.102 467.5,445C 473.991,441.922 480.325,438.588 486.5,435C 494.929,434.616 502.929,432.616 510.5,429C 516,420.833 521.5,412.667 527,404.5C 532.939,397.117 540.439,392.117 549.5,389.5C 550.872,382.205 553.872,375.705 558.5,370C 559.167,369.333 559.833,369.333 560.5,370C 561.787,371.41 562.954,372.91 564,374.5C 566.686,373.324 569.019,371.657 571,369.5C 573.125,363.489 575.625,357.656 578.5,352C 583.155,351.501 587.821,351.334 592.5,351.5C 592.38,361.968 593.38,372.301 595.5,382.5C 593.418,382.472 591.584,383.139 590,384.5C 588.573,389.122 586.573,393.455 584,397.5C 583.34,420.175 583.506,442.842 584.5,465.5C 577.084,466.541 570.751,469.708 565.5,475C 547.833,475.667 530.167,475.667 512.5,475C 510.074,470.712 506.407,469.378 501.5,471C 497.918,472.246 495.251,474.58 493.5,478C 491.487,479.257 489.321,480.091 487,480.5C 481.325,479.499 476.158,477.332 471.5,474C 459.5,473.667 447.5,473.333 435.5,473C 428.745,467.011 428.911,461.177 436,455.5C 436.333,445.5 436.667,435.5 437,425.5C 438.154,424.257 439.488,423.257 441,422.5C 440.461,414.248 437.294,407.082 431.5,401C 433.923,398.487 435.256,395.487 435.5,392C 433.345,386.734 432.012,381.234 431.5,375.5C 433.225,361.485 435.058,347.485 437,333.5C 438.385,332.449 439.385,331.116 440,329.5C 441.07,311.367 448.07,296.034 461,283.5C 463.713,268.407 470.379,255.407 481,244.5C 484.808,224.598 490.475,205.265 498,186.5C 502,183.167 506,179.833 510,176.5C 513.788,167.713 519.454,160.379 527,154.5C 526.783,149.015 526.283,143.515 525.5,138C 525.648,132.592 526.815,127.425 529,122.5C 536.414,115.412 542.748,107.412 548,98.5C 551.298,94.2002 554.965,90.2002 559,86.5C 559.5,76.172 559.666,65.8387 559.5,55.5C 542.83,55.3334 526.163,55.5001 509.5,56C 501.362,59.8191 494.195,64.9857 488,71.5C 484.91,77.449 483.41,83.7823 483.5,90.5C 477.018,91.158 471.518,93.8247 467,98.5C 465.7,112.74 465.033,127.073 465,141.5C 461.752,147.664 458.252,153.664 454.5,159.5C 449.248,155.934 447.082,150.934 448,144.5C 447.333,142.5 446,141.167 444,140.5C 443,133.833 442,127.167 441,120.5C 440.727,118.671 439.893,117.171 438.5,116C 443.774,105.105 444.608,93.9378 441,82.5C 439.185,80.5951 437.185,78.9284 435,77.5C 434.333,62.8333 434.333,48.1667 435,33.5C 438.203,29.3921 439.703,24.7255 439.5,19.5 Z"/></g>
<g><path style="opacity:0.975" fill="#00b4ff" d="M 319.5,20.5 C 326.025,22.0403 332.692,22.8736 339.5,23C 356.5,23.6667 373.5,23.6667 390.5,23C 396.294,22.8797 401.96,22.0463 407.5,20.5C 409.098,23.6014 411.265,26.2681 414,28.5C 414.499,32.4862 414.666,36.4862 414.5,40.5C 405.603,42.5303 398.437,47.197 393,54.5C 391.299,56.9 390.466,59.5666 390.5,62.5C 392.779,66.6691 394.446,71.1691 395.5,76C 394.975,80.5234 392.808,84.0234 389,86.5C 389.059,115.334 389.559,144.167 390.5,173C 390.577,186.875 389.911,200.708 388.5,214.5C 390.601,224.738 392.935,234.904 395.5,245C 393.355,247.145 391.188,249.312 389,251.5C 387.621,254.515 386.788,257.681 386.5,261C 387.393,279.941 388.893,298.775 391,317.5C 390.488,323.042 387.821,327.375 383,330.5C 382.125,331.873 381.625,333.373 381.5,335C 384.349,345.324 386.182,355.824 387,366.5C 390.074,373.046 391.907,379.879 392.5,387C 392.021,396.534 391.188,406.034 390,415.5C 386.831,417.827 384.664,420.827 383.5,424.5C 384.667,429.167 385.833,433.833 387,438.5C 387.516,441.034 388.683,443.2 390.5,445C 399.336,450.25 408.002,455.75 416.5,461.5C 418.584,467.406 419.251,473.406 418.5,479.5C 411.193,476.47 404.026,476.47 397,479.5C 390.911,478.019 384.744,477.019 378.5,476.5C 368.851,477.233 359.184,478.067 349.5,479C 344.407,480.382 340.074,483.049 336.5,487C 333.833,489 331.167,489 328.5,487C 326.316,484.984 324.316,482.817 322.5,480.5C 325.86,476.307 329.027,471.974 332,467.5C 336.416,463.481 340.75,459.481 345,455.5C 346.977,434.874 348.477,414.207 349.5,393.5C 351.918,392.271 352.918,390.271 352.5,387.5C 352.196,383.886 351.029,380.552 349,377.5C 347.282,368.126 348.949,359.459 354,351.5C 353.879,292.835 353.379,234.169 352.5,175.5C 352.667,169.5 352.833,163.5 353,157.5C 354.214,155.951 355.714,154.785 357.5,154C 355.919,153.293 354.419,152.46 353,151.5C 350.922,118.838 348.922,86.1717 347,53.5C 346.654,51.1523 345.487,49.3189 343.5,48C 335.554,45.6883 328.221,42.355 321.5,38C 318.038,35.2497 315.538,32.0831 314,28.5C 316.054,25.9528 317.887,23.2861 319.5,20.5 Z"/></g>
<g><path style="opacity:0.916" fill="#000000" d="M 44.5,616.5 C 56.8333,616.5 69.1667,616.5 81.5,616.5C 81.5,619.5 81.5,622.5 81.5,625.5C 73.5,625.5 65.5,625.5 57.5,625.5C 57.5,628.833 57.5,632.167 57.5,635.5C 65.1667,635.5 72.8333,635.5 80.5,635.5C 80.5,638.833 80.5,642.167 80.5,645.5C 72.8333,645.5 65.1667,645.5 57.5,645.5C 57.5,648.833 57.5,652.167 57.5,655.5C 65.5,655.5 73.5,655.5 81.5,655.5C 81.5,658.833 81.5,662.167 81.5,665.5C 69.1667,665.5 56.8333,665.5 44.5,665.5C 44.5,649.167 44.5,632.833 44.5,616.5 Z"/></g>
<g><path style="opacity:0.927" fill="#000000" d="M 133.5,616.5 C 137.846,616.334 142.179,616.501 146.5,617C 153.962,626.131 161.795,634.964 170,643.5C 170.5,634.506 170.666,625.506 170.5,616.5C 174.833,616.5 179.167,616.5 183.5,616.5C 183.5,632.833 183.5,649.167 183.5,665.5C 179.818,665.665 176.152,665.499 172.5,665C 164,655.167 155.5,645.333 147,635.5C 146.5,645.494 146.334,655.494 146.5,665.5C 142.167,665.5 137.833,665.5 133.5,665.5C 133.5,649.167 133.5,632.833 133.5,616.5 Z"/></g>
<g><path style="opacity:0.916" fill="#000000" d="M 234.5,616.5 C 250.5,616.5 266.5,616.5 282.5,616.5C 282.5,619.833 282.5,623.167 282.5,626.5C 276.5,626.5 270.5,626.5 264.5,626.5C 264.5,639.5 264.5,652.5 264.5,665.5C 260.167,665.5 255.833,665.5 251.5,665.5C 251.5,652.5 251.5,639.5 251.5,626.5C 245.833,626.5 240.167,626.5 234.5,626.5C 234.5,623.167 234.5,619.833 234.5,616.5 Z"/></g>
<g><path style="opacity:0.915" fill="#000000" d="M 332.5,616.5 C 344.833,616.5 357.167,616.5 369.5,616.5C 369.5,619.833 369.5,623.167 369.5,626.5C 361.5,626.5 353.5,626.5 345.5,626.5C 345.5,629.5 345.5,632.5 345.5,635.5C 353.167,635.5 360.833,635.5 368.5,635.5C 368.5,638.833 368.5,642.167 368.5,645.5C 360.833,645.5 353.167,645.5 345.5,645.5C 345.5,649.167 345.5,652.833 345.5,656.5C 353.5,656.5 361.5,656.5 369.5,656.5C 369.5,659.5 369.5,662.5 369.5,665.5C 357.167,665.5 344.833,665.5 332.5,665.5C 332.5,649.167 332.5,632.833 332.5,616.5 Z"/></g>
<g><path style="opacity:0.909" fill="#000000" d="M 465.5,666.5 C 460.833,666.5 456.167,666.5 451.5,666.5C 448.91,661.239 446.41,655.906 444,650.5C 441.761,647.038 438.594,645.705 434.5,646.5C 434.5,653.167 434.5,659.833 434.5,666.5C 434.167,666.5 433.833,666.5 433.5,666.5C 429.702,665.517 425.702,665.183 421.5,665.5C 421.5,649.167 421.5,632.833 421.5,616.5C 430.839,616.334 440.173,616.5 449.5,617C 459.193,620.726 462.359,627.56 459,637.5C 457.167,639.333 455.333,641.167 453.5,643C 458.691,650.215 462.691,658.048 465.5,666.5 Z M 434.5,626.5 C 437.85,626.335 441.183,626.502 444.5,627C 447.418,630.472 447.085,633.472 443.5,636C 440.518,636.498 437.518,636.665 434.5,636.5C 434.5,633.167 434.5,629.833 434.5,626.5 Z"/></g>
<g><path style="opacity:0.896" fill="#000000" d="M 537.5,666.5 C 533.167,666.5 528.833,666.5 524.5,666.5C 524.5,653.167 524.5,639.833 524.5,626.5C 518.5,626.5 512.5,626.5 506.5,626.5C 506.5,623.167 506.5,619.833 506.5,616.5C 522.833,616.5 539.167,616.5 555.5,616.5C 555.5,619.833 555.5,623.167 555.5,626.5C 549.5,626.5 543.5,626.5 537.5,626.5C 537.5,639.833 537.5,653.167 537.5,666.5 Z"/></g>
<g><path style="opacity:0.897" fill="#000000" d="M 649.5,666.5 C 644.833,666.5 640.167,666.5 635.5,666.5C 634.173,663.529 632.84,660.529 631.5,657.5C 624.524,656.336 617.524,656.169 610.5,657C 609.023,660.12 607.689,663.286 606.5,666.5C 601.833,666.5 597.167,666.5 592.5,666.5C 598.987,650.188 605.487,633.855 612,617.5C 617.333,616.167 622.667,616.167 628,617.5C 635.27,633.816 642.436,650.149 649.5,666.5 Z M 619.5,631.5 C 620.497,631.47 621.164,631.97 621.5,633C 623.233,637.798 625.233,642.465 627.5,647C 623.088,647.394 618.755,646.894 614.5,645.5C 616.18,640.812 617.847,636.146 619.5,631.5 Z"/></g>
<g><path style="opacity:0.913" fill="#000000" d="M 711.5,666.5 C 707.167,666.5 702.833,666.5 698.5,666.5C 698.5,649.833 698.5,633.167 698.5,616.5C 702.833,616.5 707.167,616.5 711.5,616.5C 711.5,633.167 711.5,649.833 711.5,666.5 Z"/></g>
<g><path style="opacity:0.914" fill="#000000" d="M 815.5,666.5 C 811.833,666.5 808.167,666.5 804.5,666.5C 796.21,656.373 787.71,646.373 779,636.5C 778.5,646.494 778.334,656.494 778.5,666.5C 774.167,666.5 769.833,666.5 765.5,666.5C 765.5,649.833 765.5,633.167 765.5,616.5C 769.514,616.334 773.514,616.501 777.5,617C 785.549,626.261 793.716,635.427 802,644.5C 802.5,635.173 802.666,625.839 802.5,616.5C 806.833,616.5 811.167,616.5 815.5,616.5C 815.5,633.167 815.5,649.833 815.5,666.5 Z"/></g>
<g><path style="opacity:0.916" fill="#000000" d="M 922.5,666.5 C 918.167,666.5 913.833,666.5 909.5,666.5C 909.666,656.828 909.5,647.161 909,637.5C 904.965,642.532 900.632,647.198 896,651.5C 891.368,647.198 887.035,642.532 883,637.5C 882.5,647.161 882.334,656.828 882.5,666.5C 878.167,666.5 873.833,666.5 869.5,666.5C 869.5,649.833 869.5,633.167 869.5,616.5C 873.182,616.335 876.848,616.501 880.5,617C 885.667,622.833 890.833,628.667 896,634.5C 900.476,628.39 905.309,622.557 910.5,617C 914.486,616.501 918.486,616.334 922.5,616.5C 922.5,633.167 922.5,649.833 922.5,666.5 Z"/></g>
<g><path style="opacity:0.904" fill="#000000" d="M 1013.5,666.5 C 1001.17,666.5 988.833,666.5 976.5,666.5C 976.5,649.833 976.5,633.167 976.5,616.5C 988.5,616.5 1000.5,616.5 1012.5,616.5C 1012.5,619.833 1012.5,623.167 1012.5,626.5C 1004.83,626.5 997.167,626.5 989.5,626.5C 989.5,629.5 989.5,632.5 989.5,635.5C 996.833,635.5 1004.17,635.5 1011.5,635.5C 1011.5,638.833 1011.5,642.167 1011.5,645.5C 1004.17,645.5 996.833,645.5 989.5,645.5C 989.5,649.167 989.5,652.833 989.5,656.5C 997.5,656.5 1005.5,656.5 1013.5,656.5C 1013.5,659.833 1013.5,663.167 1013.5,666.5 Z"/></g>
<g><path style="opacity:0.914" fill="#000000" d="M 1115.5,666.5 C 1111.5,666.5 1107.5,666.5 1103.5,666.5C 1095.54,656.706 1087.38,647.039 1079,637.5C 1078.5,647.161 1078.33,656.828 1078.5,666.5C 1074.17,666.5 1069.83,666.5 1065.5,666.5C 1065.5,649.833 1065.5,633.167 1065.5,616.5C 1069.51,616.334 1073.51,616.501 1077.5,617C 1085.67,626.5 1093.83,636 1102,645.5C 1102.5,635.839 1102.67,626.172 1102.5,616.5C 1106.83,616.5 1111.17,616.5 1115.5,616.5C 1115.5,633.167 1115.5,649.833 1115.5,666.5 Z"/></g>
<g><path style="opacity:0.897" fill="#000000" d="M 1196.5,666.5 C 1192.17,666.5 1187.83,666.5 1183.5,666.5C 1183.5,653.167 1183.5,639.833 1183.5,626.5C 1177.5,626.5 1171.5,626.5 1165.5,626.5C 1165.5,623.167 1165.5,619.833 1165.5,616.5C 1181.83,616.5 1198.17,616.5 1214.5,616.5C 1214.5,619.833 1214.5,623.167 1214.5,626.5C 1208.5,626.5 1202.5,626.5 1196.5,626.5C 1196.5,639.833 1196.5,653.167 1196.5,666.5 Z"/></g>
</svg>
