<?xml version="1.0" encoding="UTF-8"?>
<!DOCTYPE svg PUBLIC "-//W3C//DTD SVG 1.1//EN" "http://www.w3.org/Graphics/SVG/1.1/DTD/svg11.dtd">
<svg xmlns="http://www.w3.org/2000/svg" version="1.1" width="1024px" height="1024px" style="shape-rendering:geometricPrecision; text-rendering:geometricPrecision; image-rendering:optimizeQuality; fill-rule:evenodd; clip-rule:evenodd" xmlns:xlink="http://www.w3.org/1999/xlink">
<g><path style="opacity:1" fill="#323232" d="M 870.5,203.5 C 920.34,260.838 954.174,326.838 972,401.5C 977.013,423.243 980.18,445.243 981.5,467.5C 981.662,469.527 981.495,471.527 981,473.5C 910.659,401.993 839.826,330.993 768.5,260.5C 758.692,240.216 742.692,227.382 720.5,222C 581.5,221.333 442.5,221.333 303.5,222C 274.643,228.191 257.143,245.691 251,274.5C 250.168,423.57 250.335,572.57 251.5,721.5C 338.5,808.833 425.5,896.167 512.5,983.5C 502.5,983.5 492.5,983.5 482.5,983.5C 482.167,983.5 481.833,983.5 481.5,983.5C 392.139,978.106 311.139,949.606 238.5,898C 229.272,890.594 219.939,883.427 210.5,876.5C 89.5031,773.398 32.1698,642.232 38.5,483C 48.5377,347.253 105.204,235.586 208.5,148C 304.679,67.8329 415.679,31.8329 541.5,40C 656.766,47.1539 755.766,90.4872 838.5,170C 849.289,181.103 859.956,192.27 870.5,203.5 Z"/></g>
<g><path style="opacity:0.098" fill="#010201" d="M 870.5,203.5 C 953.496,288.828 997.829,390.328 1003.5,508C 1008.73,677.587 942.061,814.253 803.5,918C 731.89,968.509 653.724,996.342 569,1001.5C 433.739,1012.62 314.572,971.791 211.5,879C 210.748,878.329 210.414,877.496 210.5,876.5C 219.939,883.427 229.272,890.594 238.5,898C 311.139,949.606 392.139,978.106 481.5,983.5C 481.833,984.833 482.167,984.833 482.5,983.5C 492.5,983.5 502.5,983.5 512.5,983.5C 532.908,983.894 553.241,982.894 573.5,980.5C 573.833,981.833 574.167,981.833 574.5,980.5C 605.79,976.308 636.456,969.308 666.5,959.5C 666.833,960.833 667.167,960.833 667.5,959.5C 783.764,915.064 871.931,838.397 932,729.5C 973.763,646.854 990.263,559.521 981.5,467.5C 980.18,445.243 977.013,423.243 972,401.5C 954.174,326.838 920.34,260.838 870.5,203.5 Z"/></g>
<g><path style="opacity:1" fill="#e39b30" d="M 768.5,260.5 C 769.819,265.445 770.986,270.445 772,275.5C 772.832,424.07 772.666,572.57 771.5,721C 684.687,754.578 598.02,788.411 511.5,822.5C 424.797,788.763 338.13,755.096 251.5,721.5C 250.335,572.57 250.168,423.57 251,274.5C 257.143,245.691 274.643,228.191 303.5,222C 442.5,221.333 581.5,221.333 720.5,222C 742.692,227.382 758.692,240.216 768.5,260.5 Z"/></g>
<g><path style="opacity:1" fill="#ebb666" d="M 317.5,260.5 C 341.994,259.502 366.661,259.169 391.5,259.5C 391.5,260.833 391.5,262.167 391.5,263.5C 390.596,262.791 390.263,261.791 390.5,260.5C 366.167,260.5 341.833,260.5 317.5,260.5 Z"/></g>
<g><path style="opacity:1" fill="#fefdfc" d="M 317.5,260.5 C 341.833,260.5 366.167,260.5 390.5,260.5C 390.263,261.791 390.596,262.791 391.5,263.5C 391.5,276.5 391.5,289.5 391.5,302.5C 367.167,302.5 342.833,302.5 318.5,302.5C 318.5,339.833 318.5,377.167 318.5,414.5C 336.833,414.5 355.167,414.5 373.5,414.5C 373.824,428.745 373.49,442.912 372.5,457C 354.503,457.5 336.503,457.667 318.5,457.5C 317.502,494.663 317.168,531.996 317.5,569.5C 341.833,569.5 366.167,569.5 390.5,569.5C 391.496,583.323 391.829,597.323 391.5,611.5C 362.125,611.959 332.791,611.459 303.5,610C 292.955,607.105 285.122,600.939 280,591.5C 278.47,587.91 277.136,584.243 276,580.5C 274.35,485.193 274.017,389.859 275,294.5C 276.836,278.659 285.336,268.159 300.5,263C 306.076,261.515 311.743,260.682 317.5,260.5 Z"/></g>
<g><path style="opacity:1" fill="#fefefe" d="M 418.5,261.5 C 448.196,261.066 477.863,261.566 507.5,263C 520.949,267.449 529.115,276.616 532,290.5C 532.667,335.5 532.667,380.5 532,425.5C 528.863,441.97 519.03,451.804 502.5,455C 488.171,455.5 473.837,455.667 459.5,455.5C 459.667,506.834 459.5,558.168 459,609.5C 445.579,610.49 432.079,610.823 418.5,610.5C 418.5,494.167 418.5,377.833 418.5,261.5 Z"/></g>
<g><path style="opacity:1" fill="#fefefe" d="M 561.5,261.5 C 575.5,261.5 589.5,261.5 603.5,261.5C 603.5,377.833 603.5,494.167 603.5,610.5C 589.5,610.5 575.5,610.5 561.5,610.5C 561.5,494.167 561.5,377.833 561.5,261.5 Z"/></g>
<g><path style="opacity:1" fill="#fefdfc" d="M 706.5,517.5 C 720.08,516.88 733.413,517.547 746.5,519.5C 746.667,538.503 746.5,557.503 746,576.5C 743.895,597.167 732.395,608.333 711.5,610C 696.5,610.667 681.5,610.667 666.5,610C 645.457,606.955 633.957,594.789 632,573.5C 631.333,480.167 631.333,386.833 632,293.5C 634.14,279.699 641.64,270.199 654.5,265C 658.465,263.874 662.465,262.874 666.5,262C 684.872,261.082 703.205,261.416 721.5,263C 735.931,267.981 744.098,278.147 746,293.5C 746.5,314.164 746.667,334.831 746.5,355.5C 732.833,355.5 719.167,355.5 705.5,355.5C 705.5,337.5 705.5,319.5 705.5,301.5C 694.5,301.5 683.5,301.5 672.5,301.5C 672.5,391.167 672.5,480.833 672.5,570.5C 683.5,570.5 694.5,570.5 705.5,570.5C 705.17,552.659 705.503,534.992 706.5,517.5 Z"/></g>
<g><path style="opacity:0.999" fill="#282828" d="M 768.5,260.5 C 839.826,330.993 910.659,401.993 981,473.5C 981.495,471.527 981.662,469.527 981.5,467.5C 990.263,559.521 973.763,646.854 932,729.5C 871.931,838.397 783.764,915.064 667.5,959.5C 667.167,959.5 666.833,959.5 666.5,959.5C 636.456,969.308 605.79,976.308 574.5,980.5C 574.167,980.5 573.833,980.5 573.5,980.5C 553.241,982.894 532.908,983.894 512.5,983.5C 425.5,896.167 338.5,808.833 251.5,721.5C 338.13,755.096 424.797,788.763 511.5,822.5C 598.02,788.411 684.687,754.578 771.5,721C 772.666,572.57 772.832,424.07 772,275.5C 770.986,270.445 769.819,265.445 768.5,260.5 Z"/></g>
<g><path style="opacity:1" fill="#f3d5a7" d="M 492.5,301.5 C 481.5,301.5 470.5,301.5 459.5,301.5C 459.5,339.5 459.5,377.5 459.5,415.5C 470.5,415.5 481.5,415.5 492.5,415.5C 481.346,416.495 470.012,416.828 458.5,416.5C 458.5,377.833 458.5,339.167 458.5,300.5C 470.012,300.172 481.346,300.505 492.5,301.5 Z"/></g>
<g><path style="opacity:1" fill="#e49b31" d="M 492.5,301.5 C 492.5,339.5 492.5,377.5 492.5,415.5C 481.5,415.5 470.5,415.5 459.5,415.5C 459.5,377.5 459.5,339.5 459.5,301.5C 470.5,301.5 481.5,301.5 492.5,301.5 Z"/></g>
<g><path style="opacity:1" fill="#f3d5a7" d="M 318.5,457.5 C 318.5,494.5 318.5,531.5 318.5,568.5C 342.672,568.169 366.672,568.502 390.5,569.5C 366.167,569.5 341.833,569.5 317.5,569.5C 317.168,531.996 317.502,494.663 318.5,457.5 Z"/></g>
<g><path style="opacity:1" fill="#ebb667" d="M 706.5,517.5 C 719.656,516.504 732.99,516.171 746.5,516.5C 746.5,517.5 746.5,518.5 746.5,519.5C 733.413,517.547 720.08,516.88 706.5,517.5 Z"/></g>
<g><path style="opacity:1" fill="#fefcf9" d="M 349.5,655.5 C 334.009,654.504 318.342,654.17 302.5,654.5C 302.171,668.01 302.504,681.344 303.5,694.5C 318.833,694.5 334.167,694.5 349.5,694.5C 349.5,689.833 349.5,685.167 349.5,680.5C 341.167,680.5 332.833,680.5 324.5,680.5C 324.211,676.894 324.544,673.394 325.5,670C 338.167,669.333 350.833,669.333 363.5,670C 364.648,678.088 364.815,686.254 364,694.5C 363.666,698.869 361.833,702.369 358.5,705C 338.218,706.619 317.885,706.952 297.5,706C 290.742,705.235 287.576,701.402 288,694.5C 287.333,681.5 287.333,668.5 288,655.5C 288.076,649.477 290.909,645.644 296.5,644C 316.167,643.333 335.833,643.333 355.5,644C 361.427,646.156 364.427,650.489 364.5,657C 364.245,658.326 363.578,659.326 362.5,660C 358.168,660.583 353.835,661.083 349.5,661.5C 349.5,659.5 349.5,657.5 349.5,655.5 Z"/></g>
<g><path style="opacity:1" fill="#fefdfc" d="M 412.5,643.5 C 417.762,643.195 422.928,643.529 428,644.5C 439.634,664.963 451.467,685.296 463.5,705.5C 457.872,706.495 452.206,706.829 446.5,706.5C 444.438,701.917 442.105,697.417 439.5,693C 425.821,692.167 412.154,692.334 398.5,693.5C 396.448,697.822 394.114,701.989 391.5,706C 386.5,706.667 381.5,706.667 376.5,706C 388.903,685.357 400.903,664.523 412.5,643.5 Z"/></g>
<g><path style="opacity:1" fill="#fefcf9" d="M 559.5,643.5 C 560.209,644.404 561.209,644.737 562.5,644.5C 562.5,665.167 562.5,685.833 562.5,706.5C 558.167,706.5 553.833,706.5 549.5,706.5C 549.667,691.496 549.5,676.496 549,661.5C 548.487,662.527 547.987,663.527 547.5,664.5C 540.92,673.981 534.087,683.315 527,692.5C 524.873,695.132 522.54,697.466 520,699.5C 509.978,688.132 500.645,676.132 492,663.5C 491.5,677.829 491.333,692.163 491.5,706.5C 487.167,706.5 482.833,706.5 478.5,706.5C 478.173,685.591 478.507,664.758 479.5,644C 483.5,643.333 487.5,643.333 491.5,644C 501.333,656.5 511.167,669 521,681.5C 530.954,669.091 540.787,656.591 550.5,644C 553.482,643.502 556.482,643.335 559.5,643.5 Z"/></g>
<g><path style="opacity:1" fill="#ebb667" d="M 559.5,643.5 C 560.833,643.5 562.167,643.5 563.5,643.5C 563.831,664.673 563.497,685.673 562.5,706.5C 562.5,685.833 562.5,665.167 562.5,644.5C 561.209,644.737 560.209,644.404 559.5,643.5 Z"/></g>
<g><path style="opacity:1" fill="#fefcf9" d="M 596.5,693.5 C 612.992,694.497 629.658,694.83 646.5,694.5C 646.263,695.791 646.596,696.791 647.5,697.5C 647.5,700.5 647.5,703.5 647.5,706.5C 625.5,706.5 603.5,706.5 581.5,706.5C 581.5,685.5 581.5,664.5 581.5,643.5C 603.5,643.5 625.5,643.5 647.5,643.5C 647.5,647.167 647.5,650.833 647.5,654.5C 630.5,654.5 613.5,654.5 596.5,654.5C 596.5,659.167 596.5,663.833 596.5,668.5C 606.5,668.5 616.5,668.5 626.5,668.5C 626.5,671.833 626.5,675.167 626.5,678.5C 616.5,678.5 606.5,678.5 596.5,678.5C 596.5,683.5 596.5,688.5 596.5,693.5 Z"/></g>
<g><path style="opacity:1" fill="#fefcfa" d="M 679.5,654.5 C 678.514,658.97 678.181,663.637 678.5,668.5C 691.833,668.5 705.167,668.5 718.5,668.5C 725.205,666.984 730.371,668.984 734,674.5C 736.355,684.009 735.855,693.343 732.5,702.5C 731.5,703.333 730.5,704.167 729.5,705C 710.232,706.629 690.898,706.962 671.5,706C 668.804,705.31 666.637,703.81 665,701.5C 663.734,697.605 663.234,693.605 663.5,689.5C 667.807,688.673 672.14,688.007 676.5,687.5C 676.5,689.833 676.5,692.167 676.5,694.5C 691.5,694.5 706.5,694.5 721.5,694.5C 721.5,689.833 721.5,685.167 721.5,680.5C 706.163,680.667 690.83,680.5 675.5,680C 669.643,678.482 666.476,674.648 666,668.5C 665.012,661.332 665.678,654.332 668,647.5C 669.8,645.683 671.966,644.516 674.5,644C 691.833,643.333 709.167,643.333 726.5,644C 732.591,646.802 735.258,651.636 734.5,658.5C 729.906,659.815 725.239,660.815 720.5,661.5C 720.5,659.167 720.5,656.833 720.5,654.5C 706.833,654.5 693.167,654.5 679.5,654.5 Z"/></g>
<g><path style="opacity:1" fill="#f3d5a7" d="M 679.5,654.5 C 679.5,658.833 679.5,663.167 679.5,667.5C 692.677,667.171 705.677,667.505 718.5,668.5C 705.167,668.5 691.833,668.5 678.5,668.5C 678.181,663.637 678.514,658.97 679.5,654.5 Z"/></g>
<g><path style="opacity:1" fill="#eec07c" d="M 349.5,655.5 C 334.167,655.5 318.833,655.5 303.5,655.5C 303.5,668.5 303.5,681.5 303.5,694.5C 302.504,681.344 302.171,668.01 302.5,654.5C 318.342,654.17 334.009,654.504 349.5,655.5 Z"/></g>
<g><path style="opacity:1" fill="#e49d34" d="M 418.5,656.5 C 420.074,656.937 421.241,657.937 422,659.5C 424.988,666.81 428.488,673.81 432.5,680.5C 423.518,681.665 414.518,681.832 405.5,681C 409.745,672.745 414.079,664.579 418.5,656.5 Z"/></g>
<g><path style="opacity:1" fill="#f3d2a2" d="M 549.5,706.5 C 548.833,692.5 548.167,678.5 547.5,664.5C 547.987,663.527 548.487,662.527 549,661.5C 549.5,676.496 549.667,691.496 549.5,706.5 Z"/></g>
<g><path style="opacity:1" fill="#ebb667" d="M 596.5,693.5 C 613.5,693.5 630.5,693.5 647.5,693.5C 647.5,694.833 647.5,696.167 647.5,697.5C 646.596,696.791 646.263,695.791 646.5,694.5C 629.658,694.83 612.992,694.497 596.5,693.5 Z"/></g>
<g><path style="opacity:1" fill="#fefefe" d="M 403.5,745.5 C 474.999,744.334 546.665,744.168 618.5,745C 582.692,758.647 547.192,772.814 512,787.5C 475.983,773.073 439.817,759.073 403.5,745.5 Z"/></g>
</svg>
