<?xml version="1.0" encoding="UTF-8"?>
<!DOCTYPE svg PUBLIC "-//W3C//DTD SVG 1.1//EN" "http://www.w3.org/Graphics/SVG/1.1/DTD/svg11.dtd">
<svg xmlns="http://www.w3.org/2000/svg" version="1.1" width="1600px" height="1600px" style="shape-rendering:geometricPrecision; text-rendering:geometricPrecision; image-rendering:optimizeQuality; fill-rule:evenodd; clip-rule:evenodd" xmlns:xlink="http://www.w3.org/1999/xlink">
<g><path style="opacity:0.992" fill="#000000" d="M 302.5,94.5 C 629.5,94.3333 956.5,94.5 1283.5,95C 1347.6,101.617 1397.1,131.784 1432,185.5C 1449.62,214.704 1458.96,246.371 1460,280.5C 1460.67,623.167 1460.67,965.833 1460,1308.5C 1237.86,1375.77 1015.53,1442.43 793,1508.5C 570.802,1442.24 348.635,1375.91 126.5,1309.5C 126.333,962.167 126.5,614.833 127,267.5C 136.75,193.11 175.583,140.277 243.5,109C 262.643,101.464 282.31,96.6303 302.5,94.5 Z M 342.5,253.5 C 386.833,253.5 431.167,253.5 475.5,253.5C 475.5,285.167 475.5,316.833 475.5,348.5C 433.167,348.5 390.833,348.5 348.5,348.5C 348.5,422.833 348.5,497.167 348.5,571.5C 380.167,571.5 411.833,571.5 443.5,571.5C 443.5,602.833 443.5,634.167 443.5,665.5C 411.833,665.5 380.167,665.5 348.5,665.5C 348.5,739.833 348.5,814.167 348.5,888.5C 390.833,888.5 433.167,888.5 475.5,888.5C 475.5,920.167 475.5,951.833 475.5,983.5C 430.832,983.667 386.165,983.5 341.5,983C 304.615,979.158 278.115,960.658 262,927.5C 258.654,919.797 256.321,911.797 255,903.5C 253.844,808.52 253.344,713.52 253.5,618.5C 253.344,523.48 253.844,428.48 255,333.5C 261.561,298.271 281.394,273.771 314.5,260C 323.746,256.855 333.079,254.688 342.5,253.5 Z M 539.5,253.5 C 604.834,253.333 670.168,253.5 735.5,254C 785.862,260.363 815.362,288.53 824,338.5C 824.667,419.5 824.667,500.5 824,581.5C 817.835,622.001 795.335,648.834 756.5,662C 751.9,663.317 747.234,664.317 742.5,665C 706.502,665.5 670.502,665.667 634.5,665.5C 634.5,771.5 634.5,877.5 634.5,983.5C 602.833,983.5 571.167,983.5 539.5,983.5C 539.5,740.167 539.5,496.833 539.5,253.5 Z M 888.5,253.5 C 920.167,253.5 951.833,253.5 983.5,253.5C 983.5,496.833 983.5,740.167 983.5,983.5C 951.833,983.5 920.167,983.5 888.5,983.5C 888.5,740.167 888.5,496.833 888.5,253.5 Z M 1136.5,253.5 C 1172.17,253.333 1207.83,253.5 1243.5,254C 1293.84,260.335 1323.34,288.502 1332,338.5C 1332.5,384.165 1332.67,429.832 1332.5,475.5C 1300.83,475.5 1269.17,475.5 1237.5,475.5C 1237.5,433.167 1237.5,390.833 1237.5,348.5C 1205.83,348.5 1174.17,348.5 1142.5,348.5C 1142.5,528.5 1142.5,708.5 1142.5,888.5C 1174.17,888.5 1205.83,888.5 1237.5,888.5C 1237.5,846.167 1237.5,803.833 1237.5,761.5C 1269.17,761.5 1300.83,761.5 1332.5,761.5C 1332.67,807.168 1332.5,852.835 1332,898.5C 1323.61,947.554 1294.78,975.721 1245.5,983C 1208.5,983.667 1171.5,983.667 1134.5,983C 1085.22,975.721 1056.39,947.554 1048,898.5C 1047.33,711.833 1047.33,525.167 1048,338.5C 1056.81,288.519 1086.31,260.186 1136.5,253.5 Z M 278.5,1079.5 C 325.501,1079.33 372.501,1079.5 419.5,1080C 430.501,1083.07 438.001,1089.9 442,1100.5C 443.429,1114.44 443.929,1128.44 443.5,1142.5C 433.167,1142.5 422.833,1142.5 412.5,1142.5C 412.666,1133.49 412.5,1124.49 412,1115.5C 411.167,1113.33 409.667,1111.83 407.5,1111C 368.167,1110.33 328.833,1110.33 289.5,1111C 287.19,1112.64 285.69,1114.8 285,1117.5C 284.333,1155.17 284.333,1192.83 285,1230.5C 285.406,1233.49 286.906,1235.66 289.5,1237C 328.833,1237.67 368.167,1237.67 407.5,1237C 409.667,1236.17 411.167,1234.67 412,1232.5C 412.5,1223.51 412.666,1214.51 412.5,1205.5C 401.833,1205.5 391.167,1205.5 380.5,1205.5C 380.5,1195.17 380.5,1184.83 380.5,1174.5C 401.5,1174.5 422.5,1174.5 443.5,1174.5C 443.667,1197.5 443.5,1220.5 443,1243.5C 439.233,1259.6 429.067,1268.1 412.5,1269C 369.833,1269.67 327.167,1269.67 284.5,1269C 267.698,1267.2 257.531,1258.03 254,1241.5C 253.333,1196.5 253.333,1151.5 254,1106.5C 256.8,1092.54 264.967,1083.54 278.5,1079.5 Z M 570.5,1079.5 C 581.415,1079.18 592.248,1079.51 603,1080.5C 634.372,1143.41 665.872,1206.24 697.5,1269C 687.167,1269.67 676.833,1269.67 666.5,1269C 661.167,1258.67 655.833,1248.33 650.5,1238C 607.829,1237.17 565.163,1237.33 522.5,1238.5C 517.5,1248.5 512.5,1258.5 507.5,1268.5C 497.167,1269.83 486.833,1269.83 476.5,1268.5C 508.116,1205.6 539.449,1142.6 570.5,1079.5 Z M 729.5,1079.5 C 740.415,1079.18 751.248,1079.51 762,1080.5C 782.744,1122.32 803.744,1163.99 825,1205.5C 846.256,1163.99 867.256,1122.32 888,1080.5C 898.418,1079.51 908.918,1079.18 919.5,1079.5C 919.5,1142.83 919.5,1206.17 919.5,1269.5C 909.167,1269.5 898.833,1269.5 888.5,1269.5C 888.667,1227.17 888.5,1184.83 888,1142.5C 872.333,1173.83 856.667,1205.17 841,1236.5C 830.333,1237.83 819.667,1237.83 809,1236.5C 793.333,1205.17 777.667,1173.83 762,1142.5C 761.667,1184.5 761.333,1226.5 761,1268.5C 750.667,1269.83 740.333,1269.83 730,1268.5C 729.5,1205.5 729.333,1142.5 729.5,1079.5 Z M 952.5,1079.5 C 1005.17,1079.5 1057.83,1079.5 1110.5,1079.5C 1110.5,1089.83 1110.5,1100.17 1110.5,1110.5C 1068.17,1110.5 1025.83,1110.5 983.5,1110.5C 983.5,1126.5 983.5,1142.5 983.5,1158.5C 1004.5,1158.5 1025.5,1158.5 1046.5,1158.5C 1046.5,1168.83 1046.5,1179.17 1046.5,1189.5C 1025.5,1189.5 1004.5,1189.5 983.5,1189.5C 983.5,1205.5 983.5,1221.5 983.5,1237.5C 1025.83,1237.5 1068.17,1237.5 1110.5,1237.5C 1110.5,1248.17 1110.5,1258.83 1110.5,1269.5C 1057.83,1269.5 1005.17,1269.5 952.5,1269.5C 952.5,1206.17 952.5,1142.83 952.5,1079.5 Z M 1166.5,1079.5 C 1213.83,1079.33 1261.17,1079.5 1308.5,1080C 1321.19,1084.03 1329.03,1092.53 1332,1105.5C 1332.5,1112.49 1332.67,1119.49 1332.5,1126.5C 1322.17,1126.5 1311.83,1126.5 1301.5,1126.5C 1301.67,1123.15 1301.5,1119.82 1301,1116.5C 1300.31,1113.94 1298.81,1112.11 1296.5,1111C 1257.17,1110.33 1217.83,1110.33 1178.5,1111C 1176.27,1112.23 1174.77,1114.06 1174,1116.5C 1173.33,1128.5 1173.33,1140.5 1174,1152.5C 1175.17,1155 1177,1156.83 1179.5,1158C 1221.83,1158.33 1264.17,1158.67 1306.5,1159C 1320.33,1162.17 1328.83,1170.67 1332,1184.5C 1332.67,1204.17 1332.67,1223.83 1332,1243.5C 1327.9,1259.15 1317.73,1267.65 1301.5,1269C 1256.47,1269.96 1211.47,1269.63 1166.5,1268C 1153.82,1263.98 1145.99,1255.48 1143,1242.5C 1142.5,1235.84 1142.33,1229.17 1142.5,1222.5C 1152.83,1222.5 1163.17,1222.5 1173.5,1222.5C 1173.34,1225.52 1173.5,1228.52 1174,1231.5C 1174.69,1234.06 1176.19,1235.89 1178.5,1237C 1217.83,1237.67 1257.17,1237.67 1296.5,1237C 1298.67,1236.17 1300.17,1234.67 1301,1232.5C 1301.67,1220.17 1301.67,1207.83 1301,1195.5C 1299.83,1193 1298,1191.17 1295.5,1190C 1252.83,1189.67 1210.17,1189.33 1167.5,1189C 1153.77,1185.27 1145.6,1176.44 1143,1162.5C 1142.33,1143.83 1142.33,1125.17 1143,1106.5C 1145.7,1092.97 1153.53,1083.97 1166.5,1079.5 Z"/></g>
<g><path style="opacity:0.993" fill="#000000" d="M 634.5,348.5 C 666.167,348.5 697.833,348.5 729.5,348.5C 729.5,422.833 729.5,497.167 729.5,571.5C 697.833,571.5 666.167,571.5 634.5,571.5C 634.5,497.167 634.5,422.833 634.5,348.5 Z"/></g>
<g><path style="opacity:0.969" fill="#000000" d="M 586.5,1110.5 C 602.726,1141.95 618.726,1173.62 634.5,1205.5C 602.84,1206.5 571.174,1206.83 539.5,1206.5C 554.619,1174.26 570.286,1142.26 586.5,1110.5 Z"/></g>
</svg>
