<?xml version="1.0" encoding="UTF-8"?>
<!DOCTYPE svg PUBLIC "-//W3C//DTD SVG 1.1//EN" "http://www.w3.org/Graphics/SVG/1.1/DTD/svg11.dtd">
<svg xmlns="http://www.w3.org/2000/svg" version="1.1" width="2000px" height="1125px" style="shape-rendering:geometricPrecision; text-rendering:geometricPrecision; image-rendering:optimizeQuality; fill-rule:evenodd; clip-rule:evenodd" xmlns:xlink="http://www.w3.org/1999/xlink">
<g><path style="opacity:0.99" fill="#000000" d="M 1271.5,18.5 C 1345.5,18.5 1419.5,18.5 1493.5,18.5C 1330.43,250.939 1166.6,482.939 1002,714.5C 997.768,709.714 993.768,704.714 990,699.5C 958.075,653.078 925.575,607.078 892.5,561.5C 891.572,560.232 891.405,558.899 892,557.5C 1019.01,378.126 1145.51,198.459 1271.5,18.5 Z"/></g>
<g><path style="opacity:0.987" fill="#000000" d="M 1491.5,97.5 C 1493.5,433.165 1494.17,769.165 1493.5,1105.5C 1432.45,1106.16 1371.62,1105.49 1311,1103.5C 1310.33,853.5 1310.33,603.5 1311,353.5C 1371,268.01 1431.16,182.677 1491.5,97.5 Z"/></g>
<g><path style="opacity:0.99" fill="#000000" d="M 505.5,403.5 C 579.332,402.334 653.332,402.168 727.5,403C 892.694,636.695 1057.69,870.528 1222.5,1104.5C 1148.84,1105.67 1075.17,1105.83 1001.5,1105C 844.298,882.763 687.464,660.263 531,437.5C 522.723,425.92 514.223,414.586 505.5,403.5 Z"/></g>
<g><path style="opacity:0.985" fill="#000000" d="M 725.5,792.5 C 726.675,792.281 727.675,792.614 728.5,793.5C 764.587,845.342 800.921,897.009 837.5,948.5C 800.444,1000.22 763.778,1052.22 727.5,1104.5C 653.503,1105.5 579.503,1105.83 505.5,1105.5C 578.757,1001.22 652.09,896.888 725.5,792.5 Z"/></g>
</svg>
