<?xml version="1.0" encoding="UTF-8"?>
<!DOCTYPE svg PUBLIC "-//W3C//DTD SVG 1.1//EN" "http://www.w3.org/Graphics/SVG/1.1/DTD/svg11.dtd">
<svg xmlns="http://www.w3.org/2000/svg" version="1.1" width="3840px" height="2160px" style="shape-rendering:geometricPrecision; text-rendering:geometricPrecision; image-rendering:optimizeQuality; fill-rule:evenodd; clip-rule:evenodd" xmlns:xlink="http://www.w3.org/1999/xlink">
<g><path style="opacity:0.994" fill="#000000" d="M 280.5,563.5 C 281.895,564.815 282.895,564.481 283.5,562.5C 283.833,562.5 284.167,562.5 284.5,562.5C 284.369,563.239 284.536,563.906 285,564.5C 487.333,563.167 689.667,563.167 892,564.5C 892.464,563.906 892.631,563.239 892.5,562.5C 894.544,562.8 896.544,563.133 898.5,563.5C 898.062,563.435 897.728,563.601 897.5,564C 899.278,566.025 900.611,565.859 901.5,563.5C 988.096,575.615 1048.93,621.615 1084,701.5C 1090.96,720.962 1095.63,740.962 1098,761.5C 1098.67,969.5 1098.67,1177.5 1098,1385.5C 1087.71,1465.97 1046.87,1525.14 975.5,1563C 948.744,1575.59 921.744,1582.76 894.5,1584.5C 689.833,1583.17 485.167,1583.17 280.5,1584.5C 198.072,1576.19 136.905,1534.52 97,1459.5C 87.1921,1437.15 80.6921,1413.82 77.5,1389.5C 76.1667,1178.83 76.1667,968.167 77.5,757.5C 90.645,670.431 137.978,609.931 219.5,576C 239.404,568.653 259.738,564.487 280.5,563.5 Z M 761.5,734.5 C 807.172,734.167 852.838,734.5 898.5,735.5C 795.5,882.167 692.5,1028.83 589.5,1175.5C 566.805,1143.64 544.305,1111.64 522,1079.5C 521.333,1078.5 521.333,1077.5 522,1076.5C 602.119,962.573 681.953,848.573 761.5,734.5 Z M 899.5,786.5 C 900.5,999.333 900.833,1212.33 900.5,1425.5C 862.833,1425.5 825.167,1425.5 787.5,1425.5C 787.333,1265.83 787.5,1106.17 788,946.5C 825.423,892.707 862.589,839.374 899.5,786.5 Z M 278.5,979.5 C 324.209,979.172 369.876,979.505 415.5,980.5C 519.725,1129.11 623.725,1277.27 727.5,1425C 681.5,1425.67 635.5,1425.67 589.5,1425C 485.597,1276.61 381.93,1128.11 278.5,979.5 Z M 414.5,1229.5 C 415.376,1229.37 416.043,1229.7 416.5,1230.5C 438.798,1262.93 461.464,1295.1 484.5,1327C 461.254,1359.49 438.254,1392.16 415.5,1425C 369.5,1425.67 323.5,1425.67 277.5,1425C 323.453,1359.91 369.119,1294.74 414.5,1229.5 Z"/></g>
<g><path style="opacity:0.267" fill="#b5b6b5" d="M 284.5,562.5 C 487.167,562.5 689.833,562.5 892.5,562.5C 892.631,563.239 892.464,563.906 892,564.5C 689.667,563.167 487.333,563.167 285,564.5C 284.536,563.906 284.369,563.239 284.5,562.5 Z"/></g>
<g><path style="opacity:0.094" fill="#696969" d="M 280.5,563.5 C 281.209,562.596 282.209,562.263 283.5,562.5C 282.895,564.481 281.895,564.815 280.5,563.5 Z"/></g>
<g><path style="opacity:0.565" fill="#5c5c5c" d="M 898.5,563.5 C 899.5,563.5 900.5,563.5 901.5,563.5C 900.611,565.859 899.278,566.025 897.5,564C 897.728,563.601 898.062,563.435 898.5,563.5 Z"/></g>
<g><path style="opacity:0.984" fill="#000000" d="M 1786.5,675.5 C 1800.67,675.511 1814.83,675.511 1829,675.5C 1879.24,677.32 1928.07,688.153 1975.5,708C 2064.37,749.213 2120.87,817.379 2145,912.5C 2147.53,921.682 2149.36,931.015 2150.5,940.5C 2104.16,940.833 2057.83,940.5 2011.5,939.5C 1995.41,870.885 1954.08,824.718 1887.5,801C 1869.38,795.343 1850.54,791.51 1831,789.5C 1715.81,783.395 1636.81,835.062 1594,944.5C 1569.13,1020.45 1565.79,1097.45 1584,1175.5C 1596.22,1225.45 1620.06,1268.95 1655.5,1306C 1696.88,1343.58 1745.71,1362.75 1802,1363.5C 1844,1365.06 1884.83,1356.56 1924.5,1338C 1995.48,1298.2 2033.65,1237.7 2039,1156.5C 1960.67,1156.83 1882.33,1157.17 1804,1157.5C 1802.34,1120.31 1802.01,1082.98 1803,1045.5C 1923.1,1044.5 2043.26,1044.17 2163.5,1044.5C 2162.81,1075.33 2162.31,1106.67 2162,1138.5C 2160.49,1188.15 2151.49,1236.15 2135,1282.5C 2100.67,1370.19 2038.67,1426.86 1949,1452.5C 1936.08,1456.48 1923.08,1460.15 1910,1463.5C 1909,1463.17 1908,1462.83 1907,1462.5C 1901.97,1463.71 1896.97,1465.04 1892,1466.5C 1888.33,1466.5 1884.67,1466.5 1881,1466.5C 1872.29,1467.89 1863.29,1469.22 1854,1470.5C 1823.42,1471.78 1792.75,1471.78 1762,1470.5C 1613.71,1453.3 1513.54,1374.13 1461.5,1233C 1435.46,1149.89 1430.29,1065.39 1446,979.5C 1459.94,906.621 1491.27,842.288 1540,786.5C 1598.8,725.043 1670.47,689.377 1755,679.5C 1765.57,677.951 1776.07,676.618 1786.5,675.5 Z"/></g>
<g><path style="opacity:0.982" fill="#000000" d="M 3240.5,693.5 C 3280.5,693.333 3320.5,693.5 3360.5,694C 3361.17,695 3361.83,696 3362.5,697C 3361.33,862.764 3361.17,1028.6 3362,1194.5C 3445.8,1098.03 3529.64,1001.53 3613.5,905C 3662.75,903.509 3712.08,903.009 3761.5,903.5C 3761.05,906.14 3759.88,908.473 3758,910.5C 3682.95,992.043 3608.12,1073.71 3533.5,1155.5C 3610.17,1255.5 3686.83,1355.5 3763.5,1455.5C 3763.44,1456.74 3762.94,1457.74 3762,1458.5C 3714.24,1457.67 3666.4,1457.17 3618.5,1457C 3557.03,1371.23 3495.2,1285.73 3433,1200.5C 3413.86,1199.83 3394.7,1199.16 3375.5,1198.5C 3372.03,1198.69 3368.53,1198.69 3365,1198.5C 3363.6,1198.51 3362.43,1199.01 3361.5,1200C 3361.51,1285.24 3361.51,1371.07 3361.5,1457.5C 3320.83,1457.5 3280.17,1457.5 3239.5,1457.5C 3239.17,1202.76 3239.5,948.097 3240.5,693.5 Z"/></g>
<g><path style="opacity:0.985" fill="#000000" d="M 2875.5,889.5 C 2918.41,889.422 2960.41,897.922 3001.5,915C 3065.34,945.84 3109.17,994.674 3133,1061.5C 3151.67,1118.69 3156.67,1176.69 3148,1235.5C 3138.86,1307.29 3107.03,1366.79 3052.5,1414C 3009.8,1446.38 2962.13,1464.55 2909.5,1468.5C 2897.51,1469.53 2885.01,1470.53 2872,1471.5C 2865.07,1469.89 2859.07,1469.56 2854,1470.5C 2719.07,1458.28 2635.9,1385.78 2604.5,1253C 2604.83,1252.67 2605.17,1252.33 2605.5,1252C 2595.8,1199.05 2596.63,1146.22 2608,1093.5C 2641.5,971.32 2721.17,903.653 2847,890.5C 2847.33,890.833 2847.67,891.167 2848,891.5C 2857.27,890.845 2866.43,890.179 2875.5,889.5 Z M 2868.5,991.5 C 2938.07,991.509 2985.57,1024.84 3011,1091.5C 3018.23,1115.54 3022.73,1140.04 3024.5,1165C 3023.93,1176.3 3023.93,1188.3 3024.5,1201C 3022.49,1226.89 3016.99,1252.06 3008,1276.5C 2985.69,1330.31 2945.69,1360.64 2888,1367.5C 2854.05,1370.12 2822.22,1361.62 2792.5,1342C 2767.41,1322 2749.58,1296.83 2739,1266.5C 2732.41,1244.52 2728.24,1222.35 2726.5,1200C 2726.42,1198.09 2726.75,1196.09 2727.5,1194C 2726.83,1192 2726.17,1190 2725.5,1188C 2726.12,1171.4 2727.29,1154.23 2729,1136.5C 2733.32,1104.73 2744.49,1075.4 2762.5,1048.5C 2788.88,1012.92 2824.21,993.924 2868.5,991.5 Z"/></g>
<g><path style="opacity:0.984" fill="#000000" d="M 2365.5,903.5 C 2437.4,903.169 2509.24,903.502 2581,904.5C 2581.99,939.644 2581.66,974.644 2580,1009.5C 2515.57,1008.97 2451.07,1008.64 2386.5,1008.5C 2385.5,1158.17 2385.17,1307.83 2385.5,1457.5C 2344.83,1457.5 2304.17,1457.5 2263.5,1457.5C 2263.33,1302.17 2263.5,1146.83 2264,991.5C 2298.05,962.273 2331.88,932.939 2365.5,903.5 Z"/></g>
<g><path style="opacity:0.267" fill="#b5b5b5" d="M 280.5,1584.5 C 485.167,1583.17 689.833,1583.17 894.5,1584.5C 689.863,1585.83 485.196,1585.83 280.5,1584.5 Z"/></g>
</svg>
