<?xml version="1.0" encoding="UTF-8"?>
<!DOCTYPE svg PUBLIC "-//W3C//DTD SVG 1.1//EN" "http://www.w3.org/Graphics/SVG/1.1/DTD/svg11.dtd">
<svg xmlns="http://www.w3.org/2000/svg" version="1.1" width="1200px" height="675px" style="shape-rendering:geometricPrecision; text-rendering:geometricPrecision; image-rendering:optimizeQuality; fill-rule:evenodd; clip-rule:evenodd" xmlns:xlink="http://www.w3.org/1999/xlink">
<g><path style="opacity:0.157" fill="#a3a3a3" d="M 593.5,31.5 C 587.833,31.5 582.167,31.5 576.5,31.5C 574.833,31.5 573.167,31.5 571.5,31.5C 571.351,30.448 571.517,29.448 572,28.5C 578.667,28.5 585.333,28.5 592,28.5C 592.513,29.5266 593.013,30.5266 593.5,31.5 Z"/></g>
<g><path style="opacity:1" fill="#4c4c4c" d="M 576.5,31.5 C 582.167,31.5 587.833,31.5 593.5,31.5C 596.86,31.6159 600.193,31.9492 603.5,32.5C 603.833,33.1667 604.167,33.8333 604.5,34.5C 595.103,33.0192 585.77,32.0192 576.5,31.5 Z"/></g>
<g><path style="opacity:0.541" fill="#7b7b7b" d="M 567.5,31.5 C 562.991,32.9451 558.324,34.2784 553.5,35.5C 552.584,35.4573 551.917,35.1239 551.5,34.5C 556.708,32.9921 562.041,31.9921 567.5,31.5 Z"/></g>
<g><path style="opacity:1" fill="#333333" d="M 567.5,31.5 C 568.833,31.5 570.167,31.5 571.5,31.5C 573.167,31.5 574.833,31.5 576.5,31.5C 585.77,32.0192 595.103,33.0192 604.5,34.5C 608.197,35.0078 611.864,35.6745 615.5,36.5C 615.833,36.5 616.167,36.5 616.5,36.5C 619.802,38.7229 623.468,40.3895 627.5,41.5C 629.089,43.3056 631.089,44.6389 633.5,45.5C 634.386,46.325 634.719,47.325 634.5,48.5C 636.565,48.5172 638.565,48.8505 640.5,49.5C 641.899,50.8897 643.566,51.8897 645.5,52.5C 647.834,55.8289 650.834,58.4956 654.5,60.5C 656.011,61.5025 657.678,62.1692 659.5,62.5C 664.75,62.6975 669.75,62.0308 674.5,60.5C 674.833,60.5 675.167,60.5 675.5,60.5C 679.167,61.8333 682.833,61.8333 686.5,60.5C 687.5,60.5 688.5,60.5 689.5,60.5C 689.611,61.1174 689.944,61.6174 690.5,62C 692.473,62.4955 694.473,62.6621 696.5,62.5C 696.833,62.5 697.167,62.5 697.5,62.5C 697.611,63.1174 697.944,63.6174 698.5,64C 704.595,65.2001 710.595,66.7001 716.5,68.5C 716.833,68.5 717.167,68.5 717.5,68.5C 720.057,70.6074 723.057,71.9408 726.5,72.5C 730.054,73.7693 733.054,75.7693 735.5,78.5C 737.629,80.9501 740.296,82.6167 743.5,83.5C 744.5,83.8333 745.167,84.5 745.5,85.5C 746.5,87.1667 747.833,88.5 749.5,89.5C 751.548,92.215 753.882,94.5483 756.5,96.5C 756.738,98.4044 757.738,99.7377 759.5,100.5C 760.723,104.049 762.723,107.049 765.5,109.5C 765.427,111.027 766.094,112.027 767.5,112.5C 768.338,112.842 768.672,113.508 768.5,114.5C 768.755,116.967 769.755,118.967 771.5,120.5C 773.378,127.241 775.378,133.908 777.5,140.5C 778.798,151.835 778.798,163.169 777.5,174.5C 775.712,177.987 774.712,181.821 774.5,186C 774.307,188.008 774.974,189.508 776.5,190.5C 777.08,192.749 778.413,194.415 780.5,195.5C 781.723,199.049 783.723,202.049 786.5,204.5C 786.427,206.027 787.094,207.027 788.5,207.5C 788.5,207.833 788.5,208.167 788.5,208.5C 788.427,210.027 789.094,211.027 790.5,211.5C 790.707,214.241 791.707,216.574 793.5,218.5C 793.402,220.553 794.069,222.22 795.5,223.5C 797.26,227.547 798.26,231.88 798.5,236.5C 800.709,257.252 797.709,277.252 789.5,296.5C 789.068,297.71 788.401,298.71 787.5,299.5C 786.326,300.514 785.66,301.847 785.5,303.5C 783.273,304.401 782.273,306.067 782.5,308.5C 781.488,309.872 780.488,311.205 779.5,312.5C 776.348,313.779 774.348,316.112 773.5,319.5C 773.5,320.167 773.167,320.5 772.5,320.5C 769.865,321.473 767.865,323.14 766.5,325.5C 764.5,325.5 763.5,326.5 763.5,328.5C 759.619,329.774 755.952,331.607 752.5,334C 750.937,334.759 749.937,335.926 749.5,337.5C 749.158,338.338 748.492,338.672 747.5,338.5C 745.146,338.838 742.813,339.338 740.5,340C 739.748,340.671 739.414,341.504 739.5,342.5C 736.918,342.025 734.918,342.692 733.5,344.5C 729.116,345.01 724.782,345.843 720.5,347C 718.963,348.11 718.297,349.61 718.5,351.5C 717.069,352.78 716.402,354.447 716.5,356.5C 716.672,357.492 716.338,358.158 715.5,358.5C 713.461,359.911 712.461,361.911 712.5,364.5C 711.094,364.973 710.427,365.973 710.5,367.5C 707.759,369.975 705.759,372.975 704.5,376.5C 703.557,379.109 701.89,381.109 699.5,382.5C 697.5,383.833 695.833,385.5 694.5,387.5C 694.167,388.5 693.5,389.167 692.5,389.5C 690.405,390.412 688.405,391.579 686.5,393C 685.748,393.671 685.414,394.504 685.5,395.5C 683.067,395.273 681.401,396.273 680.5,398.5C 672.433,402.53 664.1,406.03 655.5,409C 654.619,409.708 653.953,410.542 653.5,411.5C 651.958,412.301 650.292,412.634 648.5,412.5C 640.024,413.397 631.524,414.064 623,414.5C 614.811,414.039 606.644,413.372 598.5,412.5C 592.804,409.902 586.804,407.902 580.5,406.5C 578.664,404.412 576.331,403.079 573.5,402.5C 572.209,402.737 571.209,402.404 570.5,401.5C 570.306,399.088 568.973,398.088 566.5,398.5C 561.113,394.466 556.113,389.966 551.5,385C 550.552,384.517 549.552,384.351 548.5,384.5C 548.03,383.307 547.03,382.64 545.5,382.5C 539.567,382.845 533.9,383.845 528.5,385.5C 528.167,385.5 527.833,385.5 527.5,385.5C 522.268,383.357 516.934,383.024 511.5,384.5C 510.833,384.5 510.167,384.5 509.5,384.5C 508.828,383.733 507.995,383.066 507,382.5C 506.601,382.728 506.435,383.062 506.5,383.5C 505.833,383.5 505.167,383.5 504.5,383.5C 501.761,380.976 498.428,379.976 494.5,380.5C 493.209,380.737 492.209,380.404 491.5,379.5C 485.893,375.199 479.56,372.199 472.5,370.5C 472.306,368.088 470.973,367.088 468.5,367.5C 466.597,364.542 463.93,362.542 460.5,361.5C 454.756,355.427 449.089,349.427 443.5,343.5C 442,339.003 439.667,335.003 436.5,331.5C 434.654,329.97 433.654,327.97 433.5,325.5C 433.405,323.214 432.738,321.214 431.5,319.5C 429.963,313.013 428.296,306.679 426.5,300.5C 426.5,292.5 426.5,284.5 426.5,276.5C 426.5,276.167 426.5,275.833 426.5,275.5C 428.157,272.911 428.491,270.244 427.5,267.5C 427.5,267.167 427.5,266.833 427.5,266.5C 428.117,266.389 428.617,266.056 429,265.5C 429.579,263.351 430.079,261.185 430.5,259C 430.613,257.301 429.947,256.134 428.5,255.5C 427.855,253.174 426.522,251.507 424.5,250.5C 422.218,246.223 419.551,242.223 416.5,238.5C 414.687,233.721 412.687,229.054 410.5,224.5C 410.099,220.595 408.766,217.262 406.5,214.5C 406.037,211.518 405.704,208.518 405.5,205.5C 404.647,188.287 406.981,171.62 412.5,155.5C 412.5,155.167 412.5,154.833 412.5,154.5C 414.25,153.341 415.25,151.674 415.5,149.5C 415.328,148.508 415.662,147.842 416.5,147.5C 418.664,145.178 420.331,142.511 421.5,139.5C 421.427,137.973 422.094,136.973 423.5,136.5C 425.262,135.738 426.262,134.404 426.5,132.5C 426.5,131.833 426.833,131.5 427.5,131.5C 432.976,125.935 438.642,120.602 444.5,115.5C 447.511,114.331 450.178,112.664 452.5,110.5C 459.84,108.082 466.506,104.749 472.5,100.5C 472.833,100.5 473.167,100.5 473.5,100.5C 474.097,101.139 474.93,101.472 476,101.5C 478.628,100.169 481.462,99.3359 484.5,99C 486.518,96.1113 487.851,92.9446 488.5,89.5C 490.867,86.0957 492.867,82.4291 494.5,78.5C 496.588,76.6644 497.921,74.3311 498.5,71.5C 501.086,70.3615 502.753,68.3615 503.5,65.5C 506.091,63.5756 508.425,61.2422 510.5,58.5C 510.833,57.5 511.5,56.8333 512.5,56.5C 514.749,55.9202 516.415,54.5869 517.5,52.5C 519.795,51.8645 521.461,50.5311 522.5,48.5C 523.872,47.4884 525.205,46.4884 526.5,45.5C 530.165,45.4982 533.165,44.1648 535.5,41.5C 539.624,40.6008 543.291,38.9341 546.5,36.5C 546.833,36.5 547.167,36.5 547.5,36.5C 549.027,36.573 550.027,35.9063 550.5,34.5C 550.833,34.5 551.167,34.5 551.5,34.5C 551.917,35.1239 552.584,35.4573 553.5,35.5C 558.324,34.2784 562.991,32.9451 567.5,31.5 Z M 611.5,180.5 C 611.833,180.5 612.167,180.5 612.5,180.5C 613.899,181.89 615.566,182.89 617.5,183.5C 618.965,184.737 620.632,185.737 622.5,186.5C 622.833,186.5 623.167,186.5 623.5,186.5C 629.17,190.337 635.17,193.67 641.5,196.5C 641.5,197.167 641.833,197.5 642.5,197.5C 643.172,198.267 644.005,198.934 645,199.5C 645.499,203.486 645.666,207.486 645.5,211.5C 645.5,211.833 645.5,212.167 645.5,212.5C 645.667,223.838 645.5,235.172 645,246.5C 642.833,247.488 641,248.821 639.5,250.5C 636.008,251.41 633.008,253.076 630.5,255.5C 621.507,259.662 612.84,264.328 604.5,269.5C 603.127,269.657 601.793,269.49 600.5,269C 595.09,265.628 589.423,262.795 583.5,260.5C 580.992,258.076 577.992,256.41 574.5,255.5C 572.206,253.347 569.54,251.68 566.5,250.5C 564.481,249.067 562.314,247.733 560,246.5C 559.5,234.505 559.333,222.505 559.5,210.5C 559.5,210.167 559.5,209.833 559.5,209.5C 559.335,206.15 559.502,202.817 560,199.5C 566.978,195.6 573.812,191.6 580.5,187.5C 581.492,187.672 582.158,187.338 582.5,186.5C 585.696,185.071 588.696,183.405 591.5,181.5C 595.3,179.766 598.966,177.766 602.5,175.5C 605.366,177.432 608.366,179.099 611.5,180.5 Z"/></g>
<g><path style="opacity:0.31" fill="#8a8a8a" d="M 603.5,32.5 C 607.163,33.2663 610.829,34.0997 614.5,35C 615.056,35.3826 615.389,35.8826 615.5,36.5C 611.864,35.6745 608.197,35.0078 604.5,34.5C 604.167,33.8333 603.833,33.1667 603.5,32.5 Z"/></g>
<g><path style="opacity:0.31" fill="#959595" d="M 550.5,34.5 C 550.027,35.9063 549.027,36.573 547.5,36.5C 547.973,35.0937 548.973,34.427 550.5,34.5 Z"/></g>
<g><path style="opacity:0.541" fill="#787878" d="M 546.5,36.5 C 543.291,38.9341 539.624,40.6008 535.5,41.5C 538.632,38.8899 542.299,37.2233 546.5,36.5 Z"/></g>
<g><path style="opacity:0.243" fill="#7e7e7e" d="M 616.5,36.5 C 620.701,37.2233 624.368,38.8899 627.5,41.5C 623.468,40.3895 619.802,38.7229 616.5,36.5 Z"/></g>
<g><path style="opacity:0.659" fill="#737373" d="M 535.5,41.5 C 533.165,44.1648 530.165,45.4982 526.5,45.5C 529.256,43.7962 532.256,42.4629 535.5,41.5 Z"/></g>
<g><path style="opacity:1" fill="#575757" d="M 627.5,41.5 C 632.284,43.0579 636.618,45.3912 640.5,48.5C 640.5,48.8333 640.5,49.1667 640.5,49.5C 638.565,48.8505 636.565,48.5172 634.5,48.5C 634.719,47.325 634.386,46.325 633.5,45.5C 631.089,44.6389 629.089,43.3056 627.5,41.5 Z"/></g>
<g><path style="opacity:0.067" fill="#8f8f8f" d="M 640.5,48.5 C 642.754,49.1237 644.421,50.457 645.5,52.5C 643.566,51.8897 641.899,50.8897 640.5,49.5C 640.5,49.1667 640.5,48.8333 640.5,48.5 Z"/></g>
<g><path style="opacity:0.427" fill="#818181" d="M 522.5,48.5 C 521.461,50.5311 519.795,51.8645 517.5,52.5C 518.579,50.457 520.246,49.1237 522.5,48.5 Z"/></g>
<g><path style="opacity:0.729" fill="#6d6d6d" d="M 517.5,52.5 C 516.415,54.5869 514.749,55.9202 512.5,56.5C 513.585,54.4131 515.251,53.0798 517.5,52.5 Z"/></g>
<g><path style="opacity:0.243" fill="#727272" d="M 645.5,52.5 C 649.166,54.5044 652.166,57.1711 654.5,60.5C 650.834,58.4956 647.834,55.8289 645.5,52.5 Z"/></g>
<g><path style="opacity:1" fill="#fdfdfd" d="M 552.5,115.5 C 550.973,115.427 549.973,116.094 549.5,117.5C 545.224,118.608 542.391,121.275 541,125.5C 540.833,162.669 540.333,199.669 539.5,236.5C 539.027,235.094 538.027,234.427 536.5,234.5C 535.833,234.167 535.167,233.833 534.5,233.5C 534.027,232.094 533.027,231.427 531.5,231.5C 531.167,231.5 530.833,231.5 530.5,231.5C 530.027,230.094 529.027,229.427 527.5,229.5C 525.181,229.008 523.181,228.008 521.5,226.5C 521.027,225.094 520.027,224.427 518.5,224.5C 516.847,224.34 515.514,223.674 514.5,222.5C 514.027,221.094 513.027,220.427 511.5,220.5C 509.326,220.25 507.659,219.25 506.5,217.5C 506.201,183.48 506.535,149.48 507.5,115.5C 508.39,107.495 511.056,100.162 515.5,93.5C 516.906,93.0269 517.573,92.0269 517.5,90.5C 532.184,68.0714 553.017,56.7381 580,56.5C 595.81,55.7429 610.31,59.5763 623.5,68C 624.729,69.5292 626.229,70.6959 628,71.5C 628.617,72.4491 628.451,73.2825 627.5,74C 602.332,87.5537 577.332,101.387 552.5,115.5 Z"/></g>
<g><path style="opacity:0.427" fill="#838383" d="M 510.5,58.5 C 508.425,61.2422 506.091,63.5756 503.5,65.5C 504.855,62.1447 507.189,59.8114 510.5,58.5 Z"/></g>
<g><path style="opacity:0.31" fill="#939393" d="M 686.5,60.5 C 682.833,61.8333 679.167,61.8333 675.5,60.5C 679.099,60.3671 682.766,60.3671 686.5,60.5 Z"/></g>
<g><path style="opacity:0.067" fill="#909090" d="M 689.5,60.5 C 692.152,60.4095 694.485,61.0762 696.5,62.5C 694.473,62.6621 692.473,62.4955 690.5,62C 689.944,61.6174 689.611,61.1174 689.5,60.5 Z"/></g>
<g><path style="opacity:0.729" fill="#7a7a7a" d="M 674.5,60.5 C 669.75,62.0308 664.75,62.6975 659.5,62.5C 659.918,61.7784 660.584,61.2784 661.5,61C 665.222,60.7618 668.889,60.2618 672.5,59.5C 673.183,59.8627 673.85,60.1961 674.5,60.5 Z"/></g>
<g><path style="opacity:0.243" fill="#717171" d="M 697.5,62.5 C 702.888,63.3465 708.221,64.5132 713.5,66C 714.942,66.3768 715.942,67.2101 716.5,68.5C 710.595,66.7001 704.595,65.2001 698.5,64C 697.944,63.6174 697.611,63.1174 697.5,62.5 Z"/></g>
<g><path style="opacity:0.659" fill="#777777" d="M 503.5,65.5 C 502.753,68.3615 501.086,70.3615 498.5,71.5C 499.701,69.0905 501.367,67.0905 503.5,65.5 Z"/></g>
<g><path style="opacity:0.427" fill="#7d7d7d" d="M 717.5,68.5 C 720.912,69.0749 723.912,70.4082 726.5,72.5C 723.057,71.9408 720.057,70.6074 717.5,68.5 Z"/></g>
<g><path style="opacity:0.729" fill="#747474" d="M 498.5,71.5 C 497.921,74.3311 496.588,76.6644 494.5,78.5C 494.998,75.6737 496.331,73.3403 498.5,71.5 Z"/></g>
<g><path style="opacity:0.369" fill="#797979" d="M 735.5,78.5 C 738.704,79.3833 741.371,81.0499 743.5,83.5C 740.296,82.6167 737.629,80.9501 735.5,78.5 Z"/></g>
<g><path style="opacity:0.427" fill="#7b7b7b" d="M 494.5,78.5 C 492.867,82.4291 490.867,86.0957 488.5,89.5C 489.22,85.0551 491.22,81.3884 494.5,78.5 Z"/></g>
<g><path style="opacity:1" fill="#7b7b7b" d="M 693.5,87.5 C 683.167,86.1667 672.833,86.1667 662.5,87.5C 662.918,86.7784 663.584,86.2784 664.5,86C 673.167,85.3333 681.833,85.3333 690.5,86C 691.737,86.2321 692.737,86.7321 693.5,87.5 Z"/></g>
<g><path style="opacity:0.067" fill="#959595" d="M 745.5,85.5 C 747.833,85.8333 749.167,87.1667 749.5,89.5C 747.833,88.5 746.5,87.1667 745.5,85.5 Z"/></g>
<g><path style="opacity:1" fill="#fcfcfc" d="M 693.5,87.5 C 715.516,92.1981 732.183,104.198 743.5,123.5C 743.427,125.027 744.094,126.027 745.5,126.5C 747.065,128.509 748.065,130.843 748.5,133.5C 748.926,137.427 749.926,141.093 751.5,144.5C 752.469,152.748 752.802,161.082 752.5,169.5C 748.017,168.923 744.017,167.257 740.5,164.5C 740.027,163.094 739.027,162.427 737.5,162.5C 735.216,162.025 733.216,161.025 731.5,159.5C 731.027,158.094 730.027,157.427 728.5,157.5C 712.695,149.097 697.029,140.431 681.5,131.5C 681.027,130.094 680.027,129.427 678.5,129.5C 676.181,129.008 674.181,128.008 672.5,126.5C 672.027,125.094 671.027,124.427 669.5,124.5C 664.793,123.077 660.126,123.244 655.5,125C 623.725,142.975 591.725,160.475 559.5,177.5C 559.333,165.162 559.5,152.829 560,140.5C 560.833,139.667 561.667,138.833 562.5,138C 592.007,121.746 621.674,105.746 651.5,90C 655.207,89.2627 658.873,88.4293 662.5,87.5C 672.833,86.1667 683.167,86.1667 693.5,87.5 Z"/></g>
<g><path style="opacity:0.067" fill="#878787" d="M 749.5,89.5 C 752.811,90.8114 755.145,93.1447 756.5,96.5C 753.882,94.5483 751.548,92.215 749.5,89.5 Z"/></g>
<g><path style="opacity:1" fill="#a5a5a5" d="M 517.5,90.5 C 517.573,92.0269 516.906,93.0269 515.5,93.5C 515.427,91.9731 516.094,90.9731 517.5,90.5 Z"/></g>
<g><path style="opacity:0.878" fill="#6b6b6b" d="M 488.5,89.5 C 487.851,92.9446 486.518,96.1113 484.5,99C 481.462,99.3359 478.628,100.169 476,101.5C 474.93,101.472 474.097,101.139 473.5,100.5C 477.15,99.1991 480.817,97.8658 484.5,96.5C 485.476,93.8371 486.81,91.5038 488.5,89.5 Z"/></g>
<g><path style="opacity:0.427" fill="#828282" d="M 756.5,96.5 C 758.262,97.2623 759.262,98.5956 759.5,100.5C 757.738,99.7377 756.738,98.4044 756.5,96.5 Z"/></g>
<g><path style="opacity:0.729" fill="#707070" d="M 759.5,100.5 C 762.277,102.951 764.277,105.951 765.5,109.5C 762.723,107.049 760.723,104.049 759.5,100.5 Z"/></g>
<g><path style="opacity:0.659" fill="#6d6d6d" d="M 472.5,100.5 C 466.506,104.749 459.84,108.082 452.5,110.5C 452.953,109.542 453.619,108.708 454.5,108C 460.437,105.194 466.437,102.694 472.5,100.5 Z"/></g>
<g><path style="opacity:0.31" fill="#8f8f8f" d="M 765.5,109.5 C 766.906,109.973 767.573,110.973 767.5,112.5C 766.094,112.027 765.427,111.027 765.5,109.5 Z"/></g>
<g><path style="opacity:0.427" fill="#7c7c7c" d="M 452.5,110.5 C 450.178,112.664 447.511,114.331 444.5,115.5C 446.484,112.836 449.151,111.169 452.5,110.5 Z"/></g>
<g><path style="opacity:1" fill="#6e6e6e" d="M 552.5,115.5 C 552.027,116.906 551.027,117.573 549.5,117.5C 549.973,116.094 550.973,115.427 552.5,115.5 Z"/></g>
<g><path style="opacity:0.427" fill="#777777" d="M 444.5,115.5 C 438.642,120.602 432.976,125.935 427.5,131.5C 431.663,124.582 437.33,119.249 444.5,115.5 Z"/></g>
<g><path style="opacity:0.427" fill="#898989" d="M 768.5,114.5 C 770.245,116.033 771.245,118.033 771.5,120.5C 769.755,118.967 768.755,116.967 768.5,114.5 Z"/></g>
<g><path style="opacity:0.067" fill="#888888" d="M 771.5,120.5 C 775.023,126.566 777.023,133.232 777.5,140.5C 775.378,133.908 773.378,127.241 771.5,120.5 Z"/></g>
<g><path style="opacity:1" fill="#949494" d="M 669.5,124.5 C 671.027,124.427 672.027,125.094 672.5,126.5C 670.973,126.573 669.973,125.906 669.5,124.5 Z"/></g>
<g><path style="opacity:1" fill="#969696" d="M 743.5,123.5 C 744.906,123.973 745.573,124.973 745.5,126.5C 744.094,126.027 743.427,125.027 743.5,123.5 Z"/></g>
<g><path style="opacity:1" fill="#fcfcfc" d="M 480.5,207.5 C 478.09,217.067 481.09,224.233 489.5,229C 493.732,231.46 498.065,233.627 502.5,235.5C 502.973,236.906 503.973,237.573 505.5,237.5C 529.932,251.538 554.599,265.205 579.5,278.5C 579.973,279.906 580.973,280.573 582.5,280.5C 583.043,280.56 583.376,280.893 583.5,281.5C 582.092,282.243 580.759,283.077 579.5,284C 569.381,289.726 559.048,294.893 548.5,299.5C 548.027,298.094 547.027,297.427 545.5,297.5C 541.19,296.012 537.19,294.012 533.5,291.5C 533.027,290.094 532.027,289.427 530.5,289.5C 529.508,289.672 528.842,289.338 528.5,288.5C 528.027,287.094 527.027,286.427 525.5,286.5C 525.167,286.5 524.833,286.5 524.5,286.5C 524.027,285.094 523.027,284.427 521.5,284.5C 518.605,283.601 515.938,282.267 513.5,280.5C 511.879,278.058 509.546,276.725 506.5,276.5C 505.833,276.167 505.167,275.833 504.5,275.5C 504.027,274.094 503.027,273.427 501.5,273.5C 500.391,273.443 499.391,273.11 498.5,272.5C 497.738,270.738 496.404,269.738 494.5,269.5C 482.574,263.535 470.908,257.035 459.5,250C 449.124,241.727 441.291,231.561 436,219.5C 434.857,216.223 434.023,212.89 433.5,209.5C 432.625,198.86 432.291,188.194 432.5,177.5C 432.5,177.167 432.5,176.833 432.5,176.5C 433.871,174.064 434.871,171.397 435.5,168.5C 437.568,161.929 440.735,155.929 445,150.5C 449.5,146 454,141.5 458.5,137C 462.91,133.128 467.91,130.295 473.5,128.5C 475.441,128.131 477.275,127.464 479,126.5C 479.168,153.67 479.668,180.67 480.5,207.5 Z"/></g>
<g><path style="opacity:1" fill="#c1c1c1" d="M 480.5,207.5 C 479.668,180.67 479.168,153.67 479,126.5C 477.275,127.464 475.441,128.131 473.5,128.5C 475.32,126.552 477.654,125.552 480.5,125.5C 480.5,152.833 480.5,180.167 480.5,207.5 Z"/></g>
<g><path style="opacity:1" fill="#969696" d="M 678.5,129.5 C 680.027,129.427 681.027,130.094 681.5,131.5C 679.973,131.573 678.973,130.906 678.5,129.5 Z"/></g>
<g><path style="opacity:0.659" fill="#838383" d="M 426.5,132.5 C 426.262,134.404 425.262,135.738 423.5,136.5C 423.738,134.596 424.738,133.262 426.5,132.5 Z"/></g>
<g><path style="opacity:1" fill="#b4b4b4" d="M 748.5,133.5 C 750.483,136.799 751.483,140.466 751.5,144.5C 749.926,141.093 748.926,137.427 748.5,133.5 Z"/></g>
<g><path style="opacity:0.541" fill="#7e7e7e" d="M 421.5,139.5 C 420.331,142.511 418.664,145.178 416.5,147.5C 417.169,144.151 418.836,141.484 421.5,139.5 Z"/></g>
<g><path style="opacity:1" fill="#bbbbbb" d="M 657.5,147.5 C 655.5,147.5 653.5,147.5 651.5,147.5C 653.594,145.006 655.594,145.006 657.5,147.5 Z"/></g>
<g><path style="opacity:1" fill="#fbfbfb" d="M 651.5,147.5 C 653.5,147.5 655.5,147.5 657.5,147.5C 669.419,153.333 681.086,159.667 692.5,166.5C 692.973,167.906 693.973,168.573 695.5,168.5C 704.198,173.181 712.865,177.848 721.5,182.5C 721.973,183.906 722.973,184.573 724.5,184.5C 726.711,185.123 728.711,186.123 730.5,187.5C 730.973,188.906 731.973,189.573 733.5,189.5C 733.833,189.5 734.167,189.5 734.5,189.5C 734.973,190.906 735.973,191.573 737.5,191.5C 748.833,198.167 757.833,207.167 764.5,218.5C 764.427,220.027 765.094,221.027 766.5,221.5C 767.242,223.98 768.242,226.313 769.5,228.5C 769.41,231.152 770.076,233.485 771.5,235.5C 774.089,247.69 774.089,260.024 771.5,272.5C 770.326,273.514 769.66,274.847 769.5,276.5C 762.451,294.885 750.118,308.552 732.5,317.5C 730.033,317.755 728.033,318.755 726.5,320.5C 724.672,289.183 723.839,257.516 724,225.5C 723.215,223.714 722.049,222.214 720.5,221C 717.436,219.141 714.436,217.308 711.5,215.5C 711.027,214.094 710.027,213.427 708.5,213.5C 706.181,213.008 704.181,212.008 702.5,210.5C 702.027,209.094 701.027,208.427 699.5,208.5C 697.181,208.008 695.181,207.008 693.5,205.5C 693.027,204.094 692.027,203.427 690.5,203.5C 688.181,203.008 686.181,202.008 684.5,200.5C 684.027,199.094 683.027,198.427 681.5,198.5C 679.456,197.492 677.456,196.492 675.5,195.5C 675.027,194.094 674.027,193.427 672.5,193.5C 668.7,191.766 665.034,189.766 661.5,187.5C 661.027,186.094 660.027,185.427 658.5,185.5C 654.883,184.358 651.55,182.692 648.5,180.5C 648.027,179.094 647.027,178.427 645.5,178.5C 643.289,177.877 641.289,176.877 639.5,175.5C 639.027,174.094 638.027,173.427 636.5,173.5C 631.472,171.324 626.806,168.657 622.5,165.5C 623.167,164.5 623.833,163.5 624.5,162.5C 628.559,159.801 632.893,157.468 637.5,155.5C 639.027,155.573 640.027,154.906 640.5,153.5C 642.289,152.123 644.289,151.123 646.5,150.5C 648.027,150.573 649.027,149.906 649.5,148.5C 650.492,148.672 651.158,148.338 651.5,147.5 Z"/></g>
<g><path style="opacity:1" fill="#9f9f9f" d="M 649.5,148.5 C 649.027,149.906 648.027,150.573 646.5,150.5C 646.973,149.094 647.973,148.427 649.5,148.5 Z"/></g>
<g><path style="opacity:0.157" fill="#939393" d="M 415.5,149.5 C 415.25,151.674 414.25,153.341 412.5,154.5C 412.75,152.326 413.75,150.659 415.5,149.5 Z"/></g>
<g><path style="opacity:0.067" fill="#898989" d="M 777.5,140.5 C 781.441,151.84 781.441,163.174 777.5,174.5C 778.798,163.169 778.798,151.835 777.5,140.5 Z"/></g>
<g><path style="opacity:1" fill="#9f9f9f" d="M 640.5,153.5 C 640.027,154.906 639.027,155.573 637.5,155.5C 637.973,154.094 638.973,153.427 640.5,153.5 Z"/></g>
<g><path style="opacity:1" fill="#7b7b7b" d="M 507.5,115.5 C 506.535,149.48 506.201,183.48 506.5,217.5C 505.336,185.003 505.169,152.336 506,119.5C 506.21,117.942 506.71,116.609 507.5,115.5 Z"/></g>
<g><path style="opacity:1" fill="#949494" d="M 728.5,157.5 C 730.027,157.427 731.027,158.094 731.5,159.5C 729.973,159.573 728.973,158.906 728.5,157.5 Z"/></g>
<g><path style="opacity:1" fill="#949494" d="M 737.5,162.5 C 739.027,162.427 740.027,163.094 740.5,164.5C 738.973,164.573 737.973,163.906 737.5,162.5 Z"/></g>
<g><path style="opacity:1" fill="#a7a7a7" d="M 624.5,162.5 C 623.833,163.5 623.167,164.5 622.5,165.5C 621.282,163.668 621.949,162.668 624.5,162.5 Z"/></g>
<g><path style="opacity:1" fill="#a8a8a8" d="M 692.5,166.5 C 694.027,166.427 695.027,167.094 695.5,168.5C 693.973,168.573 692.973,167.906 692.5,166.5 Z"/></g>
<g><path style="opacity:1" fill="#797979" d="M 435.5,168.5 C 434.871,171.397 433.871,174.064 432.5,176.5C 432.345,173.284 433.345,170.617 435.5,168.5 Z"/></g>
<g><path style="opacity:0.659" fill="#6c6c6c" d="M 611.5,180.5 C 608.366,179.099 605.366,177.432 602.5,175.5C 598.966,177.766 595.3,179.766 591.5,181.5C 595.969,175.256 601.636,173.756 608.5,177C 610.063,177.759 611.063,178.926 611.5,180.5 Z"/></g>
<g><path style="opacity:1" fill="#969696" d="M 636.5,173.5 C 638.027,173.427 639.027,174.094 639.5,175.5C 637.973,175.573 636.973,174.906 636.5,173.5 Z"/></g>
<g><path style="opacity:1" fill="#949494" d="M 645.5,178.5 C 647.027,178.427 648.027,179.094 648.5,180.5C 646.973,180.573 645.973,179.906 645.5,178.5 Z"/></g>
<g><path style="opacity:0.243" fill="#727272" d="M 612.5,180.5 C 615.034,180.259 616.7,181.259 617.5,183.5C 615.566,182.89 613.899,181.89 612.5,180.5 Z"/></g>
<g><path style="opacity:0.243" fill="#707070" d="M 591.5,181.5 C 588.696,183.405 585.696,185.071 582.5,186.5C 584.348,183.069 587.348,181.403 591.5,181.5 Z"/></g>
<g><path style="opacity:1" fill="#a8a8a8" d="M 721.5,182.5 C 723.027,182.427 724.027,183.094 724.5,184.5C 722.973,184.573 721.973,183.906 721.5,182.5 Z"/></g>
<g><path style="opacity:0.243" fill="#727272" d="M 617.5,183.5 C 620.285,182.916 621.952,183.916 622.5,186.5C 620.632,185.737 618.965,184.737 617.5,183.5 Z"/></g>
<g><path style="opacity:1" fill="#bdbdbd" d="M 432.5,177.5 C 432.291,188.194 432.625,198.86 433.5,209.5C 431.135,204.207 430.135,198.54 430.5,192.5C 430.392,187.255 431.058,182.255 432.5,177.5 Z"/></g>
<g><path style="opacity:0.157" fill="#888888" d="M 777.5,174.5 C 777.476,178.6 776.809,182.6 775.5,186.5C 775.846,187.849 776.179,189.183 776.5,190.5C 774.974,189.508 774.307,188.008 774.5,186C 774.712,181.821 775.712,177.987 777.5,174.5 Z"/></g>
<g><path style="opacity:1" fill="#a8a8a8" d="M 658.5,185.5 C 660.027,185.427 661.027,186.094 661.5,187.5C 659.973,187.573 658.973,186.906 658.5,185.5 Z"/></g>
<g><path style="opacity:1" fill="#a8a8a8" d="M 730.5,187.5 C 732.027,187.427 733.027,188.094 733.5,189.5C 731.973,189.573 730.973,188.906 730.5,187.5 Z"/></g>
<g><path style="opacity:0.243" fill="#6f6f6f" d="M 623.5,186.5 C 629.266,188.882 634.932,191.549 640.5,194.5C 641.298,194.957 641.631,195.624 641.5,196.5C 635.17,193.67 629.17,190.337 623.5,186.5 Z"/></g>
<g><path style="opacity:1" fill="#878787" d="M 734.5,189.5 C 736.027,189.427 737.027,190.094 737.5,191.5C 735.973,191.573 734.973,190.906 734.5,189.5 Z"/></g>
<g><path style="opacity:0.659" fill="#838383" d="M 776.5,190.5 C 778.587,191.585 779.92,193.251 780.5,195.5C 778.413,194.415 777.08,192.749 776.5,190.5 Z"/></g>
<g><path style="opacity:0.541" fill="#828282" d="M 412.5,155.5 C 406.981,171.62 404.647,188.287 405.5,205.5C 404.702,202.829 404.035,199.996 403.5,197C 403.538,192.82 403.538,188.653 403.5,184.5C 405.391,176.887 407.224,169.22 409,161.5C 410.082,159.382 411.249,157.382 412.5,155.5 Z"/></g>
<g><path style="opacity:1" fill="#969696" d="M 672.5,193.5 C 674.027,193.427 675.027,194.094 675.5,195.5C 673.973,195.573 672.973,194.906 672.5,193.5 Z"/></g>
<g><path style="opacity:0.243" fill="#717171" d="M 580.5,187.5 C 573.812,191.6 566.978,195.6 560,199.5C 559.502,202.817 559.335,206.15 559.5,209.5C 558.191,205.649 558.191,201.649 559.5,197.5C 565.296,195.102 570.63,191.936 575.5,188C 577.134,187.506 578.801,187.34 580.5,187.5 Z"/></g>
<g><path style="opacity:0.243" fill="#686868" d="M 642.5,197.5 C 643.833,197.5 645.167,197.5 646.5,197.5C 646.819,202.363 646.486,207.03 645.5,211.5C 645.666,207.486 645.499,203.486 645,199.5C 644.005,198.934 643.172,198.267 642.5,197.5 Z"/></g>
<g><path style="opacity:1" fill="#949494" d="M 681.5,198.5 C 683.027,198.427 684.027,199.094 684.5,200.5C 682.973,200.573 681.973,199.906 681.5,198.5 Z"/></g>
<g><path style="opacity:0.541" fill="#767676" d="M 780.5,195.5 C 783.277,197.951 785.277,200.951 786.5,204.5C 783.723,202.049 781.723,199.049 780.5,195.5 Z"/></g>
<g><path style="opacity:1" fill="#949494" d="M 690.5,203.5 C 692.027,203.427 693.027,204.094 693.5,205.5C 691.973,205.573 690.973,204.906 690.5,203.5 Z"/></g>
<g><path style="opacity:0.31" fill="#8f8f8f" d="M 786.5,204.5 C 787.906,204.973 788.573,205.973 788.5,207.5C 787.094,207.027 786.427,206.027 786.5,204.5 Z"/></g>
<g><path style="opacity:1" fill="#969696" d="M 699.5,208.5 C 701.027,208.427 702.027,209.094 702.5,210.5C 700.973,210.573 699.973,209.906 699.5,208.5 Z"/></g>
<g><path style="opacity:1" fill="#fbfbfb" d="M 655.5,383.5 C 653.302,383.12 651.635,383.787 650.5,385.5C 637.114,389.147 623.447,390.481 609.5,389.5C 607.485,388.076 605.152,387.41 602.5,387.5C 597.113,386.265 592.113,384.265 587.5,381.5C 587.027,380.094 586.027,379.427 584.5,379.5C 580.881,378.522 578.215,376.355 576.5,373C 578.034,371.065 580.034,369.899 582.5,369.5C 584.027,369.573 585.027,368.906 585.5,367.5C 593.173,362.662 601.173,358.328 609.5,354.5C 611.848,354.408 613.514,353.408 614.5,351.5C 616.027,351.573 617.027,350.906 617.5,349.5C 617.833,349.5 618.167,349.5 618.5,349.5C 620.848,349.408 622.514,348.408 623.5,346.5C 625.181,344.992 627.181,343.992 629.5,343.5C 631.027,343.573 632.027,342.906 632.5,341.5C 634.216,339.975 636.216,338.975 638.5,338.5C 640.027,338.573 641.027,337.906 641.5,336.5C 642.514,335.326 643.847,334.66 645.5,334.5C 647.027,334.573 648.027,333.906 648.5,332.5C 654.368,330.123 659.202,326.457 663,321.5C 663.167,284.162 663.667,246.829 664.5,209.5C 676.027,215.181 687.194,221.514 698,228.5C 698.667,261.5 698.667,294.5 698,327.5C 693.072,353.251 678.906,371.918 655.5,383.5 Z"/></g>
<g><path style="opacity:0.31" fill="#888888" d="M 788.5,208.5 C 789.906,208.973 790.573,209.973 790.5,211.5C 789.094,211.027 788.427,210.027 788.5,208.5 Z"/></g>
<g><path style="opacity:0.369" fill="#5f5f5f" d="M 559.5,210.5 C 559.333,222.505 559.5,234.505 560,246.5C 562.314,247.733 564.481,249.067 566.5,250.5C 563.735,250.202 561.235,249.202 559,247.5C 558.173,234.993 558.34,222.66 559.5,210.5 Z"/></g>
<g><path style="opacity:1" fill="#969696" d="M 708.5,213.5 C 710.027,213.427 711.027,214.094 711.5,215.5C 709.973,215.573 708.973,214.906 708.5,213.5 Z"/></g>
<g><path style="opacity:0.067" fill="#8c8c8c" d="M 790.5,211.5 C 792.293,213.426 793.293,215.759 793.5,218.5C 791.707,216.574 790.707,214.241 790.5,211.5 Z"/></g>
<g><path style="opacity:0.157" fill="#8f8f8f" d="M 406.5,214.5 C 408.766,217.262 410.099,220.595 410.5,224.5C 409.414,224.38 408.747,223.713 408.5,222.5C 407.954,219.763 407.288,217.096 406.5,214.5 Z"/></g>
<g><path style="opacity:1" fill="#969696" d="M 764.5,218.5 C 765.906,218.973 766.573,219.973 766.5,221.5C 765.094,221.027 764.427,220.027 764.5,218.5 Z"/></g>
<g><path style="opacity:0.067" fill="#909090" d="M 793.5,218.5 C 794.931,219.78 795.598,221.447 795.5,223.5C 794.069,222.22 793.402,220.553 793.5,218.5 Z"/></g>
<g><path style="opacity:1" fill="#a8a8a8" d="M 511.5,220.5 C 513.027,220.427 514.027,221.094 514.5,222.5C 512.973,222.573 511.973,221.906 511.5,220.5 Z"/></g>
<g><path style="opacity:1" fill="#949494" d="M 518.5,224.5 C 520.027,224.427 521.027,225.094 521.5,226.5C 519.973,226.573 518.973,225.906 518.5,224.5 Z"/></g>
<g><path style="opacity:1" fill="#969696" d="M 527.5,229.5 C 529.027,229.427 530.027,230.094 530.5,231.5C 528.973,231.573 527.973,230.906 527.5,229.5 Z"/></g>
<g><path style="opacity:1" fill="#b7b7b7" d="M 769.5,228.5 C 770.924,230.515 771.59,232.848 771.5,235.5C 770.076,233.485 769.41,231.152 769.5,228.5 Z"/></g>
<g><path style="opacity:0.31" fill="#8d8d8d" d="M 410.5,224.5 C 412.687,229.054 414.687,233.721 416.5,238.5C 413.162,234.508 411.162,229.842 410.5,224.5 Z"/></g>
<g><path style="opacity:1" fill="#a8a8a8" d="M 531.5,231.5 C 533.027,231.427 534.027,232.094 534.5,233.5C 532.973,233.573 531.973,232.906 531.5,231.5 Z"/></g>
<g><path style="opacity:0.243" fill="#6b6b6b" d="M 645.5,212.5 C 646.825,224.34 646.825,236.34 645.5,248.5C 643.55,249.372 641.55,250.039 639.5,250.5C 641,248.821 642.833,247.488 645,246.5C 645.5,235.172 645.667,223.838 645.5,212.5 Z"/></g>
<g><path style="opacity:1" fill="#949494" d="M 536.5,234.5 C 538.027,234.427 539.027,235.094 539.5,236.5C 537.973,236.573 536.973,235.906 536.5,234.5 Z"/></g>
<g><path style="opacity:1" fill="#858585" d="M 502.5,235.5 C 504.027,235.427 505.027,236.094 505.5,237.5C 503.973,237.573 502.973,236.906 502.5,235.5 Z"/></g>
<g><path style="opacity:0.067" fill="#858585" d="M 416.5,238.5 C 419.551,242.223 422.218,246.223 424.5,250.5C 420.664,247.322 417.998,243.322 416.5,238.5 Z"/></g>
<g><path style="opacity:0.067" fill="#818181" d="M 424.5,250.5 C 426.522,251.507 427.855,253.174 428.5,255.5C 426.478,254.493 425.145,252.826 424.5,250.5 Z"/></g>
<g><path style="opacity:0.369" fill="#6a6a6a" d="M 566.5,250.5 C 569.54,251.68 572.206,253.347 574.5,255.5C 570.752,255.306 568.085,253.639 566.5,250.5 Z"/></g>
<g><path style="opacity:0.659" fill="#757575" d="M 639.5,250.5 C 637.284,253.444 634.284,255.111 630.5,255.5C 633.008,253.076 636.008,251.41 639.5,250.5 Z"/></g>
<g><path style="opacity:0.545" fill="#6d6d6d" d="M 574.5,255.5 C 577.992,256.41 580.992,258.076 583.5,260.5C 579.728,260.116 576.728,258.45 574.5,255.5 Z"/></g>
<g><path style="opacity:0.659" fill="#6c6c6c" d="M 630.5,255.5 C 625.619,259.521 620.286,263.021 614.5,266C 611.439,268.035 608.105,269.201 604.5,269.5C 612.84,264.328 621.507,259.662 630.5,255.5 Z"/></g>
<g><path style="opacity:0.157" fill="#999999" d="M 428.5,255.5 C 429.947,256.134 430.613,257.301 430.5,259C 430.079,261.185 429.579,263.351 429,265.5C 428.617,266.056 428.117,266.389 427.5,266.5C 429.005,262.862 429.338,259.195 428.5,255.5 Z"/></g>
<g><path style="opacity:0.729" fill="#6b6b6b" d="M 583.5,260.5 C 589.423,262.795 595.09,265.628 600.5,269C 601.793,269.49 603.127,269.657 604.5,269.5C 603.686,271.273 602.352,271.773 600.5,271C 595.008,268.421 589.675,265.588 584.5,262.5C 583.702,262.043 583.369,261.376 583.5,260.5 Z"/></g>
<g><path style="opacity:1" fill="#fcfcfc" d="M 643.5,268.5 C 645.48,280.455 646.146,292.788 645.5,305.5C 644.833,305.833 644.167,306.167 643.5,306.5C 641.973,306.427 640.973,307.094 640.5,308.5C 638.973,308.427 637.973,309.094 637.5,310.5C 635.833,311.167 634.167,311.833 632.5,312.5C 630.973,312.427 629.973,313.094 629.5,314.5C 627.5,315.5 625.5,316.5 623.5,317.5C 621.596,317.738 620.262,318.738 619.5,320.5C 606.762,326.37 594.429,333.037 582.5,340.5C 580.973,340.427 579.973,341.094 579.5,342.5C 578.609,343.11 577.609,343.443 576.5,343.5C 574.973,343.427 573.973,344.094 573.5,345.5C 571.517,346.471 569.517,347.471 567.5,348.5C 565.973,348.427 564.973,349.094 564.5,350.5C 560.882,351.803 557.549,353.47 554.5,355.5C 549.278,356.387 544.278,357.721 539.5,359.5C 531.826,359.666 524.159,359.5 516.5,359C 511.182,358.641 506.182,357.474 501.5,355.5C 499.898,353.926 497.898,353.259 495.5,353.5C 495.158,352.662 494.492,352.328 493.5,352.5C 493.027,351.094 492.027,350.427 490.5,350.5C 490.167,350.5 489.833,350.5 489.5,350.5C 489.027,349.094 488.027,348.427 486.5,348.5C 486.027,347.094 485.027,346.427 483.5,346.5C 483.027,345.094 482.027,344.427 480.5,344.5C 479.167,343.5 477.833,342.5 476.5,341.5C 476.5,339.5 475.5,338.5 473.5,338.5C 464.002,329.361 457.669,318.361 454.5,305.5C 453.293,295.681 453.293,286.015 454.5,276.5C 458.034,278.766 461.7,280.766 465.5,282.5C 465.973,283.906 466.973,284.573 468.5,284.5C 469.391,285.11 470.391,285.443 471.5,285.5C 471.973,286.906 472.973,287.573 474.5,287.5C 476.849,289.341 479.515,290.674 482.5,291.5C 482.973,292.906 483.973,293.573 485.5,293.5C 501.268,302.182 516.935,310.849 532.5,319.5C 532.973,320.906 533.973,321.573 535.5,321.5C 538.779,322.492 542.112,322.659 545.5,322C 551.22,319.14 556.886,316.307 562.5,313.5C 564.848,313.408 566.514,312.408 567.5,310.5C 568.514,309.326 569.847,308.66 571.5,308.5C 573.027,308.573 574.027,307.906 574.5,306.5C 576.883,304.642 579.55,303.308 582.5,302.5C 584.027,302.573 585.027,301.906 585.5,300.5C 586.514,299.326 587.847,298.66 589.5,298.5C 591.027,298.573 592.027,297.906 592.5,296.5C 594.216,294.975 596.216,293.975 598.5,293.5C 600.027,293.573 601.027,292.906 601.5,291.5C 603.938,289.733 606.605,288.399 609.5,287.5C 611.848,287.408 613.514,286.408 614.5,284.5C 615.514,283.326 616.847,282.66 618.5,282.5C 620.848,282.408 622.514,281.408 623.5,279.5C 625.181,277.992 627.181,276.992 629.5,276.5C 631.027,276.573 632.027,275.906 632.5,274.5C 636.007,272.246 639.673,270.246 643.5,268.5 Z"/></g>
<g><path style="opacity:1" fill="#898989" d="M 494.5,269.5 C 496.404,269.738 497.738,270.738 498.5,272.5C 496.596,272.262 495.262,271.262 494.5,269.5 Z"/></g>
<g><path style="opacity:0.427" fill="#7b7b7b" d="M 427.5,267.5 C 428.491,270.244 428.157,272.911 426.5,275.5C 426.401,272.763 426.735,270.096 427.5,267.5 Z"/></g>
<g><path style="opacity:1" fill="#9b9b9b" d="M 643.5,268.5 C 644.209,267.596 645.209,267.263 646.5,267.5C 646.829,280.344 646.495,293.011 645.5,305.5C 646.146,292.788 645.48,280.455 643.5,268.5 Z"/></g>
<g><path style="opacity:1" fill="#949494" d="M 501.5,273.5 C 503.027,273.427 504.027,274.094 504.5,275.5C 502.973,275.573 501.973,274.906 501.5,273.5 Z"/></g>
<g><path style="opacity:1" fill="#a4a4a4" d="M 632.5,274.5 C 632.027,275.906 631.027,276.573 629.5,276.5C 629.973,275.094 630.973,274.427 632.5,274.5 Z"/></g>
<g><path style="opacity:1" fill="#a3a3a3" d="M 771.5,272.5 C 771.771,274.38 771.104,275.713 769.5,276.5C 769.66,274.847 770.326,273.514 771.5,272.5 Z"/></g>
<g><path style="opacity:1" fill="#9f9f9f" d="M 506.5,276.5 C 509.546,276.725 511.879,278.058 513.5,280.5C 510.9,279.532 508.566,278.199 506.5,276.5 Z"/></g>
<g><path style="opacity:1" fill="#a8a8a8" d="M 579.5,278.5 C 581.027,278.427 582.027,279.094 582.5,280.5C 580.973,280.573 579.973,279.906 579.5,278.5 Z"/></g>
<g><path style="opacity:1" fill="#c6c6c6" d="M 454.5,276.5 C 453.293,286.015 453.293,295.681 454.5,305.5C 450.985,295.726 450.652,285.726 453.5,275.5C 454.107,275.624 454.44,275.957 454.5,276.5 Z"/></g>
<g><path style="opacity:1" fill="#adadad" d="M 623.5,279.5 C 622.514,281.408 620.848,282.408 618.5,282.5C 619.659,280.75 621.326,279.75 623.5,279.5 Z"/></g>
<g><path style="opacity:0.31" fill="#898989" d="M 798.5,236.5 C 799.268,237.263 799.768,238.263 800,239.5C 801.571,254.476 800.238,269.142 796,283.5C 793.91,287.981 791.743,292.314 789.5,296.5C 797.709,277.252 800.709,257.252 798.5,236.5 Z"/></g>
<g><path style="opacity:1" fill="#a8a8a8" d="M 465.5,282.5 C 467.027,282.427 468.027,283.094 468.5,284.5C 466.973,284.573 465.973,283.906 465.5,282.5 Z"/></g>
<g><path style="opacity:1" fill="#969696" d="M 521.5,284.5 C 523.027,284.427 524.027,285.094 524.5,286.5C 522.973,286.573 521.973,285.906 521.5,284.5 Z"/></g>
<g><path style="opacity:1" fill="#808080" d="M 471.5,285.5 C 473.027,285.427 474.027,286.094 474.5,287.5C 472.973,287.573 471.973,286.906 471.5,285.5 Z"/></g>
<g><path style="opacity:1" fill="#b0b0b0" d="M 614.5,284.5 C 613.514,286.408 611.848,287.408 609.5,287.5C 610.659,285.75 612.326,284.75 614.5,284.5 Z"/></g>
<g><path style="opacity:1" fill="#a8a8a8" d="M 525.5,286.5 C 527.027,286.427 528.027,287.094 528.5,288.5C 526.973,288.573 525.973,287.906 525.5,286.5 Z"/></g>
<g><path style="opacity:0.427" fill="#888888" d="M 426.5,276.5 C 426.5,284.5 426.5,292.5 426.5,300.5C 425.784,298.444 425.117,296.277 424.5,294C 424.888,289.807 424.888,285.473 424.5,281C 425.099,279.378 425.766,277.878 426.5,276.5 Z"/></g>
<g><path style="opacity:1" fill="#969696" d="M 530.5,289.5 C 532.027,289.427 533.027,290.094 533.5,291.5C 531.973,291.573 530.973,290.906 530.5,289.5 Z"/></g>
<g><path style="opacity:1" fill="#808080" d="M 482.5,291.5 C 484.027,291.427 485.027,292.094 485.5,293.5C 483.973,293.573 482.973,292.906 482.5,291.5 Z"/></g>
<g><path style="opacity:1" fill="#a4a4a4" d="M 601.5,291.5 C 601.027,292.906 600.027,293.573 598.5,293.5C 598.973,292.094 599.973,291.427 601.5,291.5 Z"/></g>
<g><path style="opacity:1" fill="#a4a4a4" d="M 592.5,296.5 C 592.027,297.906 591.027,298.573 589.5,298.5C 589.973,297.094 590.973,296.427 592.5,296.5 Z"/></g>
<g><path style="opacity:1" fill="#a8a8a8" d="M 545.5,297.5 C 547.027,297.427 548.027,298.094 548.5,299.5C 546.973,299.573 545.973,298.906 545.5,297.5 Z"/></g>
<g><path style="opacity:1" fill="#a8a8a8" d="M 585.5,300.5 C 585.027,301.906 584.027,302.573 582.5,302.5C 582.973,301.094 583.973,300.427 585.5,300.5 Z"/></g>
<g><path style="opacity:0.067" fill="#949494" d="M 787.5,299.5 C 787.771,301.38 787.104,302.713 785.5,303.5C 785.66,301.847 786.326,300.514 787.5,299.5 Z"/></g>
<g><path style="opacity:0.067" fill="#888888" d="M 785.5,303.5 C 784.89,305.434 783.89,307.101 782.5,308.5C 782.273,306.067 783.273,304.401 785.5,303.5 Z"/></g>
<g><path style="opacity:0.427" fill="#828282" d="M 426.5,300.5 C 428.296,306.679 429.963,313.013 431.5,319.5C 430.034,318.653 429.2,317.32 429,315.5C 427.584,310.588 426.751,305.588 426.5,300.5 Z"/></g>
<g><path style="opacity:1" fill="#a4a4a4" d="M 574.5,306.5 C 574.027,307.906 573.027,308.573 571.5,308.5C 571.973,307.094 572.973,306.427 574.5,306.5 Z"/></g>
<g><path style="opacity:1" fill="#979797" d="M 643.5,306.5 C 643.027,307.906 642.027,308.573 640.5,308.5C 640.973,307.094 641.973,306.427 643.5,306.5 Z"/></g>
<g><path style="opacity:1" fill="#6e6e6e" d="M 640.5,308.5 C 640.027,309.906 639.027,310.573 637.5,310.5C 637.973,309.094 638.973,308.427 640.5,308.5 Z"/></g>
<g><path style="opacity:1" fill="#b1b1b1" d="M 567.5,310.5 C 566.514,312.408 564.848,313.408 562.5,313.5C 563.659,311.75 565.326,310.75 567.5,310.5 Z"/></g>
<g><path style="opacity:1" fill="#979797" d="M 632.5,312.5 C 632.027,313.906 631.027,314.573 629.5,314.5C 629.973,313.094 630.973,312.427 632.5,312.5 Z"/></g>
<g><path style="opacity:0.067" fill="#838383" d="M 779.5,312.5 C 777.727,315.06 775.727,317.393 773.5,319.5C 774.348,316.112 776.348,313.779 779.5,312.5 Z"/></g>
<g><path style="opacity:1" fill="#878787" d="M 623.5,317.5 C 622.738,319.262 621.404,320.262 619.5,320.5C 620.262,318.738 621.596,317.738 623.5,317.5 Z"/></g>
<g><path style="opacity:1" fill="#848484" d="M 732.5,317.5 C 730.967,319.245 728.967,320.245 726.5,320.5C 728.033,318.755 730.033,317.755 732.5,317.5 Z"/></g>
<g><path style="opacity:1" fill="#a8a8a8" d="M 532.5,319.5 C 534.027,319.427 535.027,320.094 535.5,321.5C 533.973,321.573 532.973,320.906 532.5,319.5 Z"/></g>
<g><path style="opacity:0.067" fill="#878787" d="M 772.5,320.5 C 771.089,322.914 769.089,324.581 766.5,325.5C 767.865,323.14 769.865,321.473 772.5,320.5 Z"/></g>
<g><path style="opacity:0.067" fill="#8a8a8a" d="M 431.5,319.5 C 432.738,321.214 433.405,323.214 433.5,325.5C 431.926,323.898 431.259,321.898 431.5,319.5 Z"/></g>
<g><path style="opacity:0.067" fill="#909090" d="M 766.5,325.5 C 765.833,326.833 764.833,327.833 763.5,328.5C 763.5,326.5 764.5,325.5 766.5,325.5 Z"/></g>
<g><path style="opacity:1" fill="#979797" d="M 648.5,332.5 C 648.027,333.906 647.027,334.573 645.5,334.5C 645.973,333.094 646.973,332.427 648.5,332.5 Z"/></g>
<g><path style="opacity:0.243" fill="#757575" d="M 763.5,328.5 C 759.394,332.254 754.727,335.254 749.5,337.5C 749.937,335.926 750.937,334.759 752.5,334C 755.952,331.607 759.619,329.774 763.5,328.5 Z"/></g>
<g><path style="opacity:1" fill="#a4a4a4" d="M 641.5,336.5 C 641.027,337.906 640.027,338.573 638.5,338.5C 638.973,337.094 639.973,336.427 641.5,336.5 Z"/></g>
<g><path style="opacity:0.243" fill="#797979" d="M 436.5,331.5 C 439.667,335.003 442,339.003 443.5,343.5C 440.161,340.165 437.828,336.165 436.5,331.5 Z"/></g>
<g><path style="opacity:1" fill="#a5a5a5" d="M 473.5,338.5 C 475.5,338.5 476.5,339.5 476.5,341.5C 475.167,340.833 474.167,339.833 473.5,338.5 Z"/></g>
<g><path style="opacity:0.067" fill="#777777" d="M 747.5,338.5 C 745.151,340.341 742.485,341.674 739.5,342.5C 739.414,341.504 739.748,340.671 740.5,340C 742.813,339.338 745.146,338.838 747.5,338.5 Z"/></g>
<g><path style="opacity:1" fill="#7c7c7c" d="M 582.5,340.5 C 582.027,341.906 581.027,342.573 579.5,342.5C 579.973,341.094 580.973,340.427 582.5,340.5 Z"/></g>
<g><path style="opacity:1" fill="#a4a4a4" d="M 632.5,341.5 C 632.027,342.906 631.027,343.573 629.5,343.5C 629.973,342.094 630.973,341.427 632.5,341.5 Z"/></g>
<g><path style="opacity:0.457" fill="#737373" d="M 739.5,342.5 C 737.786,343.738 735.786,344.405 733.5,344.5C 734.918,342.692 736.918,342.025 739.5,342.5 Z"/></g>
<g><path style="opacity:1" fill="#979797" d="M 576.5,343.5 C 576.027,344.906 575.027,345.573 573.5,345.5C 573.973,344.094 574.973,343.427 576.5,343.5 Z"/></g>
<g><path style="opacity:1" fill="#a5a5a5" d="M 480.5,344.5 C 482.027,344.427 483.027,345.094 483.5,346.5C 481.973,346.573 480.973,345.906 480.5,344.5 Z"/></g>
<g><path style="opacity:0.067" fill="#818181" d="M 733.5,344.5 C 730.094,346.109 726.427,347.276 722.5,348C 720.65,348.69 719.316,349.856 718.5,351.5C 718.297,349.61 718.963,348.11 720.5,347C 724.782,345.843 729.116,345.01 733.5,344.5 Z"/></g>
<g><path style="opacity:1" fill="#a5a5a5" d="M 483.5,346.5 C 485.027,346.427 486.027,347.094 486.5,348.5C 484.973,348.573 483.973,347.906 483.5,346.5 Z"/></g>
<g><path style="opacity:1" fill="#adadad" d="M 623.5,346.5 C 622.514,348.408 620.848,349.408 618.5,349.5C 619.659,347.75 621.326,346.75 623.5,346.5 Z"/></g>
<g><path style="opacity:1" fill="#949494" d="M 486.5,348.5 C 488.027,348.427 489.027,349.094 489.5,350.5C 487.973,350.573 486.973,349.906 486.5,348.5 Z"/></g>
<g><path style="opacity:1" fill="#979797" d="M 567.5,348.5 C 567.027,349.906 566.027,350.573 564.5,350.5C 564.973,349.094 565.973,348.427 567.5,348.5 Z"/></g>
<g><path style="opacity:0.427" fill="#858585" d="M 443.5,343.5 C 449.089,349.427 454.756,355.427 460.5,361.5C 453.475,356.808 447.809,350.808 443.5,343.5 Z"/></g>
<g><path style="opacity:1" fill="#888888" d="M 617.5,349.5 C 617.027,350.906 616.027,351.573 614.5,351.5C 614.973,350.094 615.973,349.427 617.5,349.5 Z"/></g>
<g><path style="opacity:1" fill="#a8a8a8" d="M 490.5,350.5 C 492.027,350.427 493.027,351.094 493.5,352.5C 491.973,352.573 490.973,351.906 490.5,350.5 Z"/></g>
<g><path style="opacity:1" fill="#b2b2b2" d="M 495.5,353.5 C 497.898,353.259 499.898,353.926 501.5,355.5C 499.102,355.741 497.102,355.074 495.5,353.5 Z"/></g>
<g><path style="opacity:1" fill="#adadad" d="M 614.5,351.5 C 613.514,353.408 611.848,354.408 609.5,354.5C 610.659,352.75 612.326,351.75 614.5,351.5 Z"/></g>
<g><path style="opacity:0.067" fill="#909090" d="M 718.5,351.5 C 718.598,353.553 717.931,355.22 716.5,356.5C 716.402,354.447 717.069,352.78 718.5,351.5 Z"/></g>
<g><path style="opacity:1" fill="#6a6a6a" d="M 554.5,355.5 C 549.888,357.905 544.888,359.238 539.5,359.5C 544.278,357.721 549.278,356.387 554.5,355.5 Z"/></g>
<g><path style="opacity:0.427" fill="#7e7e7e" d="M 715.5,358.5 C 715.008,360.819 714.008,362.819 712.5,364.5C 712.461,361.911 713.461,359.911 715.5,358.5 Z"/></g>
<g><path style="opacity:0.812" fill="#6e6e6e" d="M 460.5,361.5 C 463.93,362.542 466.597,364.542 468.5,367.5C 465.109,366.471 462.443,364.471 460.5,361.5 Z"/></g>
<g><path style="opacity:0.067" fill="#909090" d="M 712.5,364.5 C 712.573,366.027 711.906,367.027 710.5,367.5C 710.427,365.973 711.094,364.973 712.5,364.5 Z"/></g>
<g><path style="opacity:0.31" fill="#858585" d="M 468.5,367.5 C 470.973,367.088 472.306,368.088 472.5,370.5C 470.77,369.974 469.436,368.974 468.5,367.5 Z"/></g>
<g><path style="opacity:1" fill="#a8a8a8" d="M 585.5,367.5 C 585.027,368.906 584.027,369.573 582.5,369.5C 582.973,368.094 583.973,367.427 585.5,367.5 Z"/></g>
<g><path style="opacity:0.243" fill="#7d7d7d" d="M 710.5,367.5 C 709.277,371.049 707.277,374.049 704.5,376.5C 705.759,372.975 707.759,369.975 710.5,367.5 Z"/></g>
<g><path style="opacity:0.545" fill="#6f6f6f" d="M 472.5,370.5 C 479.56,372.199 485.893,375.199 491.5,379.5C 484.673,377.451 478.339,374.451 472.5,370.5 Z"/></g>
<g><path style="opacity:0.812" fill="#767676" d="M 494.5,380.5 C 498.428,379.976 501.761,380.976 504.5,383.5C 500.952,382.87 497.619,381.87 494.5,380.5 Z"/></g>
<g><path style="opacity:1" fill="#9a9a9a" d="M 584.5,379.5 C 586.027,379.427 587.027,380.094 587.5,381.5C 585.973,381.573 584.973,380.906 584.5,379.5 Z"/></g>
<g><path style="opacity:0.157" fill="#9d9d9d" d="M 509.5,384.5 C 509.565,384.938 509.399,385.272 509,385.5C 508.005,384.934 507.172,384.267 506.5,383.5C 506.435,383.062 506.601,382.728 507,382.5C 507.995,383.066 508.828,383.733 509.5,384.5 Z"/></g>
<g><path style="opacity:0.729" fill="#6d6d6d" d="M 527.5,385.5 C 527.265,386.097 526.765,386.43 526,386.5C 521.02,385.907 516.186,385.24 511.5,384.5C 516.934,383.024 522.268,383.357 527.5,385.5 Z"/></g>
<g><path style="opacity:0.243" fill="#6d6d6d" d="M 548.5,384.5 C 547.883,384.389 547.383,384.056 547,383.5C 540.869,385.623 534.703,386.289 528.5,385.5C 533.9,383.845 539.567,382.845 545.5,382.5C 547.03,382.64 548.03,383.307 548.5,384.5 Z"/></g>
<g><path style="opacity:1" fill="#878787" d="M 655.5,383.5 C 654.07,384.537 652.403,385.204 650.5,385.5C 651.635,383.787 653.302,383.12 655.5,383.5 Z"/></g>
<g><path style="opacity:0.067" fill="#909090" d="M 699.5,382.5 C 698.833,385.167 697.167,386.833 694.5,387.5C 695.833,385.5 697.5,383.833 699.5,382.5 Z"/></g>
<g><path style="opacity:1" fill="#7c7c7c" d="M 602.5,387.5 C 605.152,387.41 607.485,388.076 609.5,389.5C 606.848,389.59 604.515,388.924 602.5,387.5 Z"/></g>
<g><path style="opacity:0.067" fill="#787878" d="M 548.5,384.5 C 549.552,384.351 550.552,384.517 551.5,385C 556.113,389.966 561.113,394.466 566.5,398.5C 559.367,395.269 553.367,390.603 548.5,384.5 Z"/></g>
<g><path style="opacity:0.067" fill="#898989" d="M 692.5,389.5 C 690.766,392.2 688.432,394.2 685.5,395.5C 685.414,394.504 685.748,393.671 686.5,393C 688.405,391.579 690.405,390.412 692.5,389.5 Z"/></g>
<g><path style="opacity:0.067" fill="#8a8a8a" d="M 685.5,395.5 C 684.101,396.89 682.434,397.89 680.5,398.5C 681.401,396.273 683.067,395.273 685.5,395.5 Z"/></g>
<g><path style="opacity:0.067" fill="#818181" d="M 566.5,398.5 C 568.973,398.088 570.306,399.088 570.5,401.5C 568.596,401.262 567.262,400.262 566.5,398.5 Z"/></g>
<g><path style="opacity:0.541" fill="#7b7b7b" d="M 573.5,402.5 C 576.331,403.079 578.664,404.412 580.5,406.5C 577.674,406.002 575.34,404.669 573.5,402.5 Z"/></g>
<g><path style="opacity:0.067" fill="#7c7c7c" d="M 680.5,398.5 C 672.485,404.672 663.485,409.006 653.5,411.5C 653.953,410.542 654.619,409.708 655.5,409C 664.1,406.03 672.433,402.53 680.5,398.5 Z"/></g>
<g><path style="opacity:0.659" fill="#797979" d="M 580.5,406.5 C 586.804,407.902 592.804,409.902 598.5,412.5C 592.018,411.718 586.018,409.718 580.5,406.5 Z"/></g>
<g><path style="opacity:0.243" fill="#818181" d="M 598.5,412.5 C 606.644,413.372 614.811,414.039 623,414.5C 631.524,414.064 640.024,413.397 648.5,412.5C 642.813,414.058 636.98,415.392 631,416.5C 626.531,416.234 622.198,416.234 618,416.5C 611.295,415.747 604.795,414.413 598.5,412.5 Z"/></g>
<g><path style="opacity:0.541" fill="#777777" d="M 342.5,457.5 C 342.44,458.043 342.107,458.376 341.5,458.5C 320.656,448.407 298.99,446.74 276.5,453.5C 275.893,453.376 275.56,453.043 275.5,452.5C 296.738,445.254 318.071,446.087 339.5,455C 340.571,455.852 341.571,456.685 342.5,457.5 Z"/></g>
<g><path style="opacity:0.999" fill="#333333" d="M 342.5,457.5 C 342.833,457.5 343.167,457.5 343.5,457.5C 343.821,459.048 344.821,459.715 346.5,459.5C 349.866,463.527 353.866,466.86 358.5,469.5C 359.08,471.749 360.413,473.415 362.5,474.5C 365.323,475.992 366.99,478.326 367.5,481.5C 368.326,484.485 369.659,487.151 371.5,489.5C 372.537,490.93 373.204,492.597 373.5,494.5C 373.595,496.786 374.262,498.786 375.5,500.5C 375.338,502.527 375.505,504.527 376,506.5C 376.383,507.056 376.883,507.389 377.5,507.5C 378.712,517.652 378.712,527.652 377.5,537.5C 375.933,543.663 374.599,549.996 373.5,556.5C 371.137,560.551 369.137,564.885 367.5,569.5C 365.75,570.659 364.75,572.326 364.5,574.5C 364.5,575.167 364.167,575.5 363.5,575.5C 361.086,576.911 359.419,578.911 358.5,581.5C 355.19,583.146 352.523,585.48 350.5,588.5C 349.486,589.674 348.153,590.34 346.5,590.5C 343.085,591.195 340.418,592.862 338.5,595.5C 337.833,595.5 337.167,595.5 336.5,595.5C 320.938,601.215 304.938,602.881 288.5,600.5C 287.5,600.5 286.5,600.5 285.5,600.5C 279.644,598.199 273.644,596.199 267.5,594.5C 264.506,592 261.173,590 257.5,588.5C 257.167,588.5 256.833,588.5 256.5,588.5C 255.965,586.554 254.632,585.554 252.5,585.5C 248.124,582.126 244.458,578.126 241.5,573.5C 241.771,571.62 241.104,570.287 239.5,569.5C 238.662,569.158 238.328,568.492 238.5,567.5C 237.048,563.605 235.381,559.938 233.5,556.5C 232.674,552.864 232.008,549.197 231.5,545.5C 231.258,541.521 230.258,537.854 228.5,534.5C 228.5,530.167 228.5,525.833 228.5,521.5C 230.433,512.675 232.099,503.675 233.5,494.5C 233.5,494.167 233.5,493.833 233.5,493.5C 235.659,490.516 237.325,487.183 238.5,483.5C 238.328,482.508 238.662,481.842 239.5,481.5C 241.388,480.06 243.055,478.394 244.5,476.5C 245.386,475.675 245.719,474.675 245.5,473.5C 246.419,470.911 248.086,468.911 250.5,467.5C 253.856,465.802 256.523,463.468 258.5,460.5C 264.325,458.64 269.658,455.974 274.5,452.5C 274.833,452.5 275.167,452.5 275.5,452.5C 275.56,453.043 275.893,453.376 276.5,453.5C 298.99,446.74 320.656,448.407 341.5,458.5C 342.107,458.376 342.44,458.043 342.5,457.5 Z M 326.5,480.5 C 330.141,483.805 333.808,487.138 337.5,490.5C 337.833,491.167 338.167,491.833 338.5,492.5C 339.833,495.833 341.167,499.167 342.5,502.5C 342.833,502.5 343.167,502.5 343.5,502.5C 343.5,502.833 343.5,503.167 343.5,503.5C 346.461,518.595 346.128,533.595 342.5,548.5C 342.5,548.833 342.5,549.167 342.5,549.5C 340.659,551.849 339.326,554.515 338.5,557.5C 337.662,557.842 337.328,558.508 337.5,559.5C 335.14,560.865 333.473,562.865 332.5,565.5C 328.656,567.587 324.989,569.92 321.5,572.5C 320.833,572.5 320.167,572.5 319.5,572.5C 307.87,576.284 296.203,575.95 284.5,571.5C 283.395,570.4 282.062,569.733 280.5,569.5C 279.738,567.738 278.404,566.738 276.5,566.5C 276.5,565.167 275.833,564.5 274.5,564.5C 273.833,563.167 272.833,562.167 271.5,561.5C 270.551,559.223 269.218,557.223 267.5,555.5C 266.925,552.088 265.592,549.088 263.5,546.5C 263.5,545.833 263.5,545.167 263.5,544.5C 261.391,533.882 261.058,523.215 262.5,512.5C 262.5,512.167 262.5,511.833 262.5,511.5C 262.833,508.833 263.167,506.167 263.5,503.5C 265.592,500.912 266.925,497.912 267.5,494.5C 268.488,493.205 269.488,491.872 270.5,490.5C 271.906,490.027 272.573,489.027 272.5,487.5C 274.911,486.483 276.578,484.816 277.5,482.5C 279.434,481.89 281.101,480.89 282.5,479.5C 282.833,479.5 283.167,479.5 283.5,479.5C 286.984,478.343 290.317,477.01 293.5,475.5C 293.833,475.5 294.167,475.5 294.5,475.5C 305.648,473.998 316.315,475.664 326.5,480.5 Z"/></g>
<g><path style="opacity:0.067" fill="#8a8a8a" d="M 836.5,450.5 C 843.052,449.433 849.052,449.433 854.5,450.5C 848.602,450.592 842.602,450.592 836.5,450.5 Z"/></g>
<g><path style="opacity:0.067" fill="#909090" d="M 960.5,450.5 C 954.163,451.018 947.497,451.351 940.5,451.5C 942.556,450.784 944.723,450.117 947,449.5C 951.482,449.261 955.982,449.594 960.5,450.5 Z"/></g>
<g><path style="opacity:0.157" fill="#9e9e9e" d="M 972.5,451.5 C 968.629,451.815 964.962,451.482 961.5,450.5C 961.435,450.062 961.601,449.728 962,449.5C 965.603,450.135 969.103,450.802 972.5,451.5 Z"/></g>
<g><path style="opacity:0.31" fill="#989898" d="M 836.5,450.5 C 834.5,451.167 832.5,451.833 830.5,452.5C 829.833,453.167 829.167,453.833 828.5,454.5C 828.33,453.178 828.663,452.011 829.5,451C 831.81,450.503 834.143,450.337 836.5,450.5 Z"/></g>
<g><path style="opacity:0.812" fill="#565656" d="M 836.5,450.5 C 842.602,450.592 848.602,450.592 854.5,450.5C 857.518,450.335 860.518,450.502 863.5,451C 864.337,452.011 864.67,453.178 864.5,454.5C 863.711,454.217 863.044,453.717 862.5,453C 851.839,452.5 841.172,452.333 830.5,452.5C 832.5,451.833 834.5,451.167 836.5,450.5 Z"/></g>
<g><path style="opacity:1" fill="#333333" d="M 830.5,452.5 C 841.172,452.333 851.839,452.5 862.5,453C 863.044,453.717 863.711,454.217 864.5,454.5C 865.537,455.93 866.204,457.597 866.5,459.5C 867.267,463.149 868.6,466.482 870.5,469.5C 871.338,469.842 871.672,470.508 871.5,471.5C 871.935,474.157 872.935,476.491 874.5,478.5C 874.402,480.553 875.069,482.22 876.5,483.5C 877.338,483.842 877.672,484.508 877.5,485.5C 877.402,487.553 878.069,489.22 879.5,490.5C 879.402,492.553 880.069,494.22 881.5,495.5C 882.338,495.842 882.672,496.508 882.5,497.5C 882.402,499.553 883.069,501.22 884.5,502.5C 884.552,505.346 885.552,507.68 887.5,509.5C 888.263,513.137 889.597,516.47 891.5,519.5C 891.343,520.873 891.51,522.207 892,523.5C 893.605,526.191 895.105,528.858 896.5,531.5C 896.343,532.873 896.51,534.207 897,535.5C 898.242,537.859 899.742,539.859 901.5,541.5C 901.833,542.833 902.167,544.167 902.5,545.5C 903.263,549.137 904.597,552.47 906.5,555.5C 906.229,557.38 906.896,558.713 908.5,559.5C 908.882,563.332 910.215,566.665 912.5,569.5C 913.72,574.831 915.72,579.831 918.5,584.5C 918.935,587.157 919.935,589.491 921.5,591.5C 921.229,593.38 921.896,594.713 923.5,595.5C 923.5,595.833 923.5,596.167 923.5,596.5C 919.555,597.825 915.222,598.492 910.5,598.5C 903.819,598.32 897.153,597.987 890.5,597.5C 890.598,595.447 889.931,593.78 888.5,592.5C 887.607,589.18 886.273,586.18 884.5,583.5C 884.88,581.302 884.213,579.635 882.5,578.5C 881.724,573.672 880.057,569.172 877.5,565C 856.825,564.167 836.159,564.334 815.5,565.5C 814.873,566.417 814.539,567.417 814.5,568.5C 814.737,569.791 814.404,570.791 813.5,571.5C 811.6,574.518 810.267,577.851 809.5,581.5C 809.5,581.833 809.5,582.167 809.5,582.5C 807.081,586.064 805.414,590.064 804.5,594.5C 804.737,595.791 804.404,596.791 803.5,597.5C 792.865,598.404 782.198,598.737 771.5,598.5C 771.963,595.779 772.629,593.112 773.5,590.5C 773.402,588.447 774.069,586.78 775.5,585.5C 779.639,577.546 782.972,569.213 785.5,560.5C 785.5,560.167 785.5,559.833 785.5,559.5C 787.607,556.943 788.941,553.943 789.5,550.5C 791.919,546.936 793.586,542.936 794.5,538.5C 794.557,537.391 794.89,536.391 795.5,535.5C 797.584,532.947 798.917,529.947 799.5,526.5C 799.402,524.447 800.069,522.78 801.5,521.5C 803.267,519.208 804.267,516.542 804.5,513.5C 804.66,511.847 805.326,510.514 806.5,509.5C 808.752,505.414 810.418,501.081 811.5,496.5C 813.204,493.744 814.537,490.744 815.5,487.5C 815.5,487.167 815.5,486.833 815.5,486.5C 818.068,482.144 820.068,477.478 821.5,472.5C 821.5,472.167 821.5,471.833 821.5,471.5C 823.785,468.665 825.118,465.332 825.5,461.5C 826.264,458.982 827.264,456.649 828.5,454.5C 829.167,453.833 829.833,453.167 830.5,452.5 Z M 845.5,487.5 C 846.5,488.833 847.5,490.167 848.5,491.5C 848.503,494.675 849.503,497.508 851.5,500C 850.288,501.107 850.621,501.607 852.5,501.5C 853.023,504.89 853.857,508.223 855,511.5C 855.377,512.942 856.21,513.942 857.5,514.5C 857.5,514.833 857.5,515.167 857.5,515.5C 858.267,519.149 859.6,522.482 861.5,525.5C 861.328,526.492 861.662,527.158 862.5,527.5C 863.707,531.786 864.707,536.12 865.5,540.5C 852.675,539.206 840.008,539.206 827.5,540.5C 827.389,539.883 827.056,539.383 826.5,539C 828.208,535.707 829.208,532.207 829.5,528.5C 830.338,528.158 830.672,527.492 830.5,526.5C 833.12,522.657 834.787,518.324 835.5,513.5C 837.213,512.365 837.88,510.698 837.5,508.5C 839.074,506.898 839.741,504.898 839.5,502.5C 840.338,502.158 840.672,501.492 840.5,500.5C 842.885,497.347 844.218,493.68 844.5,489.5C 845.338,489.158 845.672,488.492 845.5,487.5 Z"/></g>
<g><path style="opacity:0.999" fill="#323232" d="M 940.5,597.5 C 940.5,560.833 940.5,524.167 940.5,487.5C 941.495,476.012 941.828,464.345 941.5,452.5C 951.167,452.5 960.833,452.5 970.5,452.5C 970.5,501.167 970.5,549.833 970.5,598.5C 960.228,598.688 950.228,598.354 940.5,597.5 Z"/></g>
<g><path style="opacity:0.545" fill="#6f6f6f" d="M 274.5,452.5 C 269.658,455.974 264.325,458.64 258.5,460.5C 263.132,456.56 268.465,453.893 274.5,452.5 Z"/></g>
<g><path style="opacity:0.427" fill="#828282" d="M 343.5,457.5 C 344.71,457.932 345.71,458.599 346.5,459.5C 344.821,459.715 343.821,459.048 343.5,457.5 Z"/></g>
<g><path style="opacity:0.659" fill="#797979" d="M 258.5,460.5 C 256.523,463.468 253.856,465.802 250.5,467.5C 252.477,464.532 255.144,462.198 258.5,460.5 Z"/></g>
<g><path style="opacity:0.31" fill="#8e8e8e" d="M 866.5,459.5 C 868.785,462.335 870.118,465.668 870.5,469.5C 868.6,466.482 867.267,463.149 866.5,459.5 Z"/></g>
<g><path style="opacity:0.545" fill="#676767" d="M 346.5,459.5 C 351.279,461.891 355.279,465.224 358.5,469.5C 353.866,466.86 349.866,463.527 346.5,459.5 Z"/></g>
<g><path style="opacity:0.427" fill="#848484" d="M 825.5,461.5 C 825.118,465.332 823.785,468.665 821.5,471.5C 822.267,467.851 823.6,464.518 825.5,461.5 Z"/></g>
<g><path style="opacity:1" fill="#4e4e4e" d="M 960.5,450.5 C 960.833,450.5 961.167,450.5 961.5,450.5C 964.962,451.482 968.629,451.815 972.5,451.5C 972.5,500.833 972.5,550.167 972.5,599.5C 961.448,600.143 950.781,599.476 940.5,597.5C 950.228,598.354 960.228,598.688 970.5,598.5C 970.5,549.833 970.5,501.167 970.5,452.5C 960.833,452.5 951.167,452.5 941.5,452.5C 941.828,464.345 941.495,476.012 940.5,487.5C 940.5,485.167 940.5,482.833 940.5,480.5C 940.085,470.789 940.085,461.122 940.5,451.5C 947.497,451.351 954.163,451.018 960.5,450.5 Z"/></g>
<g><path style="opacity:0.541" fill="#777777" d="M 358.5,469.5 C 360.587,470.585 361.92,472.251 362.5,474.5C 360.413,473.415 359.08,471.749 358.5,469.5 Z"/></g>
<g><path style="opacity:0.067" fill="#969696" d="M 871.5,471.5 C 873.448,473.32 874.448,475.654 874.5,478.5C 872.935,476.491 871.935,474.157 871.5,471.5 Z"/></g>
<g><path style="opacity:0.067" fill="#808080" d="M 326.5,480.5 C 316.315,475.664 305.648,473.998 294.5,475.5C 296.743,474.188 299.41,473.522 302.5,473.5C 310.083,473.729 317.416,475.229 324.5,478C 325.756,478.417 326.423,479.25 326.5,480.5 Z"/></g>
<g><path style="opacity:0.067" fill="#959595" d="M 293.5,475.5 C 290.317,477.01 286.984,478.343 283.5,479.5C 286.113,476.84 289.446,475.507 293.5,475.5 Z"/></g>
<g><path style="opacity:0.729" fill="#676767" d="M 245.5,473.5 C 245.719,474.675 245.386,475.675 244.5,476.5C 243.055,478.394 241.388,480.06 239.5,481.5C 240.353,477.98 242.353,475.313 245.5,473.5 Z"/></g>
<g><path style="opacity:0.427" fill="#838383" d="M 821.5,472.5 C 820.068,477.478 818.068,482.144 815.5,486.5C 816.489,482.027 818.156,477.861 820.5,474C 819.288,472.893 819.621,472.393 821.5,472.5 Z"/></g>
<g><path style="opacity:0.067" fill="#8b8b8b" d="M 874.5,478.5 C 875.931,479.78 876.598,481.447 876.5,483.5C 875.069,482.22 874.402,480.553 874.5,478.5 Z"/></g>
<g><path style="opacity:0.067" fill="#838383" d="M 282.5,479.5 C 281.101,480.89 279.434,481.89 277.5,482.5C 278.401,480.273 280.067,479.273 282.5,479.5 Z"/></g>
<g><path style="opacity:0.541" fill="#808080" d="M 326.5,480.5 C 331.408,482.406 335.075,485.739 337.5,490.5C 333.808,487.138 330.141,483.805 326.5,480.5 Z"/></g>
<g><path style="opacity:0.541" fill="#7d7d7d" d="M 367.5,481.5 C 369.873,483.579 371.206,486.246 371.5,489.5C 369.659,487.151 368.326,484.485 367.5,481.5 Z"/></g>
<g><path style="opacity:0.31" fill="#818181" d="M 238.5,483.5 C 237.325,487.183 235.659,490.516 233.5,493.5C 234.132,489.569 235.799,486.235 238.5,483.5 Z"/></g>
<g><path style="opacity:0.157" fill="#9c9c9c" d="M 877.5,485.5 C 878.931,486.78 879.598,488.447 879.5,490.5C 878.069,489.22 877.402,487.553 877.5,485.5 Z"/></g>
<g><path style="opacity:0.067" fill="#818181" d="M 845.5,487.5 C 846.077,486.227 846.743,486.227 847.5,487.5C 848.246,488.736 848.579,490.07 848.5,491.5C 847.5,490.167 846.5,488.833 845.5,487.5 Z"/></g>
<g><path style="opacity:0.157" fill="#9e9e9e" d="M 940.5,480.5 C 940.5,482.833 940.5,485.167 940.5,487.5C 940.5,524.167 940.5,560.833 940.5,597.5C 939.825,584.765 939.158,571.931 938.5,559C 939.465,539.781 939.465,520.447 938.5,501C 939.15,494.068 939.817,487.234 940.5,480.5 Z"/></g>
<g><path style="opacity:0.067" fill="#8f8f8f" d="M 272.5,487.5 C 272.573,489.027 271.906,490.027 270.5,490.5C 270.427,488.973 271.094,487.973 272.5,487.5 Z"/></g>
<g><path style="opacity:0.541" fill="#757575" d="M 474.5,490.5 C 466.971,490.774 459.638,490.774 452.5,490.5C 459.964,488.245 467.297,488.245 474.5,490.5 Z"/></g>
<g><path style="opacity:0.157" fill="#919191" d="M 815.5,487.5 C 814.537,490.744 813.204,493.744 811.5,496.5C 811.692,492.898 813.026,489.898 815.5,487.5 Z"/></g>
<g><path style="opacity:0.067" fill="#939393" d="M 428.5,492.5 C 425.833,492.5 423.167,492.5 420.5,492.5C 414.5,492.5 408.5,492.5 402.5,492.5C 402.167,492.5 401.833,492.5 401.5,492.5C 401.783,491.711 402.283,491.044 403,490.5C 409.237,490.627 415.403,490.627 421.5,490.5C 423.982,491.067 426.316,491.734 428.5,492.5 Z"/></g>
<g><path style="opacity:0.999" fill="#333333" d="M 451.5,490.5 C 451.833,490.5 452.167,490.5 452.5,490.5C 459.638,490.774 466.971,490.774 474.5,490.5C 474.611,491.117 474.944,491.617 475.5,492C 477.473,492.495 479.473,492.662 481.5,492.5C 483.909,495.217 486.909,497.217 490.5,498.5C 493.965,499.902 496.632,502.236 498.5,505.5C 498.427,507.027 499.094,508.027 500.5,508.5C 501.906,508.973 502.573,509.973 502.5,511.5C 503.93,515.354 505.597,519.021 507.5,522.5C 507.5,522.833 507.5,523.167 507.5,523.5C 507.59,525.696 507.923,527.863 508.5,530C 508.684,531.376 509.351,532.209 510.5,532.5C 510.5,532.833 510.5,533.167 510.5,533.5C 509.605,543.667 508.939,554 508.5,564.5C 507.883,564.611 507.383,564.944 507,565.5C 506.057,568.824 505.224,572.157 504.5,575.5C 504.573,577.027 503.906,578.027 502.5,578.5C 500.255,581.32 498.255,584.32 496.5,587.5C 495.833,588.833 494.833,589.833 493.5,590.5C 490.796,590.67 489.129,592.003 488.5,594.5C 487.167,595.167 485.833,595.833 484.5,596.5C 481.521,597.317 478.521,598.151 475.5,599C 474.944,599.383 474.611,599.883 474.5,600.5C 473.833,600.5 473.167,600.5 472.5,600.5C 466.821,601.673 461.155,601.673 455.5,600.5C 454.5,600.5 453.5,600.5 452.5,600.5C 449.632,598.088 446.299,596.421 442.5,595.5C 441.833,595.5 441.5,595.167 441.5,594.5C 438.872,592.512 436.205,590.512 433.5,588.5C 433.189,587.522 432.522,586.855 431.5,586.5C 430.833,604.329 430.167,621.995 429.5,639.5C 420.5,639.5 411.5,639.5 402.5,639.5C 402.5,590.5 402.5,541.5 402.5,492.5C 408.5,492.5 414.5,492.5 420.5,492.5C 422.607,493.468 424.941,493.802 427.5,493.5C 427.987,498.179 428.653,502.846 429.5,507.5C 431.288,506.717 432.288,505.384 432.5,503.5C 434.167,502.5 435.5,501.167 436.5,499.5C 436.5,498.833 436.833,498.5 437.5,498.5C 440.719,497.931 443.052,496.264 444.5,493.5C 444.833,493.5 445.167,493.5 445.5,493.5C 445.435,493.938 445.601,494.272 446,494.5C 448.167,493.512 450,492.179 451.5,490.5 Z M 470.5,517.5 C 470.5,519.5 471.5,520.5 473.5,520.5C 474.11,522.434 475.11,524.101 476.5,525.5C 476.328,526.492 476.662,527.158 477.5,527.5C 477.389,528.117 477.056,528.617 476.5,529C 478.074,530.826 478.907,532.993 479,535.5C 479.5,542.492 479.666,549.492 479.5,556.5C 478.593,558.657 477.927,560.99 477.5,563.5C 476.263,564.965 475.263,566.632 474.5,568.5C 466.844,578.139 457.177,580.639 445.5,576C 442.29,573.613 439.29,571.113 436.5,568.5C 436.34,566.847 435.674,565.514 434.5,564.5C 432.855,556.896 431.521,549.563 430.5,542.5C 430.5,542.167 430.5,541.833 430.5,541.5C 431.921,536.297 433.254,530.964 434.5,525.5C 435.401,524.71 436.068,523.71 436.5,522.5C 438.262,521.738 439.262,520.404 439.5,518.5C 441.027,518.573 442.027,517.906 442.5,516.5C 451.749,510.896 461.082,511.23 470.5,517.5 Z"/></g>
<g><path style="opacity:0.999" fill="#333333" d="M 616.5,505.5 C 618,509.173 620,512.506 622.5,515.5C 623.658,518.989 624.991,522.322 626.5,525.5C 627.956,531.391 628.623,537.391 628.5,543.5C 628.5,546.5 628.5,549.5 628.5,552.5C 603.994,552.169 579.661,552.502 555.5,553.5C 555.336,556.187 555.503,558.854 556,561.5C 556.353,564.152 557.52,566.152 559.5,567.5C 559.5,567.833 559.5,568.167 559.5,568.5C 559.427,570.027 560.094,571.027 561.5,571.5C 562.5,571.833 563.167,572.5 563.5,573.5C 563.81,575.144 564.81,576.144 566.5,576.5C 566.833,576.5 567.167,576.5 567.5,576.5C 568.655,578.825 570.655,579.992 573.5,580C 577.689,580.812 581.689,580.645 585.5,579.5C 588.393,579.969 590.393,578.969 591.5,576.5C 594.921,575.027 596.921,572.361 597.5,568.5C 598.236,566.771 599.57,565.771 601.5,565.5C 605.351,567.185 609.518,568.185 614,568.5C 615.07,568.472 615.903,568.139 616.5,567.5C 617.167,567.5 617.833,567.5 618.5,567.5C 618.611,568.117 618.944,568.617 619.5,569C 621.81,569.497 624.143,569.663 626.5,569.5C 626.5,570.833 626.5,572.167 626.5,573.5C 626.672,574.492 626.338,575.158 625.5,575.5C 623.992,577.181 622.992,579.181 622.5,581.5C 622.5,582.167 622.167,582.5 621.5,582.5C 620.094,582.973 619.427,583.973 619.5,585.5C 618.167,586.167 617.167,587.167 616.5,588.5C 616.167,589.5 615.5,590.167 614.5,590.5C 611.281,591.069 608.948,592.736 607.5,595.5C 607.167,595.5 606.833,595.5 606.5,595.5C 601.811,596.612 597.478,598.279 593.5,600.5C 592.5,600.5 591.5,600.5 590.5,600.5C 577.136,601.871 564.136,600.204 551.5,595.5C 551.167,595.5 550.833,595.5 550.5,595.5C 548.772,593.123 546.439,591.456 543.5,590.5C 541.833,588.167 539.833,586.167 537.5,584.5C 536.833,584.5 536.5,584.167 536.5,583.5C 536.573,581.973 535.906,580.973 534.5,580.5C 533.921,577.669 532.588,575.336 530.5,573.5C 530.5,573.167 530.5,572.833 530.5,572.5C 528.873,567.988 527.873,563.321 527.5,558.5C 526.708,548.683 526.375,539.017 526.5,529.5C 526.5,529.167 526.5,528.833 526.5,528.5C 528.448,526.68 529.448,524.346 529.5,521.5C 529.328,520.508 529.662,519.842 530.5,519.5C 532.341,517.151 533.674,514.485 534.5,511.5C 535.906,511.027 536.573,510.027 536.5,508.5C 536.5,507.167 537.167,506.5 538.5,506.5C 540.914,505.089 542.581,503.089 543.5,500.5C 545.228,498.774 547.228,497.441 549.5,496.5C 551.179,496.715 552.179,496.048 552.5,494.5C 554.167,493.833 555.833,493.167 557.5,492.5C 579.469,487.025 599.136,491.358 616.5,505.5 Z M 581.5,511.5 C 581.833,511.5 582.167,511.5 582.5,511.5C 586.287,513.228 589.954,515.228 593.5,517.5C 593.5,518.167 593.833,518.5 594.5,518.5C 594.427,520.027 595.094,521.027 596.5,521.5C 598.442,525.939 599.442,530.606 599.5,535.5C 585.163,535.667 570.829,535.5 556.5,535C 557.269,530.797 558.269,526.63 559.5,522.5C 560.338,522.158 560.672,521.492 560.5,520.5C 563.673,517.087 567.34,514.42 571.5,512.5C 575.1,512.667 578.433,512.333 581.5,511.5 Z"/></g>
<g><path style="opacity:0.067" fill="#919191" d="M 688.5,499.5 C 686.212,502.127 683.878,504.794 681.5,507.5C 680.506,502.544 680.173,497.544 680.5,492.5C 671.833,492.5 663.167,492.5 654.5,492.5C 653.833,500.167 653.167,507.833 652.5,515.5C 652.5,507.5 652.5,499.5 652.5,491.5C 661.524,490.499 670.857,490.332 680.5,491C 681.305,495.749 681.805,500.582 682,505.5C 683.385,502.614 685.551,500.614 688.5,499.5 Z"/></g>
<g><path style="opacity:0.999" fill="#323232" d="M 749.5,503.5 C 750.338,503.842 750.672,504.508 750.5,505.5C 750.229,507.38 750.896,508.713 752.5,509.5C 752.603,512.636 753.603,515.302 755.5,517.5C 755.5,519.5 755.5,521.5 755.5,523.5C 754.502,548.328 754.169,573.328 754.5,598.5C 745.167,598.5 735.833,598.5 726.5,598.5C 726.667,576.164 726.5,553.831 726,531.5C 725.722,530.584 725.222,529.918 724.5,529.5C 724.5,528.5 724.5,527.5 724.5,526.5C 725.885,523.715 725.218,521.382 722.5,519.5C 722.5,519.167 722.5,518.833 722.5,518.5C 720.565,514.897 717.565,512.897 713.5,512.5C 712.159,510.88 710.326,509.88 708,509.5C 705.723,510.117 703.556,510.784 701.5,511.5C 698.874,512.422 696.207,513.422 693.5,514.5C 692.702,514.957 692.369,515.624 692.5,516.5C 690.5,516.5 689.5,517.5 689.5,519.5C 688.488,520.872 687.488,522.205 686.5,523.5C 685.069,524.78 684.402,526.447 684.5,528.5C 684.5,528.833 684.5,529.167 684.5,529.5C 683.71,530.609 683.21,531.942 683,533.5C 682.679,554.842 682.179,576.175 681.5,597.5C 672.533,598.383 663.533,598.716 654.5,598.5C 654.5,585.5 654.5,572.5 654.5,559.5C 654.5,537.167 654.5,514.833 654.5,492.5C 663.167,492.5 671.833,492.5 680.5,492.5C 680.173,497.544 680.506,502.544 681.5,507.5C 683.878,504.794 686.212,502.127 688.5,499.5C 692.738,497.381 697.071,495.214 701.5,493C 719.783,487.02 735.783,490.52 749.5,503.5 Z"/></g>
<g><path style="opacity:0.243" fill="#747474" d="M 749.5,503.5 C 735.783,490.52 719.783,487.02 701.5,493C 697.071,495.214 692.738,497.381 688.5,499.5C 691.754,496.529 695.42,494.029 699.5,492C 713.699,487.019 727.699,488.019 741.5,495C 745.07,497.068 747.737,499.901 749.5,503.5 Z"/></g>
<g><path style="opacity:0.659" fill="#797979" d="M 474.5,490.5 C 477.152,490.41 479.485,491.076 481.5,492.5C 479.473,492.662 477.473,492.495 475.5,492C 474.944,491.617 474.611,491.117 474.5,490.5 Z"/></g>
<g><path style="opacity:0.729" fill="#6e6e6e" d="M 616.5,505.5 C 599.136,491.358 579.469,487.025 557.5,492.5C 562.373,490.4 567.54,489.067 573,488.5C 585.163,488.006 596.663,490.839 607.5,497C 611,499.334 614,502.168 616.5,505.5 Z"/></g>
<g><path style="opacity:0.541" fill="#838383" d="M 451.5,490.5 C 450,492.179 448.167,493.512 446,494.5C 445.601,494.272 445.435,493.938 445.5,493.5C 447.181,491.992 449.181,490.992 451.5,490.5 Z"/></g>
<g><path style="opacity:0.31" fill="#8c8c8c" d="M 879.5,490.5 C 880.931,491.78 881.598,493.447 881.5,495.5C 880.069,494.22 879.402,492.553 879.5,490.5 Z"/></g>
<g><path style="opacity:0.457" fill="#545454" d="M 420.5,492.5 C 423.167,492.5 425.833,492.5 428.5,492.5C 429.325,496.647 429.825,500.981 430,505.5C 430.708,504.619 431.542,503.953 432.5,503.5C 432.288,505.384 431.288,506.717 429.5,507.5C 428.653,502.846 427.987,498.179 427.5,493.5C 424.941,493.802 422.607,493.468 420.5,492.5 Z"/></g>
<g><path style="opacity:0.659" fill="#696969" d="M 481.5,492.5 C 485.054,493.769 488.054,495.769 490.5,498.5C 486.909,497.217 483.909,495.217 481.5,492.5 Z"/></g>
<g><path style="opacity:0.541" fill="#898989" d="M 552.5,494.5 C 552.179,496.048 551.179,496.715 549.5,496.5C 550.29,495.599 551.29,494.932 552.5,494.5 Z"/></g>
<g><path style="opacity:0.067" fill="#8f8f8f" d="M 844.5,489.5 C 844.218,493.68 842.885,497.347 840.5,500.5C 841.387,496.581 842.721,492.915 844.5,489.5 Z"/></g>
<g><path style="opacity:0.067" fill="#959595" d="M 373.5,494.5 C 375.074,496.102 375.741,498.102 375.5,500.5C 374.262,498.786 373.595,496.786 373.5,494.5 Z"/></g>
<g><path style="opacity:0.939" fill="#737373" d="M 848.5,491.5 C 850.844,494.369 852.177,497.702 852.5,501.5C 850.621,501.607 850.288,501.107 851.5,500C 849.503,497.508 848.503,494.675 848.5,491.5 Z"/></g>
<g><path style="opacity:0.067" fill="#828282" d="M 338.5,492.5 C 339.376,492.369 340.043,492.702 340.5,493.5C 341.801,496.427 342.801,499.427 343.5,502.5C 343.167,502.5 342.833,502.5 342.5,502.5C 341.167,499.167 339.833,495.833 338.5,492.5 Z"/></g>
<g><path style="opacity:0.541" fill="#848484" d="M 444.5,493.5 C 443.052,496.264 440.719,497.931 437.5,498.5C 439.267,496.11 441.6,494.443 444.5,493.5 Z"/></g>
<g><path style="opacity:0.067" fill="#959595" d="M 267.5,494.5 C 266.925,497.912 265.592,500.912 263.5,503.5C 264.059,500.057 265.393,497.057 267.5,494.5 Z"/></g>
<g><path style="opacity:0.067" fill="#929292" d="M 882.5,497.5 C 883.931,498.78 884.598,500.447 884.5,502.5C 883.069,501.22 882.402,499.553 882.5,497.5 Z"/></g>
<g><path style="opacity:0.31" fill="#8b8b8b" d="M 436.5,499.5 C 435.5,501.167 434.167,502.5 432.5,503.5C 432.833,501.167 434.167,499.833 436.5,499.5 Z"/></g>
<g><path style="opacity:0.243" fill="#767676" d="M 543.5,500.5 C 542.581,503.089 540.914,505.089 538.5,506.5C 539.226,503.712 540.893,501.712 543.5,500.5 Z"/></g>
<g><path style="opacity:0.31" fill="#939393" d="M 375.5,500.5 C 376.407,502.657 377.073,504.99 377.5,507.5C 376.883,507.389 376.383,507.056 376,506.5C 375.505,504.527 375.338,502.527 375.5,500.5 Z"/></g>
<g><path style="opacity:0.31" fill="#878787" d="M 811.5,496.5 C 810.418,501.081 808.752,505.414 806.5,509.5C 807.208,504.694 808.875,500.361 811.5,496.5 Z"/></g>
<g><path style="opacity:0.067" fill="#868686" d="M 839.5,502.5 C 839.741,504.898 839.074,506.898 837.5,508.5C 837.259,506.102 837.926,504.102 839.5,502.5 Z"/></g>
<g><path style="opacity:0.729" fill="#6c6c6c" d="M 233.5,494.5 C 232.099,503.675 230.433,512.675 228.5,521.5C 228.687,512.711 229.854,504.044 232,495.5C 232.383,494.944 232.883,494.611 233.5,494.5 Z"/></g>
<g><path style="opacity:0.31" fill="#929292" d="M 498.5,505.5 C 499.906,505.973 500.573,506.973 500.5,508.5C 499.094,508.027 498.427,507.027 498.5,505.5 Z"/></g>
<g><path style="opacity:0.31" fill="#818181" d="M 616.5,505.5 C 619.502,508.161 621.502,511.495 622.5,515.5C 620,512.506 618,509.173 616.5,505.5 Z"/></g>
<g><path style="opacity:0.427" fill="#7f7f7f" d="M 263.5,503.5 C 263.167,506.167 262.833,508.833 262.5,511.5C 261.083,508.66 261.416,505.993 263.5,503.5 Z"/></g>
<g><path style="opacity:0.427" fill="#828282" d="M 750.5,505.5 C 751.674,506.514 752.34,507.847 752.5,509.5C 750.896,508.713 750.229,507.38 750.5,505.5 Z"/></g>
<g><path style="opacity:0.427" fill="#848484" d="M 884.5,502.5 C 886.065,504.509 887.065,506.843 887.5,509.5C 885.552,507.68 884.552,505.346 884.5,502.5 Z"/></g>
<g><path style="opacity:0.541" fill="#848484" d="M 536.5,508.5 C 536.573,510.027 535.906,511.027 534.5,511.5C 534.427,509.973 535.094,508.973 536.5,508.5 Z"/></g>
<g><path style="opacity:0.369" fill="#757575" d="M 581.5,511.5 C 578.433,512.333 575.1,512.667 571.5,512.5C 573.117,511.028 575.117,510.361 577.5,510.5C 579.045,510.511 580.378,510.844 581.5,511.5 Z"/></g>
<g><path style="opacity:0.545" fill="#606060" d="M 713.5,512.5 C 710.193,511.949 706.86,511.616 703.5,511.5C 702.833,511.5 702.167,511.5 701.5,511.5C 703.556,510.784 705.723,510.117 708,509.5C 710.326,509.88 712.159,510.88 713.5,512.5 Z"/></g>
<g><path style="opacity:0.067" fill="#989898" d="M 837.5,508.5 C 837.88,510.698 837.213,512.365 835.5,513.5C 835.796,511.597 836.463,509.93 837.5,508.5 Z"/></g>
<g><path style="opacity:0.067" fill="#919191" d="M 852.5,501.5 C 854.734,505.522 856.401,509.856 857.5,514.5C 856.21,513.942 855.377,512.942 855,511.5C 853.857,508.223 853.023,504.89 852.5,501.5 Z"/></g>
<g><path style="opacity:0.067" fill="#8f8f8f" d="M 887.5,509.5 C 889.794,512.37 891.128,515.703 891.5,519.5C 889.597,516.47 888.263,513.137 887.5,509.5 Z"/></g>
<g><path style="opacity:0.067" fill="#878787" d="M 701.5,511.5 C 702.167,511.5 702.833,511.5 703.5,511.5C 699.99,513.344 696.323,515.011 692.5,516.5C 692.369,515.624 692.702,514.957 693.5,514.5C 696.207,513.422 698.874,512.422 701.5,511.5 Z"/></g>
<g><path style="opacity:0.067" fill="#8b8b8b" d="M 470.5,517.5 C 461.082,511.23 451.749,510.896 442.5,516.5C 442.577,515.25 443.244,514.417 444.5,514C 451.833,510.667 459.167,510.667 466.5,514C 468.324,514.66 469.657,515.827 470.5,517.5 Z"/></g>
<g><path style="opacity:0.427" fill="#888888" d="M 582.5,511.5 C 587.223,511.693 590.89,513.693 593.5,517.5C 589.954,515.228 586.287,513.228 582.5,511.5 Z"/></g>
<g><path style="opacity:0.659" fill="#5d5d5d" d="M 654.5,492.5 C 654.5,514.833 654.5,537.167 654.5,559.5C 653.833,551.167 653.167,542.833 652.5,534.5C 652.5,528.167 652.5,521.833 652.5,515.5C 653.167,507.833 653.833,500.167 654.5,492.5 Z"/></g>
<g><path style="opacity:0.31" fill="#8b8b8b" d="M 262.5,512.5 C 261.058,523.215 261.391,533.882 263.5,544.5C 261.933,543.319 261.099,541.653 261,539.5C 260.333,530.833 260.333,522.167 261,513.5C 261.383,512.944 261.883,512.611 262.5,512.5 Z"/></g>
<g><path style="opacity:0.243" fill="#818181" d="M 571.5,512.5 C 567.34,514.42 563.673,517.087 560.5,520.5C 562.501,515.656 566.168,512.989 571.5,512.5 Z"/></g>
<g><path style="opacity:0.067" fill="#929292" d="M 713.5,512.5 C 717.565,512.897 720.565,514.897 722.5,518.5C 719.495,516.493 716.495,514.493 713.5,512.5 Z"/></g>
<g><path style="opacity:0.067" fill="#979797" d="M 752.5,509.5 C 754.097,511.848 755.097,514.514 755.5,517.5C 753.603,515.302 752.603,512.636 752.5,509.5 Z"/></g>
<g><path style="opacity:0.31" fill="#7d7d7d" d="M 343.5,503.5 C 345.011,505.476 345.844,507.809 346,510.5C 346.667,520.5 346.667,530.5 346,540.5C 345.678,543.666 344.511,546.333 342.5,548.5C 346.128,533.595 346.461,518.595 343.5,503.5 Z"/></g>
<g><path style="opacity:0.31" fill="#949494" d="M 502.5,511.5 C 505.488,514.481 507.154,518.148 507.5,522.5C 505.597,519.021 503.93,515.354 502.5,511.5 Z"/></g>
<g><path style="opacity:0.067" fill="#919191" d="M 442.5,516.5 C 442.027,517.906 441.027,518.573 439.5,518.5C 439.973,517.094 440.973,516.427 442.5,516.5 Z"/></g>
<g><path style="opacity:0.31" fill="#888888" d="M 534.5,511.5 C 533.674,514.485 532.341,517.151 530.5,519.5C 530.794,516.246 532.127,513.579 534.5,511.5 Z"/></g>
<g><path style="opacity:0.157" fill="#8d8d8d" d="M 622.5,515.5 C 625.181,518.192 626.514,521.525 626.5,525.5C 624.991,522.322 623.658,518.989 622.5,515.5 Z"/></g>
<g><path style="opacity:0.067" fill="#818181" d="M 692.5,516.5 C 691.833,517.833 690.833,518.833 689.5,519.5C 689.5,517.5 690.5,516.5 692.5,516.5 Z"/></g>
<g><path style="opacity:0.067" fill="#959595" d="M 470.5,517.5 C 471.833,518.167 472.833,519.167 473.5,520.5C 471.5,520.5 470.5,519.5 470.5,517.5 Z"/></g>
<g><path style="opacity:0.067" fill="#8b8b8b" d="M 594.5,518.5 C 595.906,518.973 596.573,519.973 596.5,521.5C 595.094,521.027 594.427,520.027 594.5,518.5 Z"/></g>
<g><path style="opacity:0.067" fill="#8d8d8d" d="M 439.5,518.5 C 439.262,520.404 438.262,521.738 436.5,522.5C 436.738,520.596 437.738,519.262 439.5,518.5 Z"/></g>
<g><path style="opacity:0.541" fill="#828282" d="M 804.5,513.5 C 804.267,516.542 803.267,519.208 801.5,521.5C 801.733,518.458 802.733,515.792 804.5,513.5 Z"/></g>
<g><path style="opacity:0.31" fill="#8e8e8e" d="M 857.5,515.5 C 859.785,518.335 861.118,521.668 861.5,525.5C 859.6,522.482 858.267,519.149 857.5,515.5 Z"/></g>
<g><path style="opacity:0.067" fill="#898989" d="M 473.5,520.5 C 475.727,521.401 476.727,523.067 476.5,525.5C 475.11,524.101 474.11,522.434 473.5,520.5 Z"/></g>
<g><path style="opacity:0.157" fill="#8f8f8f" d="M 722.5,519.5 C 725.218,521.382 725.885,523.715 724.5,526.5C 723.833,524.167 723.167,521.833 722.5,519.5 Z"/></g>
<g><path style="opacity:0.157" fill="#999999" d="M 529.5,521.5 C 529.448,524.346 528.448,526.68 526.5,528.5C 526.935,525.843 527.935,523.509 529.5,521.5 Z"/></g>
<g><path style="opacity:0.067" fill="#919191" d="M 835.5,513.5 C 834.787,518.324 833.12,522.657 830.5,526.5C 831.599,521.856 833.266,517.522 835.5,513.5 Z"/></g>
<g><path style="opacity:0.067" fill="#939393" d="M 686.5,523.5 C 686.598,525.553 685.931,527.22 684.5,528.5C 684.402,526.447 685.069,524.78 686.5,523.5 Z"/></g>
<g><path style="opacity:0.659" fill="#6f6f6f" d="M 401.5,492.5 C 401.833,492.5 402.167,492.5 402.5,492.5C 402.5,541.5 402.5,590.5 402.5,639.5C 411.5,639.5 420.5,639.5 429.5,639.5C 429.5,639.833 429.5,640.167 429.5,640.5C 420.651,640.174 411.984,640.507 403.5,641.5C 402.883,641.389 402.383,641.056 402,640.5C 401.667,628.833 401.333,617.167 401,605.5C 400.471,567.001 400.638,529.335 401.5,492.5 Z"/></g>
<g><path style="opacity:0.541" fill="#727272" d="M 596.5,521.5 C 597.75,521.577 598.583,522.244 599,523.5C 599.834,527.002 600.667,530.502 601.5,534C 601.164,535.03 600.497,535.53 599.5,535.5C 599.442,530.606 598.442,525.939 596.5,521.5 Z"/></g>
<g><path style="opacity:0.31" fill="#8d8d8d" d="M 799.5,526.5 C 798.917,529.947 797.584,532.947 795.5,535.5C 796.083,532.053 797.416,529.053 799.5,526.5 Z"/></g>
<g><path style="opacity:0.31" fill="#878787" d="M 891.5,519.5 C 894.237,522.983 895.903,526.983 896.5,531.5C 895.105,528.858 893.605,526.191 892,523.5C 891.51,522.207 891.343,520.873 891.5,519.5 Z"/></g>
<g><path style="opacity:0.541" fill="#7d7d7d" d="M 507.5,523.5 C 509.072,526.215 510.072,529.215 510.5,532.5C 509.351,532.209 508.684,531.376 508.5,530C 507.923,527.863 507.59,525.696 507.5,523.5 Z"/></g>
<g><path style="opacity:0.067" fill="#909090" d="M 434.5,525.5 C 433.254,530.964 431.921,536.297 430.5,541.5C 430.336,538.813 430.503,536.146 431,533.5C 431.322,530.334 432.489,527.667 434.5,525.5 Z"/></g>
<g><path style="opacity:0.243" fill="#6e6e6e" d="M 559.5,522.5 C 558.269,526.63 557.269,530.797 556.5,535C 570.829,535.5 585.163,535.667 599.5,535.5C 597.782,536.224 595.948,536.891 594,537.5C 581.176,536.64 568.342,536.306 555.5,536.5C 555.674,533.126 556.174,529.793 557,526.5C 557.2,524.68 558.034,523.347 559.5,522.5 Z"/></g>
<g><path style="opacity:0.31" fill="#909090" d="M 829.5,528.5 C 829.208,532.207 828.208,535.707 826.5,539C 827.056,539.383 827.389,539.883 827.5,540.5C 826.833,540.5 826.167,540.5 825.5,540.5C 826.261,536.216 827.595,532.216 829.5,528.5 Z"/></g>
<g><path style="opacity:0.067" fill="#8e8e8e" d="M 862.5,527.5 C 864.737,531.534 866.404,535.868 867.5,540.5C 866.833,540.5 866.167,540.5 865.5,540.5C 864.707,536.12 863.707,531.786 862.5,527.5 Z"/></g>
<g><path style="opacity:0.067" fill="#848484" d="M 896.5,531.5 C 898.661,534.489 900.328,537.822 901.5,541.5C 899.742,539.859 898.242,537.859 897,535.5C 896.51,534.207 896.343,532.873 896.5,531.5 Z"/></g>
<g><path style="opacity:0.067" fill="#919191" d="M 626.5,525.5 C 629.49,532.73 630.823,540.397 630.5,548.5C 629.833,546.833 629.167,545.167 628.5,543.5C 628.623,537.391 627.956,531.391 626.5,525.5 Z"/></g>
<g><path style="opacity:0.243" fill="#6a6a6a" d="M 477.5,527.5 C 478.558,528.6 479.392,529.934 480,531.5C 480.823,540.01 480.657,548.344 479.5,556.5C 479.666,549.492 479.5,542.492 479,535.5C 478.907,532.993 478.074,530.826 476.5,529C 477.056,528.617 477.389,528.117 477.5,527.5 Z"/></g>
<g><path style="opacity:0.659" fill="#6e6e6e" d="M 865.5,540.5 C 866.167,540.5 866.833,540.5 867.5,540.5C 853.5,541.833 839.5,541.833 825.5,540.5C 826.167,540.5 826.833,540.5 827.5,540.5C 840.008,539.206 852.675,539.206 865.5,540.5 Z"/></g>
<g><path style="opacity:0.878" fill="#676767" d="M 228.5,534.5 C 230.258,537.854 231.258,541.521 231.5,545.5C 231.167,545.5 230.833,545.5 230.5,545.5C 229.097,542.091 228.43,538.425 228.5,534.5 Z"/></g>
<g><path style="opacity:0.541" fill="#666666" d="M 526.5,529.5 C 526.375,539.017 526.708,548.683 527.5,558.5C 526.833,557.833 526.167,557.167 525.5,556.5C 524.584,548.148 524.917,539.148 526.5,529.5 Z"/></g>
<g><path style="opacity:0.157" fill="#929292" d="M 794.5,538.5 C 793.586,542.936 791.919,546.936 789.5,550.5C 790.414,546.064 792.081,542.064 794.5,538.5 Z"/></g>
<g><path style="opacity:0.659" fill="#7d7d7d" d="M 510.5,533.5 C 512.126,544.111 511.459,554.444 508.5,564.5C 508.939,554 509.605,543.667 510.5,533.5 Z"/></g>
<g><path style="opacity:0.31" fill="#818181" d="M 377.5,537.5 C 377.679,544.281 376.345,550.614 373.5,556.5C 374.599,549.996 375.933,543.663 377.5,537.5 Z"/></g>
<g><path style="opacity:0.067" fill="#909090" d="M 902.5,545.5 C 904.794,548.37 906.128,551.703 906.5,555.5C 904.597,552.47 903.263,549.137 902.5,545.5 Z"/></g>
<g><path style="opacity:0.157" fill="#999999" d="M 230.5,545.5 C 230.833,545.5 231.167,545.5 231.5,545.5C 232.008,549.197 232.674,552.864 233.5,556.5C 232.883,556.389 232.383,556.056 232,555.5C 230.957,552.243 230.457,548.91 230.5,545.5 Z"/></g>
<g><path style="opacity:0.067" fill="#898989" d="M 263.5,546.5 C 265.592,549.088 266.925,552.088 267.5,555.5C 265.393,552.943 264.059,549.943 263.5,546.5 Z"/></g>
<g><path style="opacity:0.067" fill="#898989" d="M 430.5,542.5 C 431.521,549.563 432.855,556.896 434.5,564.5C 433.883,564.389 433.383,564.056 433,563.5C 430.838,556.558 430.005,549.558 430.5,542.5 Z"/></g>
<g><path style="opacity:0.729" fill="#515151" d="M 628.5,543.5 C 629.167,545.167 629.833,546.833 630.5,548.5C 630.5,550.167 630.5,551.833 630.5,553.5C 625.765,554.536 620.765,554.536 615.5,553.5C 595.5,553.5 575.5,553.5 555.5,553.5C 579.661,552.502 603.994,552.169 628.5,552.5C 628.5,549.5 628.5,546.5 628.5,543.5 Z"/></g>
<g><path style="opacity:0.067" fill="#959595" d="M 724.5,529.5 C 725.222,529.918 725.722,530.584 726,531.5C 726.5,553.831 726.667,576.164 726.5,598.5C 726.5,598.833 726.5,599.167 726.5,599.5C 725.766,598.122 725.099,596.622 724.5,595C 724.578,573.14 724.578,551.307 724.5,529.5 Z"/></g>
<g><path style="opacity:0.157" fill="#9f9f9f" d="M 555.5,553.5 C 575.5,553.5 595.5,553.5 615.5,553.5C 595.524,555.188 575.858,555.521 556.5,554.5C 556.968,558.986 557.968,563.319 559.5,567.5C 557.52,566.152 556.353,564.152 556,561.5C 555.503,558.854 555.336,556.187 555.5,553.5 Z"/></g>
<g><path style="opacity:0.157" fill="#969696" d="M 789.5,550.5 C 788.941,553.943 787.607,556.943 785.5,559.5C 786.075,556.088 787.408,553.088 789.5,550.5 Z"/></g>
<g><path style="opacity:0.427" fill="#858585" d="M 342.5,549.5 C 342.206,552.754 340.873,555.421 338.5,557.5C 339.326,554.515 340.659,551.849 342.5,549.5 Z"/></g>
<g><path style="opacity:0.541" fill="#808080" d="M 267.5,555.5 C 269.218,557.223 270.551,559.223 271.5,561.5C 268.956,560.292 267.622,558.292 267.5,555.5 Z"/></g>
<g><path style="opacity:0.31" fill="#858585" d="M 906.5,555.5 C 907.674,556.514 908.34,557.847 908.5,559.5C 906.896,558.713 906.229,557.38 906.5,555.5 Z"/></g>
<g><path style="opacity:0.659" fill="#727272" d="M 652.5,534.5 C 653.167,542.833 653.833,551.167 654.5,559.5C 654.5,572.5 654.5,585.5 654.5,598.5C 654.5,598.833 654.5,599.167 654.5,599.5C 652.511,578.192 651.844,556.526 652.5,534.5 Z"/></g>
<g><path style="opacity:0.438" fill="#5d5d5d" d="M 684.5,529.5 C 683.599,552.819 683.265,576.152 683.5,599.5C 673.833,599.5 664.167,599.5 654.5,599.5C 654.5,599.167 654.5,598.833 654.5,598.5C 663.533,598.716 672.533,598.383 681.5,597.5C 682.179,576.175 682.679,554.842 683,533.5C 683.21,531.942 683.71,530.609 684.5,529.5 Z"/></g>
<g><path style="opacity:0.067" fill="#8d8d8d" d="M 908.5,559.5 C 910.4,562.518 911.733,565.851 912.5,569.5C 910.215,566.665 908.882,563.332 908.5,559.5 Z"/></g>
<g><path style="opacity:0.243" fill="#737373" d="M 233.5,556.5 C 235.381,559.938 237.048,563.605 238.5,567.5C 235.512,564.519 233.846,560.852 233.5,556.5 Z"/></g>
<g><path style="opacity:0.659" fill="#7c7c7c" d="M 271.5,561.5 C 272.833,562.167 273.833,563.167 274.5,564.5C 272.5,564.5 271.5,563.5 271.5,561.5 Z"/></g>
<g><path style="opacity:0.067" fill="#828282" d="M 373.5,556.5 C 372.636,561.455 370.636,565.789 367.5,569.5C 369.137,564.885 371.137,560.551 373.5,556.5 Z"/></g>
<g><path style="opacity:0.541" fill="#757575" d="M 337.5,559.5 C 336.557,562.109 334.89,564.109 332.5,565.5C 333.473,562.865 335.14,560.865 337.5,559.5 Z"/></g>
<g><path style="opacity:0.659" fill="#6d6d6d" d="M 882.5,578.5 C 880.672,575.065 879.006,571.399 877.5,567.5C 857.175,566.334 836.842,566.167 816.5,567C 815.956,567.717 815.289,568.217 814.5,568.5C 814.539,567.417 814.873,566.417 815.5,565.5C 836.159,564.334 856.825,564.167 877.5,565C 880.057,569.172 881.724,573.672 882.5,578.5 Z"/></g>
<g><path style="opacity:0.157" fill="#919191" d="M 525.5,556.5 C 526.167,557.167 526.833,557.833 527.5,558.5C 527.873,563.321 528.873,567.988 530.5,572.5C 527.359,567.732 525.692,562.398 525.5,556.5 Z"/></g>
<g><path style="opacity:0.541" fill="#757575" d="M 755.5,523.5 C 755.75,538.5 756.083,553.5 756.5,568.5C 756.674,578.901 756.007,589.234 754.5,599.5C 745.347,599.565 736.013,599.565 726.5,599.5C 726.5,599.167 726.5,598.833 726.5,598.5C 735.833,598.5 745.167,598.5 754.5,598.5C 754.169,573.328 754.502,548.328 755.5,523.5 Z"/></g>
<g><path style="opacity:0.659" fill="#727272" d="M 332.5,565.5 C 330.28,568.287 327.614,570.62 324.5,572.5C 323.313,573.653 322.313,573.653 321.5,572.5C 324.989,569.92 328.656,567.587 332.5,565.5 Z"/></g>
<g><path style="opacity:0.157" fill="#959595" d="M 477.5,563.5 C 477.741,566.034 476.741,567.7 474.5,568.5C 475.263,566.632 476.263,564.965 477.5,563.5 Z"/></g>
<g><path style="opacity:0.31" fill="#8d8d8d" d="M 601.5,565.5 C 599.57,565.771 598.236,566.771 597.5,568.5C 597.337,564.965 598.67,563.965 601.5,565.5 Z"/></g>
<g><path style="opacity:0.659" fill="#666666" d="M 616.5,567.5 C 615.903,568.139 615.07,568.472 614,568.5C 609.518,568.185 605.351,567.185 601.5,565.5C 602.117,565.389 602.617,565.056 603,564.5C 607.392,565.914 611.892,566.914 616.5,567.5 Z"/></g>
<g><path style="opacity:0.067" fill="#868686" d="M 276.5,566.5 C 278.404,566.738 279.738,567.738 280.5,569.5C 278.596,569.262 277.262,568.262 276.5,566.5 Z"/></g>
<g><path style="opacity:0.427" fill="#818181" d="M 618.5,567.5 C 621.43,568.299 624.43,568.632 627.5,568.5C 627.784,570.415 627.451,572.081 626.5,573.5C 626.5,572.167 626.5,570.833 626.5,569.5C 624.143,569.663 621.81,569.497 619.5,569C 618.944,568.617 618.611,568.117 618.5,567.5 Z"/></g>
<g><path style="opacity:0.659" fill="#6b6b6b" d="M 436.5,568.5 C 439.29,571.113 442.29,573.613 445.5,576C 457.177,580.639 466.844,578.139 474.5,568.5C 471.463,576.698 465.463,580.364 456.5,579.5C 447.321,580.149 440.654,576.482 436.5,568.5 Z"/></g>
<g><path style="opacity:0.427" fill="#838383" d="M 508.5,564.5 C 507.935,568.537 506.601,572.203 504.5,575.5C 505.224,572.157 506.057,568.824 507,565.5C 507.383,564.944 507.883,564.611 508.5,564.5 Z"/></g>
<g><path style="opacity:0.31" fill="#909090" d="M 559.5,568.5 C 560.906,568.973 561.573,569.973 561.5,571.5C 560.094,571.027 559.427,570.027 559.5,568.5 Z"/></g>
<g><path style="opacity:0.243" fill="#848484" d="M 785.5,560.5 C 782.972,569.213 779.639,577.546 775.5,585.5C 778.068,576.784 781.401,568.451 785.5,560.5 Z"/></g>
<g><path style="opacity:0.067" fill="#8e8e8e" d="M 239.5,569.5 C 241.104,570.287 241.771,571.62 241.5,573.5C 240.326,572.486 239.66,571.153 239.5,569.5 Z"/></g>
<g><path style="opacity:0.067" fill="#8e8e8e" d="M 367.5,569.5 C 367.25,571.674 366.25,573.341 364.5,574.5C 364.75,572.326 365.75,570.659 367.5,569.5 Z"/></g>
<g><path style="opacity:0.067" fill="#8b8b8b" d="M 284.5,571.5 C 296.203,575.95 307.87,576.284 319.5,572.5C 319.423,573.75 318.756,574.583 317.5,575C 308.5,577 299.5,577 290.5,575C 287.848,574.647 285.848,573.48 284.5,571.5 Z"/></g>
<g><path style="opacity:0.067" fill="#868686" d="M 563.5,573.5 C 565.19,573.856 566.19,574.856 566.5,576.5C 564.81,576.144 563.81,575.144 563.5,573.5 Z"/></g>
<g><path style="opacity:0.659" fill="#787878" d="M 597.5,568.5 C 596.921,572.361 594.921,575.027 591.5,576.5C 593.512,573.795 595.512,571.128 597.5,568.5 Z"/></g>
<g><path style="opacity:0.31" fill="#929292" d="M 813.5,571.5 C 813.118,575.332 811.785,578.665 809.5,581.5C 810.267,577.851 811.6,574.518 813.5,571.5 Z"/></g>
<g><path style="opacity:0.157" fill="#929292" d="M 530.5,573.5 C 532.588,575.336 533.921,577.669 534.5,580.5C 532.412,578.664 531.079,576.331 530.5,573.5 Z"/></g>
<g><path style="opacity:0.659" fill="#646464" d="M 591.5,576.5 C 590.393,578.969 588.393,579.969 585.5,579.5C 587.181,577.992 589.181,576.992 591.5,576.5 Z"/></g>
<g><path style="opacity:0.243" fill="#737373" d="M 363.5,575.5 C 362.581,578.089 360.914,580.089 358.5,581.5C 359.419,578.911 361.086,576.911 363.5,575.5 Z"/></g>
<g><path style="opacity:0.31" fill="#909090" d="M 567.5,576.5 C 573.183,579.051 579.183,580.051 585.5,579.5C 581.689,580.645 577.689,580.812 573.5,580C 570.655,579.992 568.655,578.825 567.5,576.5 Z"/></g>
<g><path style="opacity:0.067" fill="#949494" d="M 625.5,575.5 C 625.539,578.089 624.539,580.089 622.5,581.5C 622.992,579.181 623.992,577.181 625.5,575.5 Z"/></g>
<g><path style="opacity:0.541" fill="#7f7f7f" d="M 882.5,578.5 C 884.213,579.635 884.88,581.302 884.5,583.5C 883.463,582.07 882.796,580.403 882.5,578.5 Z"/></g>
<g><path style="opacity:0.067" fill="#909090" d="M 534.5,580.5 C 535.906,580.973 536.573,581.973 536.5,583.5C 535.094,583.027 534.427,582.027 534.5,580.5 Z"/></g>
<g><path style="opacity:0.31" fill="#888888" d="M 912.5,569.5 C 915.278,574.074 917.278,579.074 918.5,584.5C 915.72,579.831 913.72,574.831 912.5,569.5 Z"/></g>
<g><path style="opacity:0.067" fill="#868686" d="M 502.5,578.5 C 501.737,582.37 499.737,585.37 496.5,587.5C 498.255,584.32 500.255,581.32 502.5,578.5 Z"/></g>
<g><path style="opacity:0.067" fill="#939393" d="M 621.5,582.5 C 621.573,584.027 620.906,585.027 619.5,585.5C 619.427,583.973 620.094,582.973 621.5,582.5 Z"/></g>
<g><path style="opacity:0.427" fill="#8b8b8b" d="M 809.5,582.5 C 808.586,586.936 806.919,590.936 804.5,594.5C 805.414,590.064 807.081,586.064 809.5,582.5 Z"/></g>
<g><path style="opacity:0.067" fill="#909090" d="M 252.5,585.5 C 254.632,585.554 255.965,586.554 256.5,588.5C 254.545,588.201 253.211,587.201 252.5,585.5 Z"/></g>
<g><path style="opacity:0.067" fill="#818181" d="M 358.5,581.5 C 356.451,584.55 353.784,586.883 350.5,588.5C 352.523,585.48 355.19,583.146 358.5,581.5 Z"/></g>
<g><path style="opacity:0.067" fill="#8e8e8e" d="M 918.5,584.5 C 920.448,586.32 921.448,588.654 921.5,591.5C 919.935,589.491 918.935,587.157 918.5,584.5 Z"/></g>
<g><path style="opacity:0.067" fill="#969696" d="M 619.5,585.5 C 619.5,587.5 618.5,588.5 616.5,588.5C 617.167,587.167 618.167,586.167 619.5,585.5 Z"/></g>
<g><path style="opacity:0.067" fill="#8a8a8a" d="M 537.5,584.5 C 539.833,586.167 541.833,588.167 543.5,590.5C 540.5,589.5 538.5,587.5 537.5,584.5 Z"/></g>
<g><path style="opacity:0.31" fill="#8f8f8f" d="M 884.5,583.5 C 886.273,586.18 887.607,589.18 888.5,592.5C 886.026,590.102 884.692,587.102 884.5,583.5 Z"/></g>
<g><path style="opacity:0.067" fill="#8c8c8c" d="M 433.5,588.5 C 436.205,590.512 438.872,592.512 441.5,594.5C 437.639,593.921 434.973,591.921 433.5,588.5 Z"/></g>
<g><path style="opacity:0.067" fill="#878787" d="M 493.5,590.5 C 492.055,592.063 490.389,593.396 488.5,594.5C 489.129,592.003 490.796,590.67 493.5,590.5 Z"/></g>
<g><path style="opacity:0.427" fill="#818181" d="M 543.5,590.5 C 546.439,591.456 548.772,593.123 550.5,595.5C 547.6,594.557 545.267,592.89 543.5,590.5 Z"/></g>
<g><path style="opacity:0.243" fill="#717171" d="M 257.5,588.5 C 261.173,590 264.506,592 267.5,594.5C 263.365,593.741 260.032,591.741 257.5,588.5 Z"/></g>
<g><path style="opacity:0.427" fill="#767676" d="M 346.5,590.5 C 344.281,592.624 341.614,594.291 338.5,595.5C 340.418,592.862 343.085,591.195 346.5,590.5 Z"/></g>
<g><path style="opacity:0.427" fill="#7e7e7e" d="M 614.5,590.5 C 612.469,592.522 610.135,594.189 607.5,595.5C 608.948,592.736 611.281,591.069 614.5,590.5 Z"/></g>
<g><path style="opacity:0.067" fill="#8f8f8f" d="M 921.5,591.5 C 922.674,592.514 923.34,593.847 923.5,595.5C 921.896,594.713 921.229,593.38 921.5,591.5 Z"/></g>
<g><path style="opacity:0.31" fill="#919191" d="M 773.5,590.5 C 772.629,593.112 771.963,595.779 771.5,598.5C 770.833,598.5 770.5,598.833 770.5,599.5C 769.957,599.44 769.624,599.107 769.5,598.5C 770.284,595.43 771.617,592.763 773.5,590.5 Z"/></g>
<g><path style="opacity:0.067" fill="#7d7d7d" d="M 267.5,594.5 C 273.644,596.199 279.644,598.199 285.5,600.5C 278.852,600.015 272.852,598.015 267.5,594.5 Z"/></g>
<g><path style="opacity:0.067" fill="#898989" d="M 484.5,596.5 C 481.646,598.729 478.313,600.062 474.5,600.5C 474.611,599.883 474.944,599.383 475.5,599C 478.521,598.151 481.521,597.317 484.5,596.5 Z"/></g>
<g><path style="opacity:0.243" fill="#757575" d="M 442.5,595.5 C 446.299,596.421 449.632,598.088 452.5,600.5C 448.569,599.868 445.235,598.201 442.5,595.5 Z"/></g>
<g><path style="opacity:0.067" fill="#818181" d="M 606.5,595.5 C 605.942,596.79 604.942,597.623 603.5,598C 600.198,599.026 596.865,599.86 593.5,600.5C 597.478,598.279 601.811,596.612 606.5,595.5 Z"/></g>
<g><path style="opacity:0.369" fill="#5c5c5c" d="M 803.5,597.5 C 792.884,599.477 781.884,600.144 770.5,599.5C 770.5,598.833 770.833,598.5 771.5,598.5C 782.198,598.737 792.865,598.404 803.5,597.5 Z"/></g>
<g><path style="opacity:0.369" fill="#646464" d="M 888.5,592.5 C 889.931,593.78 890.598,595.447 890.5,597.5C 897.153,597.987 903.819,598.32 910.5,598.5C 915.222,598.492 919.555,597.825 923.5,596.5C 925.892,597.742 925.725,599.075 923,600.5C 915,599.167 907,599.167 899,600.5C 896.26,599.718 893.426,599.218 890.5,599C 889.331,596.993 888.665,594.827 888.5,592.5 Z"/></g>
<g><path style="opacity:0.067" fill="#8a8a8a" d="M 336.5,595.5 C 336.53,596.497 336.03,597.164 335,597.5C 320.602,602.265 305.769,603.765 290.5,602C 289.584,601.722 288.918,601.222 288.5,600.5C 304.938,602.881 320.938,601.215 336.5,595.5 Z"/></g>
<g><path style="opacity:0.067" fill="#8f8f8f" d="M 455.5,600.5 C 461.155,601.673 466.821,601.673 472.5,600.5C 472.082,601.222 471.416,601.722 470.5,602C 466.167,602.667 461.833,602.667 457.5,602C 456.584,601.722 455.918,601.222 455.5,600.5 Z"/></g>
<g><path style="opacity:0.067" fill="#888888" d="M 551.5,595.5 C 564.136,600.204 577.136,601.871 590.5,600.5C 590.082,601.222 589.416,601.722 588.5,602C 576.473,603.392 565.14,602.058 554.5,598C 553.058,597.623 552.058,596.79 551.5,595.5 Z"/></g>
<g><path style="opacity:0.31" fill="#919191" d="M 433.5,588.5 C 432.657,599.332 431.99,610.332 431.5,621.5C 431.574,624.374 431.907,627.208 432.5,630C 432.265,633.956 431.265,637.456 429.5,640.5C 429.5,640.167 429.5,639.833 429.5,639.5C 430.167,621.995 430.833,604.329 431.5,586.5C 432.522,586.855 433.189,587.522 433.5,588.5 Z"/></g>
<g><path style="opacity:0.565" fill="#b7b7b7" d="M 429.5,640.5 C 429.217,641.289 428.717,641.956 428,642.5C 419.988,642.487 411.821,642.154 403.5,641.5C 411.984,640.507 420.651,640.174 429.5,640.5 Z"/></g>
</svg>
