<?xml version="1.0" encoding="UTF-8"?>
<!DOCTYPE svg PUBLIC "-//W3C//DTD SVG 1.1//EN" "http://www.w3.org/Graphics/SVG/1.1/DTD/svg11.dtd">
<svg xmlns="http://www.w3.org/2000/svg" version="1.1" width="2400px" height="1350px" style="shape-rendering:geometricPrecision; text-rendering:geometricPrecision; image-rendering:optimizeQuality; fill-rule:evenodd; clip-rule:evenodd" xmlns:xlink="http://www.w3.org/1999/xlink">
<g><path style="opacity:0.847" fill="#262626" d="M 1152.5,76.5 C 1153.17,77.1667 1153.83,77.8333 1154.5,78.5C 1140.85,77.6643 1127.18,77.6643 1113.5,78.5C 1113.61,77.8826 1113.94,77.3826 1114.5,77C 1127.16,76.5001 1139.83,76.3334 1152.5,76.5 Z"/></g>
<g><path style="opacity:0.188" fill="#6a6a6a" d="M 1152.5,76.5 C 1159.39,76.8729 1166.06,77.8729 1172.5,79.5C 1166.51,79.0343 1160.51,78.701 1154.5,78.5C 1153.83,77.8333 1153.17,77.1667 1152.5,76.5 Z"/></g>
<g><path style="opacity:1" fill="#010101" d="M 1113.5,78.5 C 1127.18,77.6643 1140.85,77.6643 1154.5,78.5C 1160.51,78.701 1166.51,79.0343 1172.5,79.5C 1191.57,81.0494 1210.24,85.0494 1228.5,91.5C 1232.22,93.4053 1236.22,94.7387 1240.5,95.5C 1287.37,112.224 1327.37,139.057 1360.5,176C 1361.79,176.49 1363.13,176.657 1364.5,176.5C 1370.77,176.344 1376.77,175.344 1382.5,173.5C 1384.95,172.527 1387.61,172.194 1390.5,172.5C 1426.53,169.492 1462.2,171.825 1497.5,179.5C 1512.78,182.979 1527.45,187.979 1541.5,194.5C 1543.43,196.293 1545.76,197.293 1548.5,197.5C 1623.15,232.154 1675.49,287.821 1705.5,364.5C 1705.78,368.68 1707.12,372.347 1709.5,375.5C 1718.23,399.831 1723.23,424.831 1724.5,450.5C 1724.5,464.833 1724.5,479.167 1724.5,493.5C 1723.75,513.593 1720.42,533.259 1714.5,552.5C 1713.08,554.515 1712.41,556.848 1712.5,559.5C 1711.74,562.141 1711.57,564.808 1712,567.5C 1756.32,617.823 1781.16,676.49 1786.5,743.5C 1786.63,754.475 1786.97,764.809 1787.5,774.5C 1786.35,783.775 1785.68,793.109 1785.5,802.5C 1784.55,815.871 1782.22,828.871 1778.5,841.5C 1776.39,846.194 1775.05,851.194 1774.5,856.5C 1770.89,870.048 1765.89,883.048 1759.5,895.5C 1756.13,899.581 1753.79,904.247 1752.5,909.5C 1717.03,975.961 1664.03,1022.63 1593.5,1049.5C 1590.46,1049.73 1587.79,1050.73 1585.5,1052.5C 1573.55,1056.65 1561.38,1060.32 1549,1063.5C 1524.01,1136.13 1478.85,1192.29 1413.5,1232C 1398.06,1240.56 1382.06,1247.72 1365.5,1253.5C 1361.46,1254.07 1357.8,1255.4 1354.5,1257.5C 1350.47,1257.52 1346.8,1258.52 1343.5,1260.5C 1326.65,1265.47 1309.65,1268.8 1292.5,1270.5C 1288.15,1270.33 1283.82,1270.5 1279.5,1271C 1278.94,1271.38 1278.61,1271.88 1278.5,1272.5C 1267.5,1272.5 1256.5,1272.5 1245.5,1272.5C 1245.08,1271.78 1244.42,1271.28 1243.5,1271C 1235.18,1269.95 1226.85,1269.11 1218.5,1268.5C 1185.58,1264.64 1154.58,1254.97 1125.5,1239.5C 1123.66,1237.41 1121.33,1236.08 1118.5,1235.5C 1105.47,1229.33 1093.47,1221.66 1082.5,1212.5C 1081.65,1210.11 1079.98,1208.77 1077.5,1208.5C 1063.27,1197.94 1050.27,1185.94 1038.5,1172.5C 1037.9,1171.86 1037.07,1171.53 1036,1171.5C 1004.74,1177.38 973.237,1179.05 941.5,1176.5C 941.167,1176.5 940.833,1176.5 940.5,1176.5C 934.1,1174.58 927.433,1173.58 920.5,1173.5C 916.922,1173.45 913.589,1172.78 910.5,1171.5C 908.095,1170.23 905.428,1169.57 902.5,1169.5C 892.252,1167.31 882.252,1164.31 872.5,1160.5C 868.924,1158.08 864.924,1156.41 860.5,1155.5C 819.685,1139 784.351,1114.67 754.5,1082.5C 753.92,1080.25 752.587,1078.58 750.5,1077.5C 734.8,1061.11 721.8,1042.77 711.5,1022.5C 711.008,1020.18 710.008,1018.18 708.5,1016.5C 701.845,1005.52 696.512,993.852 692.5,981.5C 691.405,976.216 689.739,971.216 687.5,966.5C 686.262,964.786 685.595,962.786 685.5,960.5C 685.829,957.772 685.163,955.438 683.5,953.5C 677.93,933.783 674.93,914.116 674.5,894.5C 674.5,882.833 674.5,871.167 674.5,859.5C 674.897,842.359 677.23,825.026 681.5,807.5C 682.117,807.389 682.617,807.056 683,806.5C 684.668,800.163 686.168,793.829 687.5,787.5C 687.815,785.774 687.981,784.107 688,782.5C 672.251,765.596 659.085,746.929 648.5,726.5C 648.539,723.911 647.539,721.911 645.5,720.5C 635.821,703.136 628.488,684.802 623.5,665.5C 623.59,662.848 622.924,660.515 621.5,658.5C 618.036,647.178 615.702,635.512 614.5,623.5C 614.414,616.963 613.747,610.63 612.5,604.5C 612.5,602.5 612.5,600.5 612.5,598.5C 612.5,584.833 612.5,571.167 612.5,557.5C 614.052,532.547 618.886,507.547 627,482.5C 629.9,473.676 633.733,465.009 638.5,456.5C 642.272,450.619 645.272,444.286 647.5,437.5C 690.995,357.533 757.328,307.2 846.5,286.5C 848.288,286.785 849.955,286.452 851.5,285.5C 853.041,280.879 854.374,276.212 855.5,271.5C 881.921,203.413 926.921,151.413 990.5,115.5C 997.315,112.927 1003.65,109.594 1009.5,105.5C 1043.02,89.4586 1077.69,80.4586 1113.5,78.5 Z M 1071.5,749.5 C 1071.17,699.496 1071.5,649.496 1072.5,599.5C 1073.52,599.145 1074.19,598.478 1074.5,597.5C 1116.28,573.776 1157.94,549.776 1199.5,525.5C 1242.17,550.167 1284.83,574.833 1327.5,599.5C 1328.83,649.5 1328.83,699.5 1327.5,749.5C 1285.29,774.102 1242.96,798.436 1200.5,822.5C 1157.32,798.412 1114.32,774.079 1071.5,749.5 Z"/></g>
<g><path style="opacity:0.408" fill="#5c5c5c" d="M 1228.5,91.5 C 1232.92,91.8606 1236.92,93.1939 1240.5,95.5C 1236.22,94.7387 1232.22,93.4053 1228.5,91.5 Z"/></g>
<g><path style="opacity:0.569" fill="#484848" d="M 1009.5,105.5 C 1003.65,109.594 997.315,112.927 990.5,115.5C 996.351,111.406 1002.68,108.073 1009.5,105.5 Z"/></g>
<g><path style="opacity:1" fill="#fefefe" d="M 1016.5,377.5 C 1015.83,490.5 1015.17,603.5 1014.5,716.5C 980.829,697.667 947.495,678.334 914.5,658.5C 914.194,556.825 914.527,455.158 915.5,353.5C 924.311,286.672 955.977,233.839 1010.5,195C 1073.89,154.274 1141.56,145.608 1213.5,169C 1237.81,177.983 1259.81,190.816 1279.5,207.5C 1197.67,255.135 1115.67,302.635 1033.5,350C 1024.12,356.94 1018.45,366.106 1016.5,377.5 Z"/></g>
<g><path style="opacity:0.569" fill="#4c4c4c" d="M 1497.5,179.5 C 1462.2,171.825 1426.53,169.492 1390.5,172.5C 1426.6,168.075 1462.27,170.408 1497.5,179.5 Z"/></g>
<g><path style="opacity:0.408" fill="#595959" d="M 1382.5,173.5 C 1376.77,175.344 1370.77,176.344 1364.5,176.5C 1370.23,174.656 1376.23,173.656 1382.5,173.5 Z"/></g>
<g><path style="opacity:0.408" fill="#585858" d="M 1541.5,194.5 C 1544.24,194.707 1546.57,195.707 1548.5,197.5C 1545.76,197.293 1543.43,196.293 1541.5,194.5 Z"/></g>
<g><path style="opacity:1" fill="#fdfdfd" d="M 1443.5,249.5 C 1445.19,250.304 1446.86,251.304 1448.5,252.5C 1453.1,251.983 1457.77,251.983 1462.5,252.5C 1529.78,265.647 1581.28,301.313 1617,359.5C 1640.85,401.934 1650.69,447.601 1646.5,496.5C 1645.22,499.589 1644.55,502.922 1644.5,506.5C 1645.1,510.748 1643.77,511.915 1640.5,510C 1559.77,462.64 1479.1,415.306 1398.5,368C 1384.84,361.582 1371.51,362.249 1358.5,370C 1263.27,425.445 1167.94,480.611 1072.5,535.5C 1071.17,496.264 1071.17,456.931 1072.5,417.5C 1151.87,371.64 1231.2,325.473 1310.5,279C 1327.93,269.282 1346.27,261.782 1365.5,256.5C 1368.5,256.706 1371.16,256.04 1373.5,254.5C 1396.53,249.104 1419.86,247.437 1443.5,249.5 Z"/></g>
<g><path style="opacity:1" fill="#b8b8b8" d="M 1443.5,249.5 C 1450.04,250.051 1456.37,251.051 1462.5,252.5C 1457.77,251.983 1453.1,251.983 1448.5,252.5C 1446.86,251.304 1445.19,250.304 1443.5,249.5 Z"/></g>
<g><path style="opacity:1" fill="#8a8a8a" d="M 1373.5,254.5 C 1371.16,256.04 1368.5,256.706 1365.5,256.5C 1367.91,255.232 1370.57,254.565 1373.5,254.5 Z"/></g>
<g><path style="opacity:0.973" fill="#424242" d="M 855.5,271.5 C 854.374,276.212 853.041,280.879 851.5,285.5C 849.955,286.452 848.288,286.785 846.5,286.5C 847.568,285.566 848.901,285.232 850.5,285.5C 851.398,280.466 853.065,275.799 855.5,271.5 Z"/></g>
<g><path style="opacity:1" fill="#959595" d="M 915.5,353.5 C 914.527,455.158 914.194,556.825 914.5,658.5C 913.334,560.334 913.168,462.001 914,363.5C 914.179,359.975 914.679,356.641 915.5,353.5 Z"/></g>
<g><path style="opacity:0.973" fill="#404040" d="M 1705.5,364.5 C 1707.6,367.797 1708.93,371.463 1709.5,375.5C 1707.12,372.347 1705.78,368.68 1705.5,364.5 Z"/></g>
<g><path style="opacity:1" fill="#959595" d="M 833.5,373.5 C 834.568,372.566 835.901,372.232 837.5,372.5C 837.5,467.5 837.5,562.5 837.5,657.5C 836.501,563.001 836.167,468.335 836.5,373.5C 835.5,373.5 834.5,373.5 833.5,373.5 Z"/></g>
<g><path style="opacity:1" fill="#fefefe" d="M 833.5,373.5 C 834.5,373.5 835.5,373.5 836.5,373.5C 836.167,468.335 836.501,563.001 837.5,657.5C 838.474,670.611 844.474,680.778 855.5,688C 952.038,743.432 1048.37,799.098 1144.5,855C 1111.66,874.586 1078.66,893.919 1045.5,913C 1043.83,913.667 1042.17,913.667 1040.5,913C 958.977,865.226 876.977,817.892 794.5,771C 737.303,733.616 703.303,681.116 692.5,613.5C 692.451,609.922 691.785,606.589 690.5,603.5C 689.334,589.008 689.334,574.674 690.5,560.5C 691.449,556.343 692.116,552.01 692.5,547.5C 695.989,520.033 704.655,494.366 718.5,470.5C 746.03,425.252 784.363,392.919 833.5,373.5 Z"/></g>
<g><path style="opacity:1" fill="#929292" d="M 1016.5,377.5 C 1016.83,490.835 1016.5,604.169 1015.5,717.5C 1014.89,717.376 1014.56,717.043 1014.5,716.5C 1015.17,603.5 1015.83,490.5 1016.5,377.5 Z"/></g>
<g><path style="opacity:1" fill="#bfbfbf" d="M 1072.5,417.5 C 1071.17,456.931 1071.17,496.264 1072.5,535.5C 1072.44,536.043 1072.11,536.376 1071.5,536.5C 1071.17,516.667 1070.83,496.833 1070.5,477C 1070.5,456.822 1071.17,436.989 1072.5,417.5 Z"/></g>
<g><path style="opacity:1" fill="#fefefe" d="M 1706.5,732.5 C 1706.68,735.727 1707.34,738.727 1708.5,741.5C 1709.3,756.152 1709.64,770.819 1709.5,785.5C 1708.1,791.639 1707.1,797.973 1706.5,804.5C 1693.63,873.864 1656.97,926.697 1596.5,963C 1586.99,967.996 1577.32,972.496 1567.5,976.5C 1565.83,882.671 1564.83,788.671 1564.5,694.5C 1563.28,680.214 1556.61,669.381 1544.5,662C 1451.3,608.216 1357.97,554.216 1264.5,500C 1261.69,497.564 1258.69,495.398 1255.5,493.5C 1288,474.081 1320.67,454.914 1353.5,436C 1355.17,435.333 1356.83,435.333 1358.5,436C 1437.94,482.225 1517.61,528.225 1597.5,574C 1658,610.037 1694.34,662.871 1706.5,732.5 Z"/></g>
<g><path style="opacity:0.569" fill="#414141" d="M 647.5,437.5 C 645.272,444.286 642.272,450.619 638.5,456.5C 640.718,449.734 643.718,443.401 647.5,437.5 Z"/></g>
<g><path style="opacity:0.847" fill="#404040" d="M 1724.5,450.5 C 1727.17,464.833 1727.17,479.167 1724.5,493.5C 1724.5,479.167 1724.5,464.833 1724.5,450.5 Z"/></g>
<g><path style="opacity:1" fill="#646464" d="M 1646.5,496.5 C 1646.68,500.122 1646.01,503.456 1644.5,506.5C 1644.55,502.922 1645.22,499.589 1646.5,496.5 Z"/></g>
<g><path style="opacity:1" fill="#595959" d="M 692.5,547.5 C 692.116,552.01 691.449,556.343 690.5,560.5C 690.335,557.15 690.502,553.817 691,550.5C 691.232,549.263 691.732,548.263 692.5,547.5 Z"/></g>
<g><path style="opacity:0.188" fill="#5b5b5b" d="M 1714.5,552.5 C 1714.59,555.152 1713.92,557.485 1712.5,559.5C 1712.41,556.848 1713.08,554.515 1714.5,552.5 Z"/></g>
<g><path style="opacity:0.973" fill="#232323" d="M 612.5,557.5 C 612.5,571.167 612.5,584.833 612.5,598.5C 611.833,597.833 611.167,597.167 610.5,596.5C 610.333,583.829 610.5,571.162 611,558.5C 611.383,557.944 611.883,557.611 612.5,557.5 Z"/></g>
<g><path style="opacity:0.188" fill="#727272" d="M 1074.5,597.5 C 1074.19,598.478 1073.52,599.145 1072.5,599.5C 1071.5,649.496 1071.17,699.496 1071.5,749.5C 1070.17,699.332 1070.17,648.998 1071.5,598.5C 1072.42,597.873 1073.42,597.539 1074.5,597.5 Z"/></g>
<g><path style="opacity:0.188" fill="#6d6d6d" d="M 610.5,596.5 C 611.167,597.167 611.833,597.833 612.5,598.5C 612.5,600.5 612.5,602.5 612.5,604.5C 611.883,604.389 611.383,604.056 611,603.5C 610.503,601.19 610.337,598.857 610.5,596.5 Z"/></g>
<g><path style="opacity:1" fill="#646464" d="M 690.5,603.5 C 691.785,606.589 692.451,609.922 692.5,613.5C 690.989,610.456 690.322,607.122 690.5,603.5 Z"/></g>
<g><path style="opacity:0.973" fill="#3a3a3a" d="M 612.5,604.5 C 613.747,610.63 614.414,616.963 614.5,623.5C 613.785,619.37 612.785,615.203 611.5,611C 612.478,609.076 612.811,606.91 612.5,604.5 Z"/></g>
<g><path style="opacity:1" fill="#656565" d="M 1385.5,632.5 C 1383.67,746.162 1382.83,860.162 1383,974.5C 1382.77,975.737 1382.27,976.737 1381.5,977.5C 1382.49,862.188 1382.83,746.855 1382.5,631.5C 1383.79,631.263 1384.79,631.596 1385.5,632.5 Z"/></g>
<g><path style="opacity:1" fill="#fefefe" d="M 1385.5,632.5 C 1418.72,651.696 1451.89,671.029 1485,690.5C 1485.67,787.5 1485.67,884.5 1485,981.5C 1484.44,987.835 1483.94,994.168 1483.5,1000.5C 1482.1,1003.91 1481.43,1007.58 1481.5,1011.5C 1463.33,1092.18 1416,1148.34 1339.5,1180C 1259.03,1206.59 1185.69,1193.92 1119.5,1142C 1201.34,1093.58 1283.68,1045.91 1366.5,999C 1374.05,993.616 1379.05,986.449 1381.5,977.5C 1382.27,976.737 1382.77,975.737 1383,974.5C 1382.83,860.162 1383.67,746.162 1385.5,632.5 Z"/></g>
<g><path style="opacity:0.188" fill="#565656" d="M 621.5,658.5 C 622.924,660.515 623.59,662.848 623.5,665.5C 622.076,663.485 621.41,661.152 621.5,658.5 Z"/></g>
<g><path style="opacity:1" fill="#c2c2c2" d="M 1564.5,694.5 C 1564.83,788.671 1565.83,882.671 1567.5,976.5C 1566.79,977.404 1565.79,977.737 1564.5,977.5C 1564.5,883.167 1564.5,788.833 1564.5,694.5 Z"/></g>
<g><path style="opacity:0.569" fill="#515151" d="M 645.5,720.5 C 647.539,721.911 648.539,723.911 648.5,726.5C 646.992,724.819 645.992,722.819 645.5,720.5 Z"/></g>
<g><path style="opacity:1" fill="#565656" d="M 1706.5,732.5 C 1708.12,735.171 1708.78,738.171 1708.5,741.5C 1707.34,738.727 1706.68,735.727 1706.5,732.5 Z"/></g>
<g><path style="opacity:0.973" fill="#2d2d2d" d="M 1786.5,743.5 C 1787.22,743.918 1787.72,744.584 1788,745.5C 1788.67,760.5 1788.67,775.5 1788,790.5C 1786.46,791.546 1786.29,792.879 1787.5,794.5C 1787.04,797.349 1786.37,800.016 1785.5,802.5C 1785.68,793.109 1786.35,783.775 1787.5,774.5C 1786.97,764.809 1786.63,754.475 1786.5,743.5 Z"/></g>
<g><path style="opacity:1" fill="#515151" d="M 1709.5,785.5 C 1709.55,792.141 1708.55,798.474 1706.5,804.5C 1707.1,797.973 1708.1,791.639 1709.5,785.5 Z"/></g>
<g><path style="opacity:0.408" fill="#4f4f4f" d="M 687.5,787.5 C 686.168,793.829 684.668,800.163 683,806.5C 682.617,807.056 682.117,807.389 681.5,807.5C 682.899,800.55 684.899,793.883 687.5,787.5 Z"/></g>
<g><path style="opacity:1" fill="#fdfdfd" d="M 1040.5,1090.5 C 1037.01,1090.45 1034.01,1091.45 1031.5,1093.5C 999.703,1101.39 967.703,1102.39 935.5,1096.5C 933.162,1094.96 930.495,1094.29 927.5,1094.5C 927.167,1094.5 926.833,1094.5 926.5,1094.5C 923.093,1092.93 919.427,1091.93 915.5,1091.5C 858.211,1075.04 814.044,1041.38 783,990.5C 755.873,943.074 746.873,892.407 756,838.5C 838.761,886.464 921.594,934.297 1004.5,982C 1017.84,986.434 1030.5,985.101 1042.5,978C 1137.75,922.454 1233.25,867.288 1329,812.5C 1329.67,851.5 1329.67,890.5 1329,929.5C 1247.09,977.732 1164.93,1025.57 1082.5,1073C 1068.97,1080.27 1054.97,1086.11 1040.5,1090.5 Z"/></g>
<g><path style="opacity:0.188" fill="#565656" d="M 1778.5,841.5 C 1777.92,846.809 1776.59,851.809 1774.5,856.5C 1775.05,851.194 1776.39,846.194 1778.5,841.5 Z"/></g>
<g><path style="opacity:0.569" fill="#575757" d="M 674.5,859.5 C 674.5,871.167 674.5,882.833 674.5,894.5C 673.802,891.103 673.135,887.603 672.5,884C 672.611,876.726 673.277,868.56 674.5,859.5 Z"/></g>
<g><path style="opacity:0.569" fill="#4a4a4a" d="M 1759.5,895.5 C 1757.67,900.484 1755.34,905.151 1752.5,909.5C 1753.79,904.247 1756.13,899.581 1759.5,895.5 Z"/></g>
<g><path style="opacity:0.569" fill="#525252" d="M 683.5,953.5 C 685.163,955.438 685.829,957.772 685.5,960.5C 684.388,958.401 683.721,956.067 683.5,953.5 Z"/></g>
<g><path style="opacity:0.188" fill="#676767" d="M 687.5,966.5 C 689.739,971.216 691.405,976.216 692.5,981.5C 689.86,976.915 688.194,971.915 687.5,966.5 Z"/></g>
<g><path style="opacity:1" fill="#5a5a5a" d="M 1483.5,1000.5 C 1483.57,1004.42 1482.9,1008.09 1481.5,1011.5C 1481.43,1007.58 1482.1,1003.91 1483.5,1000.5 Z"/></g>
<g><path style="opacity:0.188" fill="#6a6a6a" d="M 708.5,1016.5 C 710.008,1018.18 711.008,1020.18 711.5,1022.5C 709.461,1021.09 708.461,1019.09 708.5,1016.5 Z"/></g>
<g><path style="opacity:0.408" fill="#606060" d="M 1593.5,1049.5 C 1591.21,1051.27 1588.54,1052.27 1585.5,1052.5C 1587.79,1050.73 1590.46,1049.73 1593.5,1049.5 Z"/></g>
<g><path style="opacity:0.188" fill="#646464" d="M 750.5,1077.5 C 752.587,1078.58 753.92,1080.25 754.5,1082.5C 752.413,1081.42 751.08,1079.75 750.5,1077.5 Z"/></g>
<g><path style="opacity:1" fill="#676767" d="M 1040.5,1090.5 C 1037.75,1091.95 1034.75,1092.95 1031.5,1093.5C 1034.01,1091.45 1037.01,1090.45 1040.5,1090.5 Z"/></g>
<g><path style="opacity:1" fill="#939393" d="M 915.5,1091.5 C 919.427,1091.93 923.093,1092.93 926.5,1094.5C 922.43,1094.57 918.763,1093.57 915.5,1091.5 Z"/></g>
<g><path style="opacity:1" fill="#919191" d="M 927.5,1094.5 C 930.495,1094.29 933.162,1094.96 935.5,1096.5C 932.505,1096.71 929.838,1096.04 927.5,1094.5 Z"/></g>
<g><path style="opacity:0.569" fill="#4a4a4a" d="M 860.5,1155.5 C 864.924,1156.41 868.924,1158.08 872.5,1160.5C 868.099,1159.59 864.099,1157.93 860.5,1155.5 Z"/></g>
<g><path style="opacity:0.188" fill="#686868" d="M 902.5,1169.5 C 905.428,1169.57 908.095,1170.23 910.5,1171.5C 907.505,1171.71 904.838,1171.04 902.5,1169.5 Z"/></g>
<g><path style="opacity:0.188" fill="#565656" d="M 920.5,1173.5 C 927.433,1173.58 934.1,1174.58 940.5,1176.5C 933.578,1176.34 926.911,1175.34 920.5,1173.5 Z"/></g>
<g><path style="opacity:0.569" fill="#4b4b4b" d="M 1038.5,1172.5 C 1006.22,1178.71 973.888,1180.05 941.5,1176.5C 973.237,1179.05 1004.74,1177.38 1036,1171.5C 1037.07,1171.53 1037.9,1171.86 1038.5,1172.5 Z"/></g>
<g><path style="opacity:0.408" fill="#505050" d="M 1077.5,1208.5 C 1079.98,1208.77 1081.65,1210.11 1082.5,1212.5C 1080.25,1211.92 1078.58,1210.59 1077.5,1208.5 Z"/></g>
<g><path style="opacity:0.569" fill="#505050" d="M 1118.5,1235.5 C 1121.33,1236.08 1123.66,1237.41 1125.5,1239.5C 1122.67,1238.92 1120.34,1237.59 1118.5,1235.5 Z"/></g>
<g><path style="opacity:0.408" fill="#606060" d="M 1365.5,1253.5 C 1362.2,1255.6 1358.54,1256.93 1354.5,1257.5C 1357.8,1255.4 1361.46,1254.07 1365.5,1253.5 Z"/></g>
<g><path style="opacity:0.569" fill="#505050" d="M 1354.5,1257.5 C 1351.09,1259.07 1347.43,1260.07 1343.5,1260.5C 1346.8,1258.52 1350.47,1257.52 1354.5,1257.5 Z"/></g>
<g><path style="opacity:0.188" fill="#5f5f5f" d="M 1218.5,1268.5 C 1226.85,1269.11 1235.18,1269.95 1243.5,1271C 1244.42,1271.28 1245.08,1271.78 1245.5,1272.5C 1236,1272.08 1227,1270.75 1218.5,1268.5 Z"/></g>
<g><path style="opacity:0.188" fill="#6f6f6f" d="M 1292.5,1270.5 C 1288.04,1271.64 1283.37,1272.31 1278.5,1272.5C 1278.61,1271.88 1278.94,1271.38 1279.5,1271C 1283.82,1270.5 1288.15,1270.33 1292.5,1270.5 Z"/></g>
</svg>
