<?xml version="1.0" encoding="UTF-8"?>
<!DOCTYPE svg PUBLIC "-//W3C//DTD SVG 1.1//EN" "http://www.w3.org/Graphics/SVG/1.1/DTD/svg11.dtd">
<svg xmlns="http://www.w3.org/2000/svg" version="1.1" width="2000px" height="1125px" style="shape-rendering:geometricPrecision; text-rendering:geometricPrecision; image-rendering:optimizeQuality; fill-rule:evenodd; clip-rule:evenodd" xmlns:xlink="http://www.w3.org/1999/xlink">
<g><path style="opacity:1" fill="#10a17d" d="M 247.5,794.5 C 247.167,792.167 245.833,790.833 243.5,790.5C 239.522,788.522 236.522,785.522 234.5,781.5C 233.5,781.167 232.5,780.833 231.5,780.5C 228.367,781.861 225.033,782.694 221.5,783C 211.833,783.667 202.167,783.667 192.5,783C 142.371,775.605 106.204,748.771 84,702.5C 72.7873,672.71 71.6206,642.543 80.5,612C 75.1116,602.773 69.1116,593.94 62.5,585.5C 56.8705,572.524 52.3705,559.524 49,546.5C 40.9005,485.292 63.4005,438.125 116.5,405C 124.705,402.233 132.705,398.9 140.5,395C 144.17,394.452 147.837,393.952 151.5,393.5C 152.099,390.037 153.099,386.704 154.5,383.5C 155.376,383.631 156.043,383.298 156.5,382.5C 157.653,381.313 157.653,380.313 156.5,379.5C 161.138,371.034 165.972,362.701 171,354.5C 175.727,350.441 179.727,345.774 183,340.5C 184.432,338.561 186.265,337.228 188.5,336.5C 188.56,337.043 188.893,337.376 189.5,337.5C 190.773,336.743 190.773,336.077 189.5,335.5C 214.674,313.88 244.007,302.88 277.5,302.5C 286.942,302.218 296.275,303.052 305.5,305C 313.355,308.011 321.688,310.678 330.5,313C 343.52,319.171 355.52,326.837 366.5,336C 370.008,339.206 373.175,342.706 376,346.5C 445.392,336.11 495.225,362.443 525.5,425.5C 525.291,426.086 524.957,426.586 524.5,427C 529.865,436.769 533.032,447.269 534,458.5C 535.769,477.303 534.269,495.803 529.5,514C 533.464,521.983 538.297,529.483 544,536.5C 546.984,542.469 549.984,548.469 553,554.5C 554.54,562.45 556.873,570.117 560,577.5C 560.687,579.568 560.52,581.568 559.5,583.5C 566.674,632.882 550.674,674.382 511.5,708C 506.167,711.667 500.833,715.333 495.5,719C 487.908,721.796 480.575,725.13 473.5,729C 468.227,730.488 462.893,731.654 457.5,732.5C 457.263,735.647 456.43,738.647 455,741.5C 450.322,750.238 445.655,758.905 441,767.5C 435.116,773.714 429.616,780.214 424.5,787C 416.123,793.336 407.79,799.669 399.5,806C 394.554,807.806 389.888,810.139 385.5,813C 378.274,814.847 371.608,817.18 365.5,820C 344.209,821.609 322.876,821.943 301.5,821C 294.126,817.653 286.126,814.986 277.5,813C 271.385,809.211 265.052,805.877 258.5,803C 255.833,801.667 253.833,799.667 252.5,797C 250.922,795.906 249.255,795.072 247.5,794.5 Z M 332.5,356.5 C 332.833,357.5 333.5,358.167 334.5,358.5C 334.918,359.222 335.584,359.722 336.5,360C 305.536,378.487 274.202,396.487 242.5,414C 237.672,417.581 232.672,420.915 227.5,424C 226.695,425.113 226.028,426.279 225.5,427.5C 224.069,428.78 223.402,430.447 223.5,432.5C 223.5,433.167 223.5,433.833 223.5,434.5C 222.501,482.33 222.168,530.33 222.5,578.5C 215.531,574.046 208.198,570.212 200.5,567C 194.052,562.696 187.552,558.529 181,554.5C 180.333,513.167 180.333,471.833 181,430.5C 182.768,427.782 182.934,424.949 181.5,422C 184.509,413.304 187.342,404.471 190,395.5C 208.196,360.737 237.196,341.737 277,338.5C 289.523,339.34 301.69,341.84 313.5,346C 319.888,349.524 326.221,353.024 332.5,356.5 Z M 475.5,413.5 C 475.932,414.71 476.599,415.71 477.5,416.5C 478.441,418.772 479.774,420.772 481.5,422.5C 481.81,424.144 482.81,425.144 484.5,425.5C 486.841,430.926 489.175,436.26 491.5,441.5C 491.402,443.553 492.069,445.22 493.5,446.5C 493.263,447.791 493.596,448.791 494.5,449.5C 494.5,450.167 494.5,450.833 494.5,451.5C 495.01,454.983 495.677,458.316 496.5,461.5C 496.5,462.833 496.5,464.167 496.5,465.5C 496.366,467.292 496.699,468.958 497.5,470.5C 497.5,473.833 497.5,477.167 497.5,480.5C 496.549,481.919 496.216,483.585 496.5,485.5C 496.66,487.199 496.494,488.866 496,490.5C 493.617,487.727 490.783,485.561 487.5,484C 466.722,473.291 446.722,461.625 427.5,449C 416.074,443.452 405.074,437.119 394.5,430C 387.664,425.832 380.664,425.499 373.5,429C 332.158,452.334 291.158,476.168 250.5,500.5C 249.176,484.269 249.176,468.103 250.5,452C 280.037,435.066 309.703,418.399 339.5,402C 354.886,390.313 372.22,382.98 391.5,380C 425.016,377.774 453.016,388.941 475.5,413.5 Z M 169.5,578.5 C 169.833,579.5 170.5,580.167 171.5,580.5C 206.634,600.568 241.634,620.901 276.5,641.5C 275.694,642.728 274.694,643.728 273.5,644.5C 262.791,651.131 251.791,657.297 240.5,663C 237.5,665 234.5,665 231.5,663C 217.233,655.056 203.233,646.722 189.5,638C 187.043,636.438 184.376,635.438 181.5,635C 176.266,630.104 170.266,626.437 163.5,624C 151.828,616.495 139.828,609.495 127.5,603C 100.503,583.192 85.8364,556.358 83.5,522.5C 83.6379,508.447 86.9712,495.281 93.5,483C 93.3552,482.228 93.0219,481.561 92.5,481C 96.3926,476.106 99.8926,470.939 103,465.5C 114.366,451.634 128.199,440.967 144.5,433.5C 145.333,475.163 145.833,516.829 146,558.5C 146.742,563.151 148.908,566.984 152.5,570C 158.193,572.847 163.86,575.68 169.5,578.5 Z M 475.5,519.5 C 475.973,520.906 476.973,521.573 478.5,521.5C 483.368,524.125 487.701,527.459 491.5,531.5C 492.833,533.5 494.5,535.167 496.5,536.5C 499.164,539.266 501.997,541.933 505,544.5C 505.6,546.91 506.766,548.91 508.5,550.5C 508.427,552.027 509.094,553.027 510.5,553.5C 511.167,554.833 511.833,556.167 512.5,557.5C 513.877,559.289 514.877,561.289 515.5,563.5C 516.11,564.391 516.443,565.391 516.5,566.5C 516.554,568.632 517.554,569.965 519.5,570.5C 518.174,572.195 518.507,573.528 520.5,574.5C 519.561,575.327 519.895,575.994 521.5,576.5C 524.363,590.349 525.197,604.349 524,618.5C 523.294,622.994 522.127,627.327 520.5,631.5C 517.796,637.267 515.462,643.267 513.5,649.5C 509.746,655.342 505.746,661.009 501.5,666.5C 499.833,667.5 498.5,668.833 497.5,670.5C 494.585,673.959 491.252,676.959 487.5,679.5C 486.167,680.167 485.167,681.167 484.5,682.5C 478.411,686.878 471.745,690.211 464.5,692.5C 464.984,649.773 464.484,607.106 463,564.5C 461.542,562.04 459.709,559.873 457.5,558C 448.241,551.981 439.074,546.814 430,542.5C 429.626,541.584 429.126,540.75 428.5,540C 425.911,538.803 423.244,537.803 420.5,537C 391.223,519.117 361.556,501.784 331.5,485C 344.071,476.55 357.071,468.884 370.5,462C 372.167,461.333 373.833,461.333 375.5,462C 385.334,467.749 395.001,473.749 404.5,480C 428.221,493.191 451.888,506.358 475.5,519.5 Z M 321.5,509.5 C 322.29,510.401 323.29,511.068 324.5,511.5C 336.252,517.88 347.918,524.547 359.5,531.5C 359.667,552.503 359.5,573.503 359,594.5C 357.698,595.085 356.531,595.751 355.5,596.5C 345.048,603.401 334.548,609.401 324,614.5C 317.656,618.183 311.323,621.85 305,625.5C 298.498,622.33 291.998,619.163 285.5,616C 284.167,614.667 282.833,613.333 281.5,612C 270.51,607.002 260.01,601.168 250,594.5C 249.167,573.492 249.334,552.492 250.5,531.5C 268.771,521.362 286.771,510.695 304.5,499.5C 310.03,503.097 315.696,506.43 321.5,509.5 Z M 388.5,548.5 C 401.262,555.874 413.928,563.207 426.5,570.5C 426.667,615.168 426.5,659.835 426,704.5C 424.829,709.847 423.663,715.181 422.5,720.5C 420.893,725.076 419.226,729.743 417.5,734.5C 415.75,735.659 414.75,737.326 414.5,739.5C 408.855,747.781 401.855,756.281 393.5,765C 386.187,769.636 378.854,774.302 371.5,779C 336.185,793.389 303.185,789.389 272.5,767C 275.167,765 277.833,763 280.5,761C 314.557,742.217 348.224,722.883 381.5,703C 380.434,701.841 380.767,701.008 382.5,700.5C 384.714,698.005 385.881,695.005 386,691.5C 385.837,643.489 386.67,595.823 388.5,548.5 Z M 279.5,719.5 C 277.847,719.66 276.514,720.326 275.5,721.5C 258.988,733.416 240.655,741.583 220.5,746C 177.179,749.424 144.345,732.59 122,695.5C 118.201,686.768 115.201,677.768 113,668.5C 112.333,657.833 112.333,647.167 113,636.5C 113.833,638 115,639.167 116.5,640C 125.329,644.247 133.996,648.747 142.5,653.5C 156.666,661.749 170.666,670.249 184.5,679C 196.487,684.973 207.82,691.306 218.5,698C 222.741,699.457 227.074,699.791 231.5,699C 274.098,675.09 316.598,650.59 359,625.5C 359.667,641.5 359.667,657.5 359,673.5C 332.404,688.746 305.904,704.079 279.5,719.5 Z"/></g>
<g><path style="opacity:0.639" fill="#0e2922" d="M 189.5,335.5 C 190.773,336.077 190.773,336.743 189.5,337.5C 188.893,337.376 188.56,337.043 188.5,336.5C 188.5,335.833 188.833,335.5 189.5,335.5 Z"/></g>
<g><path style="opacity:0.78" fill="#000705" d="M 332.5,356.5 C 333.833,356.5 334.5,357.167 334.5,358.5C 333.5,358.167 332.833,357.5 332.5,356.5 Z"/></g>
<g><path style="opacity:0.996" fill="#081d18" d="M 156.5,379.5 C 157.653,380.313 157.653,381.313 156.5,382.5C 156.043,383.298 155.376,383.631 154.5,383.5C 155.167,382.167 155.833,380.833 156.5,379.5 Z"/></g>
<g><path style="opacity:0.49" fill="#0c1d18" d="M 475.5,413.5 C 477.048,413.821 477.715,414.821 477.5,416.5C 476.599,415.71 475.932,414.71 475.5,413.5 Z"/></g>
<g><path style="opacity:0.998" fill="#000100" d="M 864.5,448.5 C 866.051,451.563 868.218,454.229 871,456.5C 871.399,456.272 871.565,455.938 871.5,455.5C 887.614,471.909 897.614,491.742 901.5,515C 902,515.5 902.5,516 903,516.5C 911.845,559.796 907.011,600.629 888.5,639C 861.801,680.361 823.467,700.861 773.5,700.5C 764.136,699.997 754.803,699.164 745.5,698C 738.471,697.04 731.805,695.206 725.5,692.5C 723.22,690.777 720.553,690.111 717.5,690.5C 686.949,677.443 665.115,656.109 652,626.5C 648.161,615.583 644.827,604.916 642,594.5C 638.101,566.166 638.934,538.333 644.5,511C 650.756,486.934 663.089,466.1 681.5,448.5C 681.435,448.938 681.601,449.272 682,449.5C 683.039,448.756 683.539,447.756 683.5,446.5C 701.387,429.794 722.72,420.294 747.5,418C 774.716,414.307 801.383,416.64 827.5,425C 835.683,428.256 843.349,432.256 850.5,437C 855.647,440.32 860.314,444.153 864.5,448.5 Z M 766.5,465.5 C 801.332,464.144 825.832,479.144 840,510.5C 841.146,517.417 842.979,524.084 845.5,530.5C 844.998,531.716 844.665,532.883 844.5,534C 845,534.5 845.5,535 846,535.5C 849.158,560.457 846.825,583.79 839,605.5C 829.223,630.624 811.056,645.124 784.5,649C 757.33,652.137 734.83,643.637 717,623.5C 701.84,598.725 696.173,571.391 700,541.5C 701.557,523.278 707.723,505.944 718.5,489.5C 731.347,476.408 747.347,468.408 766.5,465.5 Z"/></g>
<g><path style="opacity:0.998" fill="#000100" d="M 1786.5,486.5 C 1786.12,488.698 1786.79,490.365 1788.5,491.5C 1812.49,550.169 1835.82,608.836 1858.5,667.5C 1857.19,668.895 1857.52,669.895 1859.5,670.5C 1863.87,678.265 1866.87,686.598 1868.5,695.5C 1847.82,695.833 1827.16,695.5 1806.5,694.5C 1798.3,674.756 1790.63,654.756 1783.5,634.5C 1747.84,633.333 1712.17,633.167 1676.5,634C 1671.71,649.706 1666.04,664.873 1659.5,679.5C 1658.38,680.348 1658.38,681.348 1659.5,682.5C 1657.17,686.335 1655.5,690.502 1654.5,695C 1634.17,695.5 1613.84,695.667 1593.5,695.5C 1595.29,690.255 1596.79,684.922 1598,679.5C 1599.91,678.009 1601.08,676.509 1601.5,675C 1601.04,674.586 1600.71,674.086 1600.5,673.5C 1601.52,672.646 1602.36,671.646 1603,670.5C 1612.22,643.512 1622.22,616.845 1633,590.5C 1633.57,588.508 1634.74,587.008 1636.5,586C 1635.76,583.728 1635.76,581.728 1636.5,580C 1643.07,564.878 1649.57,549.712 1656,534.5C 1659.64,523.873 1663.31,513.206 1667,502.5C 1678.32,475.628 1688.82,448.962 1698.5,422.5C 1719.16,421.334 1739.83,421.167 1760.5,422C 1769.54,443.254 1778.2,464.754 1786.5,486.5 Z M 1728.5,489.5 C 1733.65,501.422 1738.15,513.755 1742,526.5C 1749.6,545.794 1757.1,565.127 1764.5,584.5C 1741.17,585.666 1717.84,585.833 1694.5,585C 1703.73,560.131 1712.89,535.631 1722,511.5C 1724.28,504.177 1726.44,496.843 1728.5,489.5 Z"/></g>
<g><path style="opacity:0.995" fill="#000000" d="M 1894.5,421.5 C 1913.5,421.5 1932.5,421.5 1951.5,421.5C 1951.5,512.833 1951.5,604.167 1951.5,695.5C 1932.5,695.5 1913.5,695.5 1894.5,695.5C 1894.5,604.167 1894.5,512.833 1894.5,421.5 Z"/></g>
<g><path style="opacity:0.157" fill="#0e4235" d="M 481.5,422.5 C 483.5,422.5 484.5,423.5 484.5,425.5C 482.81,425.144 481.81,424.144 481.5,422.5 Z"/></g>
<g><path style="opacity:0.984" fill="#114537" d="M 225.5,427.5 C 226.515,428.46 226.515,429.627 225.5,431C 225.164,432.03 224.497,432.53 223.5,432.5C 223.402,430.447 224.069,428.78 225.5,427.5 Z"/></g>
<g><path style="opacity:0.984" fill="#0f4134" d="M 223.5,434.5 C 224.831,482.668 224.831,531.002 223.5,579.5C 222.893,579.376 222.56,579.043 222.5,578.5C 222.168,530.33 222.501,482.33 223.5,434.5 Z"/></g>
<g><path style="opacity:0.78" fill="#000705" d="M 491.5,441.5 C 492.931,442.78 493.598,444.447 493.5,446.5C 492.069,445.22 491.402,443.553 491.5,441.5 Z"/></g>
<g><path style="opacity:0.984" fill="#103e32" d="M 493.5,446.5 C 495.382,447.221 495.715,448.221 494.5,449.5C 493.596,448.791 493.263,447.791 493.5,446.5 Z"/></g>
<g><path style="opacity:0.984" fill="#0b755c" d="M 683.5,446.5 C 683.539,447.756 683.039,448.756 682,449.5C 681.601,449.272 681.435,448.938 681.5,448.5C 681.833,447.5 682.5,446.833 683.5,446.5 Z"/></g>
<g><path style="opacity:0.996" fill="#083a2e" d="M 864.5,448.5 C 867.167,450.5 869.5,452.833 871.5,455.5C 871.565,455.938 871.399,456.272 871,456.5C 868.218,454.229 866.051,451.563 864.5,448.5 Z"/></g>
<g><path style="opacity:0.49" fill="#0d261f" d="M 494.5,451.5 C 495.931,451.881 496.764,452.881 497,454.5C 497.796,457.039 497.629,459.372 496.5,461.5C 495.677,458.316 495.01,454.983 494.5,451.5 Z"/></g>
<g><path style="opacity:0.29" fill="#051612" d="M 496.5,465.5 C 497.649,465.791 498.316,466.624 498.5,468C 498.472,469.07 498.139,469.903 497.5,470.5C 498.139,469.903 498.472,469.07 498.5,468C 498.316,466.624 497.649,465.791 496.5,465.5 Z"/></g>
<g><path style="opacity:0.49" fill="#0a1c17" d="M 497.5,480.5 C 498.139,481.097 498.472,481.93 498.5,483C 498.316,484.376 497.649,485.209 496.5,485.5C 496.216,483.585 496.549,481.919 497.5,480.5 Z"/></g>
<g><path style="opacity:0.157" fill="#085946" d="M 1786.5,486.5 C 1787.54,487.93 1788.2,489.597 1788.5,491.5C 1786.79,490.365 1786.12,488.698 1786.5,486.5 Z"/></g>
<g><path style="opacity:0.999" fill="#000000" d="M 1138.5,612.5 C 1137.71,612.783 1137.04,613.283 1136.5,614C 1137.45,617.057 1137.78,620.223 1137.5,623.5C 1135.1,636.811 1130.27,649.811 1123,662.5C 1117.43,669.862 1110.93,677.029 1103.5,684C 1089.39,694.259 1073.56,699.759 1056,700.5C 1033.77,699.884 1015.44,691.217 1001,674.5C 1000.5,706.165 1000.33,737.832 1000.5,769.5C 981.833,769.5 963.167,769.5 944.5,769.5C 944.5,678.167 944.5,586.833 944.5,495.5C 961.833,495.5 979.167,495.5 996.5,495.5C 996.334,503.507 996.5,511.507 997,519.5C 1002.84,513.329 1009,507.496 1015.5,502C 1033.64,491.836 1052.97,488.836 1073.5,493C 1095.72,498.546 1112.88,511.046 1125,530.5C 1132.85,545.943 1137.51,561.276 1139,576.5C 1139.83,588.674 1139.66,600.674 1138.5,612.5 Z M 1035.5,535.5 C 1043.73,535.059 1051.73,536.225 1059.5,539C 1067.73,544.974 1073.73,552.307 1077.5,561C 1079.3,561.317 1079.63,561.984 1078.5,563C 1080.52,568.254 1082.02,573.754 1083,579.5C 1084.3,595.657 1083.3,611.657 1080,627.5C 1076.4,634.67 1071.9,641.17 1066.5,647C 1057.58,654.592 1047.24,657.258 1035.5,655C 1031.62,654.743 1027.96,653.743 1024.5,652C 1018.43,647.053 1012.93,641.553 1008,635.5C 1004.27,628.262 1001.94,620.595 1001,612.5C 998.069,594.161 999.402,576.161 1005,558.5C 1011.97,546.339 1022.13,538.672 1035.5,535.5 Z"/></g>
<g><path style="opacity:0.997" fill="#000101" d="M 1301.5,631.5 C 1302.53,632.249 1303.7,632.915 1305,633.5C 1305.4,633.272 1305.57,632.938 1305.5,632.5C 1318.45,634.586 1331.79,636.753 1345.5,639C 1346.6,641.498 1346.43,643.998 1345,646.5C 1328.23,682.083 1299.9,700.083 1260,700.5C 1212.89,700.796 1182.05,679.129 1167.5,635.5C 1167.26,633.533 1167.59,631.699 1168.5,630C 1167.96,629.283 1167.29,628.783 1166.5,628.5C 1164.74,622.752 1163.58,616.752 1163,610.5C 1159.32,577.228 1166.99,547.562 1186,521.5C 1215.48,491.759 1250.31,483.592 1290.5,497C 1318.03,507.879 1335.87,527.713 1344,556.5C 1348.04,574.585 1349.88,592.919 1349.5,611.5C 1306.17,611.5 1262.83,611.5 1219.5,611.5C 1219.77,621.264 1221.94,630.598 1226,639.5C 1230.79,644.29 1235.62,649.123 1240.5,654C 1246.81,656.326 1253.31,657.826 1260,658.5C 1266.04,657.822 1271.87,656.322 1277.5,654C 1280.67,651.198 1283.5,648.031 1286,644.5C 1288.62,639.774 1290.78,634.94 1292.5,630C 1295.58,629.914 1298.58,630.414 1301.5,631.5 Z M 1255.5,533.5 C 1276.9,534.397 1289.4,545.397 1293,566.5C 1293.5,569.817 1293.67,573.15 1293.5,576.5C 1269.17,576.5 1244.83,576.5 1220.5,576.5C 1219.93,561.686 1225.27,549.519 1236.5,540C 1242.56,536.744 1248.89,534.577 1255.5,533.5 Z"/></g>
<g><path style="opacity:0.998" fill="#000101" d="M 1456.5,544.5 C 1454.95,544.821 1454.29,545.821 1454.5,547.5C 1450.02,553.768 1447.18,560.768 1446,568.5C 1444.75,610.15 1444.08,651.817 1444,693.5C 1443.5,694 1443,694.5 1442.5,695C 1424.5,695.5 1406.5,695.667 1388.5,695.5C 1388.5,628.833 1388.5,562.167 1388.5,495.5C 1405.5,495.5 1422.5,495.5 1439.5,495.5C 1439.33,504.173 1439.5,512.84 1440,521.5C 1455.85,501.493 1476.68,491.493 1502.5,491.5C 1517.83,491.084 1532.17,494.584 1545.5,502C 1560.42,513.236 1568.75,527.903 1570.5,546C 1570.46,548.094 1570.13,550.094 1569.5,552C 1570.83,575.618 1571.5,599.451 1571.5,623.5C 1571.33,647.167 1571.17,670.833 1571,694.5C 1552.58,695.493 1534.08,695.826 1515.5,695.5C 1515.67,652.832 1515.5,610.165 1515,567.5C 1514.88,547.208 1504.71,535.874 1484.5,533.5C 1474.16,534.832 1464.82,538.498 1456.5,544.5 Z"/></g>
<g><path style="opacity:0.157" fill="#103b2f" d="M 324.5,511.5 C 323.29,511.068 322.29,510.401 321.5,509.5C 321.435,509.062 321.601,508.728 322,508.5C 323.417,509.078 324.25,510.078 324.5,511.5 Z"/></g>
<g><path style="opacity:0.78" fill="#000604" d="M 475.5,519.5 C 477.027,519.427 478.027,520.094 478.5,521.5C 476.973,521.573 475.973,520.906 475.5,519.5 Z"/></g>
<g><path style="opacity:1" fill="#030a07" d="M 355.5,596.5 C 356.531,595.751 357.698,595.085 359,594.5C 359.5,573.503 359.667,552.503 359.5,531.5C 360.66,552.093 360.827,573.427 360,595.5C 358.644,596.38 357.144,596.714 355.5,596.5 Z"/></g>
<g><path style="opacity:0.29" fill="#0e241e" d="M 496.5,536.5 C 494.5,535.167 492.833,533.5 491.5,531.5C 491.435,531.062 491.601,530.728 492,530.5C 493.833,532.333 495.667,534.167 497.5,536C 497.272,536.399 496.938,536.565 496.5,536.5 Z"/></g>
<g><path style="opacity:0.157" fill="#09614c" d="M 1456.5,544.5 C 1456.57,546.027 1455.91,547.027 1454.5,547.5C 1454.29,545.821 1454.95,544.821 1456.5,544.5 Z"/></g>
<g><path style="opacity:0.373" fill="#0d9271" d="M 388.5,548.5 C 386.67,595.823 385.837,643.489 386,691.5C 385.881,695.005 384.714,698.005 382.5,700.5C 382.954,696.185 383.954,692.019 385.5,688C 384.919,641.223 384.586,594.39 384.5,547.5C 386.099,547.232 387.432,547.566 388.5,548.5 Z"/></g>
<g><path style="opacity:0.29" fill="#000605" d="M 508.5,550.5 C 509.906,550.973 510.573,551.973 510.5,553.5C 509.094,553.027 508.427,552.027 508.5,550.5 Z"/></g>
<g><path style="opacity:0.996" fill="#09221b" d="M 512.5,557.5 C 514.844,557.979 516.178,559.479 516.5,562C 516.43,562.765 516.097,563.265 515.5,563.5C 514.877,561.289 513.877,559.289 512.5,557.5 Z"/></g>
<g><path style="opacity:0.157" fill="#0e4335" d="M 516.5,566.5 C 518.446,567.035 519.446,568.368 519.5,570.5C 517.554,569.965 516.554,568.632 516.5,566.5 Z"/></g>
<g><path style="opacity:0.996" fill="#08221c" d="M 426.5,570.5 C 427.833,592.156 428.5,614.156 428.5,636.5C 428.333,658.5 428.167,680.5 428,702.5C 427.382,709 425.548,715 422.5,720.5C 423.663,715.181 424.829,709.847 426,704.5C 426.5,659.835 426.667,615.168 426.5,570.5 Z"/></g>
<g><path style="opacity:0.89" fill="#0d1b17" d="M 520.5,574.5 C 521.338,574.842 521.672,575.508 521.5,576.5C 519.895,575.994 519.561,575.327 520.5,574.5 Z"/></g>
<g><path style="opacity:0.996" fill="#081d18" d="M 169.5,578.5 C 170.833,578.5 171.5,579.167 171.5,580.5C 170.5,580.167 169.833,579.5 169.5,578.5 Z"/></g>
<g><path style="opacity:0.157" fill="#075442" d="M 1138.5,612.5 C 1138.81,616.371 1138.48,620.038 1137.5,623.5C 1137.78,620.223 1137.45,617.057 1136.5,614C 1137.04,613.283 1137.71,612.783 1138.5,612.5 Z"/></g>
<g><path style="opacity:0.157" fill="#075341" d="M 1166.5,628.5 C 1167.29,628.783 1167.96,629.283 1168.5,630C 1167.59,631.699 1167.26,633.533 1167.5,635.5C 1166.53,633.393 1166.2,631.059 1166.5,628.5 Z"/></g>
<g><path style="opacity:0.157" fill="#085946" d="M 1301.5,631.5 C 1303.1,631.232 1304.43,631.566 1305.5,632.5C 1305.57,632.938 1305.4,633.272 1305,633.5C 1303.7,632.915 1302.53,632.249 1301.5,631.5 Z"/></g>
<g><path style="opacity:0.29" fill="#0e2f26" d="M 520.5,631.5 C 521.043,631.56 521.376,631.893 521.5,632.5C 519.104,637.293 517.27,642.293 516,647.5C 515.583,648.756 514.75,649.423 513.5,649.5C 515.462,643.267 517.796,637.267 520.5,631.5 Z"/></g>
<g><path style="opacity:0.992" fill="#125e4a" d="M 273.5,644.5 C 274.694,643.728 275.694,642.728 276.5,641.5C 277.537,640.983 277.703,641.649 277,643.5C 275.959,645.311 274.793,645.645 273.5,644.5 Z"/></g>
<g><path style="opacity:0.157" fill="#085946" d="M 1858.5,667.5 C 1859.4,668.209 1859.74,669.209 1859.5,670.5C 1857.52,669.895 1857.19,668.895 1858.5,667.5 Z"/></g>
<g><path style="opacity:0.996" fill="#08211b" d="M 501.5,666.5 C 501.167,668.833 499.833,670.167 497.5,670.5C 498.5,668.833 499.833,667.5 501.5,666.5 Z"/></g>
<g><path style="opacity:0.157" fill="#085a47" d="M 1659.5,679.5 C 1660.62,680.652 1660.62,681.652 1659.5,682.5C 1658.38,681.348 1658.38,680.348 1659.5,679.5 Z"/></g>
<g><path style="opacity:0.996" fill="#0a2921" d="M 487.5,679.5 C 487.315,681.196 486.481,682.529 485,683.5C 484.601,683.272 484.435,682.938 484.5,682.5C 485.167,681.167 486.167,680.167 487.5,679.5 Z"/></g>
<g><path style="opacity:0.157" fill="#085845" d="M 717.5,690.5 C 720.553,690.111 723.22,690.777 725.5,692.5C 722.627,692.198 719.961,691.531 717.5,690.5 Z"/></g>
<g><path style="opacity:0.29" fill="#0f342a" d="M 279.5,719.5 C 278.817,721.176 277.483,721.843 275.5,721.5C 276.514,720.326 277.847,719.66 279.5,719.5 Z"/></g>
<g><path style="opacity:1" fill="#071813" d="M 417.5,734.5 C 417.25,736.674 416.25,738.341 414.5,739.5C 414.75,737.326 415.75,735.659 417.5,734.5 Z"/></g>
<g><path style="opacity:0.157" fill="#114235" d="M 243.5,790.5 C 245.833,790.833 247.167,792.167 247.5,794.5C 245.833,793.5 244.5,792.167 243.5,790.5 Z"/></g>
</svg>
