<?xml version="1.0" encoding="UTF-8"?>
<!DOCTYPE svg PUBLIC "-//W3C//DTD SVG 1.1//EN" "http://www.w3.org/Graphics/SVG/1.1/DTD/svg11.dtd">
<svg xmlns="http://www.w3.org/2000/svg" version="1.1" width="800px" height="450px" style="shape-rendering:geometricPrecision; text-rendering:geometricPrecision; image-rendering:optimizeQuality; fill-rule:evenodd; clip-rule:evenodd" xmlns:xlink="http://www.w3.org/1999/xlink">
<g><path style="opacity:0.923" fill="#20808d" d="M 282.5,36.5 C 317.771,68.719 352.937,101.052 388,133.5C 388.5,101.168 388.667,68.8351 388.5,36.5C 395.755,36.1868 402.921,36.5201 410,37.5C 410.333,69.5 410.667,101.5 411,133.5C 446.297,101.65 481.297,69.3172 516,36.5C 517.493,73.6878 517.993,111.021 517.5,148.5C 532.215,148.183 546.882,148.517 561.5,149.5C 562.833,203.167 562.833,256.833 561.5,310.5C 546.882,311.483 532.215,311.817 517.5,311.5C 517.833,344.507 517.5,377.507 516.5,410.5C 480.915,380.422 445.748,349.755 411,318.5C 410.667,349.833 410.333,381.167 410,412.5C 409.439,413.022 408.772,413.355 408,413.5C 401.647,413.127 395.314,412.794 389,412.5C 388.667,381.5 388.333,350.5 388,319.5C 353,350.5 318,381.5 283,412.5C 281.507,378.98 281.007,345.313 281.5,311.5C 266.785,311.817 252.118,311.483 237.5,310.5C 236.167,256.833 236.167,203.167 237.5,149.5C 252.118,148.517 266.785,148.183 281.5,148.5C 281.173,111.094 281.507,73.7606 282.5,36.5 Z M 304.5,87.5 C 326.982,107.148 348.982,127.315 370.5,148C 348.503,148.5 326.503,148.667 304.5,148.5C 304.5,128.167 304.5,107.833 304.5,87.5 Z M 493.5,87.5 C 494.497,107.66 494.83,127.993 494.5,148.5C 472.164,148.667 449.831,148.5 427.5,148C 449.696,127.967 471.696,107.801 493.5,87.5 Z M 260.5,170.5 C 297.168,170.333 333.835,170.5 370.5,171C 340.948,197.89 311.448,224.723 282,251.5C 281.5,264.162 281.333,276.829 281.5,289.5C 274.5,289.5 267.5,289.5 260.5,289.5C 260.5,249.833 260.5,210.167 260.5,170.5 Z M 428.5,171.5 C 464.996,170.502 501.663,170.168 538.5,170.5C 538.5,210.167 538.5,249.833 538.5,289.5C 531.5,289.5 524.5,289.5 517.5,289.5C 517.667,276.496 517.5,263.496 517,250.5C 487.927,223.588 458.427,197.255 428.5,171.5 Z M 387.5,185.5 C 388.664,220.331 388.831,255.331 388,290.5C 359.958,314.363 332.292,338.696 305,363.5C 304.167,329.162 304.333,294.828 305.5,260.5C 332.905,235.421 360.239,210.421 387.5,185.5 Z M 410.5,185.5 C 438.366,210.185 466.199,235.185 494,260.5C 494.667,294.5 494.667,328.5 494,362.5C 466.926,337.422 439.26,313.089 411,289.5C 410.5,254.835 410.333,220.168 410.5,185.5 Z"/></g>
</svg>
